<?xml version="1.0" standalone="no"?>
<!DOCTYPE svg PUBLIC "-//W3C//DTD SVG 1.1//EN" "http://www.w3.org/Graphics/SVG/1.1/DTD/svg11.dtd" >
<svg xmlns="http://www.w3.org/2000/svg">
<metadata>Generated by IcoMoon</metadata>
<defs>
<font id="mtc-icons" horiz-adv-x="512">
<font-face units-per-em="512" ascent="480" descent="-32" />
<missing-glyph horiz-adv-x="512" />
<glyph unicode="&#x20;" d="" horiz-adv-x="256" />
<glyph unicode="&#xe600;" d="M452.716 325.105h-369.731v90.445c8.484 6.262 14.023 16.323 14.023 27.689 0 19.062-15.452 34.473-34.489 34.473s-34.462-15.411-34.462-34.473c0-11.361 5.499-21.427 13.993-27.689v-92.754c-24.33-6.599-42.050-26.819-42.050-50.652v-248.873c0-29.22 26.608-52.982 59.274-52.982h393.442c32.686 0 59.284 23.762 59.284 52.982v248.873c0 29.194-26.599 52.962-59.284 52.962zM471.050 23.271c0-5.694-7.536-12.017-18.334-12.017h-393.442c-10.803 0-18.304 6.318-18.304 12.017v160.246h430.080v-160.246zM471.050 224.446h-430.080v47.693c0 5.673 7.501 11.976 18.304 11.976h393.442c10.798 0 18.334-6.303 18.334-11.976v-47.693zM195.994 79.938h232.837c10.122 0 18.325 8.207 18.325 18.32 0 10.137-8.207 18.334-18.325 18.334h-232.837c-10.107 0-18.314-8.197-18.314-18.334 0-10.112 8.208-18.32 18.314-18.32zM227.804 129.255h169.211c10.122 0 18.34 8.192 18.34 18.299 0 10.137-8.217 18.334-18.34 18.334h-169.211c-10.127 0-18.314-8.197-18.314-18.334 0-10.107 8.187-18.299 18.314-18.299zM393.267 67.282h-161.715c-10.096 0-18.314-8.212-18.314-18.334 0-10.112 8.218-18.304 18.314-18.304h161.715c10.096 0 18.309 8.197 18.309 18.304 0 10.122-8.217 18.334-18.309 18.334zM82.355 82.432c10.972 0 19.891 8.919 19.891 19.881s-8.919 19.845-19.891 19.845c-10.947 0-19.84-8.883-19.84-19.845s8.894-19.881 19.84-19.881zM426.209 273.065c-10.947 0-19.835-8.904-19.835-19.85 0-10.962 8.889-19.865 19.835-19.865 10.988 0 19.865 8.904 19.865 19.865 0 10.946-8.878 19.85-19.865 19.85zM82.355 29.097c10.972 0 19.891 8.904 19.891 19.85 0 10.988-8.919 19.865-19.891 19.865-10.947 0-19.84-8.873-19.84-19.865 0-10.947 8.894-19.85 19.84-19.85z" />
<glyph unicode="&#xe601;" d="M256.005 86.067c-76.053 0-137.943 61.88-137.943 137.923 0 76.078 61.886 137.958 137.943 137.958 76.048 0 137.923-61.88 137.923-137.958-0.005-76.042-61.875-137.923-137.923-137.923zM256.005 329.144c-57.989 0-105.154-47.161-105.154-105.154 0-57.974 47.166-105.149 105.154-105.149 57.974 0 105.124 47.175 105.124 105.149 0 57.994-47.15 105.154-105.124 105.154zM271.985 399.104c0-8.822-7.158-15.99-15.99-15.99s-15.98 7.168-15.98 15.99v64.921c0 8.807 7.148 15.975 15.98 15.975s15.99-7.168 15.99-15.975v-64.921zM271.985-15.99c0-8.842-7.158-16.010-15.99-16.010s-15.98 7.168-15.98 16.010v64.865c0 8.873 7.148 16.041 15.98 16.041s15.99-7.163 15.99-16.041v-64.865zM391.096 336.517c-6.19-6.242-16.322-6.242-22.594 0-6.211 6.257-6.211 16.348 0 22.62l45.896 45.886c6.252 6.241 16.368 6.241 22.599 0 6.272-6.221 6.272-16.364 0-22.6l-45.901-45.906zM97.603 42.993c-6.242-6.272-16.379-6.272-22.61 0-6.251 6.247-6.251 16.379 0 22.599l45.886 45.906c6.262 6.241 16.348 6.241 22.62 0 6.226-6.272 6.226-16.363 0-22.635l-45.895-45.87zM431.094 208.015c-8.848 0-16 7.168-16 15.974 0 8.842 7.152 16.010 16 16.010h64.896c8.832 0 16.010-7.168 16.010-16.010 0-8.806-7.178-15.974-16.010-15.974h-64.896zM16 208.015c-8.812 0-16 7.168-16 15.974 0 8.842 7.189 16.010 16 16.010h64.906c8.842 0 16-7.168 16-16.010 0-8.806-7.158-15.974-16-15.974h-64.906zM368.502 88.863c-6.231 6.272-6.231 16.363 0 22.635 6.272 6.241 16.404 6.241 22.594 0l45.911-45.906c6.262-6.221 6.262-16.374 0-22.599-6.241-6.272-16.348-6.272-22.62 0l-45.885 45.87zM74.993 382.418c-6.262 6.236-6.262 16.358 0 22.584 6.242 6.257 16.358 6.257 22.61 0l45.906-45.87c6.215-6.272 6.215-16.363 0-22.62-6.272-6.242-16.4-6.242-22.63 0l-45.885 45.906z" />
<glyph unicode="&#xe602;" d="M391.952 121.6l-104.171 104.177 103.588 103.583-153.037 150.64v-204.79l-86.492 86.533-31.212-31.196 105.933-105.979-106.511-106.481 31.201-31.191 87.081 87.076v-205.972l153.62 153.6zM278.37 382.305l52.951-54.134-52.951-52.962v107.095zM278.37 177.531l52.951-54.144-52.951-52.976v107.12z" />
<glyph unicode="&#xe603;" d="M430.249 389.73c-5.868 4.541-12.252 8.448-18.99 11.689l-5.74-10.855c5.918-2.826 11.53-6.272 16.691-10.25l8.038 9.416zM458.322 356.362c-3.328 6.421-7.419 12.524-12.139 18.135l-9.969-7.588c4.142-4.925 7.741-10.286 10.67-15.933l11.438 5.386zM390.072 408.94c-7.291 1.772-14.827 2.796-22.4 3.021l-0.42-12.13c6.651-0.2 13.261-1.096 19.681-2.652l3.139 11.76zM456.341 314.542l12.749 0.317c-0.2 7.198-1.209 14.366-3 21.294l-12.411-2.908c1.582-6.077 2.473-12.375 2.663-18.703zM311.030 383.908l-7.363 9.933c-6.17-4.126-11.868-8.909-16.978-14.203l9.421-8.192c4.48 4.659 9.508 8.842 14.92 12.462zM347.428 398.448l-2.299 11.93c-7.429-1.275-14.72-3.349-21.688-6.118l4.951-11.197c6.108 2.442 12.519 4.265 19.036 5.386zM163.707 399.826l-0.43 12.13c-7.572-0.236-15.109-1.25-22.4-3.021l3.149-11.761c6.4 1.557 13.020 2.453 19.681 2.652zM94.746 366.909l-9.989 7.588c-4.71-5.612-8.802-11.714-12.139-18.135l11.459-5.391c2.934 5.652 6.523 11.013 10.67 15.938zM77.266 333.271l-12.4 2.898c-1.813-6.942-2.821-14.111-3.011-21.31l12.759-0.307c0.184 6.318 1.085 12.615 2.652 18.718zM125.43 390.564l-5.73 10.855c-6.748-3.231-13.127-7.147-19.011-11.663l8.059-9.442c5.161 3.978 10.757 7.424 16.681 10.25zM207.498 404.26c-6.948 2.77-14.249 4.844-21.668 6.119l-2.309-11.93c6.528-1.122 12.928-2.944 19.042-5.386l4.935 11.197zM244.26 379.653c-5.11 5.279-10.819 10.066-16.978 14.188l-7.352-9.923c5.412-3.63 10.429-7.813 14.919-12.472l9.411 8.207zM265.482 342.277l10.762-3.292c2.022 6 4.741 11.812 8.079 17.255l-11.029 6.118c-3.098-5.079-5.709-10.409-7.808-15.892-2.11 5.478-4.721 10.808-7.803 15.892l-11.049-6.118c3.338-5.442 6.062-11.254 8.069-17.255l10.777 3.292zM259.077 244.772h12.784v-20.224h-12.784v20.224zM259.077 163.856h12.784v-20.234h-12.784v20.234zM259.077 204.318h12.784v-20.25h-12.784v20.25zM480.65 268.754c-64.64 26.757-135.030 42.347-208.743 44.303 0.021 2.488 0.118 4.987 0.368 7.45l-0.42 0.026v5.161h-12.784v-5.161l-0.399-0.026c0.231-2.416 0.327-4.844 0.348-7.26-1.003 0.010-2.012 0.046-3.021 0.046-79.508 0-155.392-15.862-224.661-44.539-10.604-4.382-21.064-9.052-31.34-14.034l14.018-31.385 78.039-174.597c10.168 5.166 20.629 9.866 31.329 14.075 26.701 10.466 54.937 17.843 84.249 21.755 34.13-32.988 64.041-55.664 73.124-46.469 6.902 7.010-4.628 26.046-25.124 49.726 0.107 0 0.24 0.010 0.358 0.010 46.782 0 91.494-8.873 132.603-25.022 10.721-4.209 21.151-8.909 31.339-14.075l14.039 31.39 78.024 174.592c-10.281 4.982-20.752 9.651-31.35 14.034zM402.632 94.198c-45.409 18.048-94.873 27.981-146.632 27.981-10.639 0-21.171-0.445-31.601-1.27-58.153 57.682-139.653 122.163-145.633 116.096-3.63-3.676 47.329-67.687 99.308-122.481-23.731-4.741-46.7-11.577-68.721-20.322l-63.974 143.191c64.968 26.752 136.1 41.544 210.621 41.544 1.029 0 2.058-0.026 3.082-0.036v-13.906h12.784v13.716c68.751-1.956 134.4-16.476 194.77-41.319l-64.005-143.196z" />
<glyph unicode="&#xe604;" d="M390.241 280.32c0 37.433-0.010 67.451-0.010 67.769-1.239 72.75-61.45 131.911-134.231 131.911-73.262 0-132.198-57.313-134.18-130.544-0.010-0.502-0.020-31.212-0.031-69.141-34.242-3.492-60.928-32.399-60.928-67.527v-176.891c0-37.519 30.403-67.901 67.901-67.901h254.489c37.499 0 67.891 30.382 67.891 67.901v176.896c-0.005 35.123-26.695 64.025-60.902 67.528zM256 427.248c43.981 0 79.739-34.442 81.398-78.151 0.021-1.362 0.031-31.35 0.051-68.418h-162.867c0 37.002 0.020 66.929 0.030 68.25 1.679 43.879 37.438 78.32 81.387 78.32zM234.358 69.591v35.799c-16.86 8.069-28.508 25.241-28.508 45.179 0 27.709 22.451 50.171 50.15 50.171 27.709 0 50.171-22.462 50.171-50.171 0-19.942-11.668-37.11-28.539-45.179 0-14.572 0-35.702 0-35.799 0-4.91-1.669-9.37-4.418-13-5.55-1.188-11.289-1.869-17.209-1.869-5.909 0-11.648 0.681-17.219 1.869-2.744 3.63-4.429 8.089-4.429 13z" />
<glyph unicode="&#xe605;" d="M270.392 80.702l-44.56 97.326-95.411-24.51 181.176 177.382zM256.021-32c-141.179 0-256.021 114.852-256.021 256 0 141.168 114.841 256 256.021 256 141.133 0 255.979-114.832 255.979-256 0-141.148-114.846-256-255.98-256zM256.021 451.661c-125.543 0-227.681-102.128-227.681-227.661s102.139-227.661 227.681-227.661c125.522 0 227.646 102.128 227.646 227.661s-102.124 227.661-227.645 227.661z" />
<glyph unicode="&#xe606;" d="M462.649 206.060c-38.948 42.082-26.491 71.859-24.392 83.118-19.942 5.002-38.43 9.728-38.43 9.728l-0.65-2.632-54.288-218.087c0 0-7.875 12.452-35.81 20.060-0.389 0.149-0.773 0.149-1.173 0.261-28.457 7.101-85.893-1.7-97.828-49.418-12.068-48.533 41.703-72.658 66.489-78.162 13.762-3.41 79.202-12.871 92.18 39.070 1.178 4.982 2.498 10.102 3.682 15.212 12.319 49.178 26.219 105.298 26.219 105.298s6.159 1.592 14.029-0.399c8.53-2.079 19.010-8.382 26.24-25.431 13.63-32.788-16.798-67.399-16.798-67.399l9.329-18.37c0 0 63.462 21.248 74.087 63.728 10.624 42.644-3.804 81.321-42.885 123.423zM235.781 275.947c10.89-1.049 25.047-6.82 36.976-26.24 22.948-37.499-7.865-85.75-7.865-85.75l14.817-20.587c0 0 73.83 37.888 78.684 92.058 4.976 54.021-19.938 98.611-75.668 142.679-55.593 44.181-46.024 82.883-45.501 97.162-25.319 2.37-48.784 4.731-48.784 4.731l-0.389-3.41-25.308-277.089c0 0-11.934 13.767-47.6 17.838-0.532 0.108-1.055 0.108-1.582 0.108-36.060 3.292-104.642-18.222-110.162-78.94-5.632-61.619 64.656-80.901 96.118-83.139 17.316-1.572 99.149-0.661 105.18 65.321 0.65 6.282 1.178 12.708 1.838 19.262 5.627 62.418 12.201 133.77 12.201 133.77s7.081 3.010 17.044 2.227z" />
<glyph unicode="&#xe607;" d="M476.078 418.846h-440.156c-19.82 0-35.922-16.082-35.922-35.901v-263.531c0-19.81 16.102-35.922 35.922-35.922h109.88c6.41-13.399 4.188-20.152-6.718-35.282l-13.752-19.062h30.561l13.762 19.062c0 0 9.39 18.161 3.901 35.282h74.649c6.41-13.399 4.198-20.152-6.718-35.282l-13.768-19.062h30.582l13.767 19.062c0 0 9.37 18.161 3.891 35.282h74.66c6.421-13.399 4.199-20.152-6.717-35.282l-13.762-19.062h30.562l13.762 19.062c0 0 9.38 18.161 3.901 35.282h97.731c19.82 0 35.922 16.108 35.922 35.922v263.531c-0.020 19.82-16.123 35.901-35.942 35.901zM476.851 119.414c0-0.399-0.348-0.778-0.768-0.778h-115.231c-1.469 17.639 9.789 33.69 15.13 39.962 7.639 8.97 10.649 29.061-7.649 59.55-14.397 24.048-2.488 23.45 5.458 53.248h22.548l-37.929 69.668-37.97-69.668h24.812c-5.658-8.95-22.748-39.931-5.95-64.471 13.44-19.661 18.35-25.779 4.587-48.327-8.781-14.392-11.899-26.921-9.482-39.962h-75.945c-1.469 17.639 9.789 33.69 15.12 39.962 7.639 8.97 10.649 29.061-7.639 59.55-14.407 24.048-2.488 23.45 5.433 53.248h22.558l-37.939 69.668-37.934-69.668h24.791c-5.678-8.95-22.748-39.931-5.939-64.471 13.44-19.661 18.32-25.779 4.572-48.327-8.781-14.392-11.899-26.921-9.482-39.962h-75.94c-1.459 17.639 9.779 33.69 15.119 39.962 7.639 8.97 10.639 29.061-7.649 59.55-14.398 24.048-2.488 23.45 5.447 53.248h22.569l-37.959 69.668-37.929-69.668h24.781c-5.668-8.95-22.758-39.931-5.939-64.471 13.44-19.661 18.329-25.779 4.583-48.327-8.781-14.392-11.888-26.921-9.472-39.962h-93.691c-0.441 0-0.758 0.379-0.758 0.778v263.531c0 0.42 0.318 0.768 0.758 0.768h440.156c0.42 0 0.768-0.348 0.768-0.768v-263.531z" />
<glyph unicode="&#xe608;" d="M270.587 446.971c-132.040 0-239.478-107.428-239.478-239.488-0.005-132.055 107.438-239.483 239.478-239.483 132.071 0 239.498 107.428 239.498 239.478 0 132.060-107.428 239.493-239.498 239.493zM436.716 52.373l-33.321 33.31c-2.709-2.98-5.54-5.863-8.469-8.647l33.3-33.26c-39.429-37.959-92.421-61.87-150.933-63.58-2.243-0.031-4.459-0.103-6.712-0.103-1.792 0-3.589 0.031-5.412 0.072-58.809 1.387-112.179 25.221-151.828 63.252l33.27 33.27c-2.929 2.791-5.739 5.668-8.489 8.642l-33.29-33.31c-37.007 39.399-60.13 92.001-61.538 149.863h-6.779v12.109h0.179v-12.058h6.748c0-0.010 0-0.010 0-0.010h34.842c0-0.010 0-0.031 0-0.041h12.119c-0.061 1.858-0.103 3.733-0.103 5.601 0 2.181 0.041 4.373 0.128 6.507h-11.971c0 0.010 0 0.031 0 0.051h-34.985c0-0.010 0-0.010 0-0.021h-0.148c1.618 57.493 24.74 109.68 61.543 148.889l128.43-128.451c-5.509-7.598-8.802-16.912-8.802-26.982 0-25.401 20.679-46.101 46.111-46.101 25.401 0 46.090 20.7 46.090 46.101 0 25.411-20.69 46.090-46.090 46.090-8.141 0-15.79-2.14-22.441-5.863l-129.081 129.085c38.84 34.811 89.651 56.499 145.449 57.979v-47.109c2.027 0.062 4.029 0.108 6.052 0.108 2.038 0 4.060-0.051 6.062-0.108v47.109c57.636-1.52 109.988-24.581 149.284-61.399l-33.3-33.29c2.969-2.76 5.852-5.581 8.647-8.489l33.28 33.27c37.842-39.44 61.66-92.421 63.309-150.871h-47.104c0.082-2.161 0.128-4.332 0.128-6.507 0-1.869-0.051-3.733-0.103-5.601h47.12c-1.392-57.692-24.407-110.121-61.194-149.509zM270.608 237.68c16.63 0 30.183-13.548 30.183-30.198 0-16.661-13.548-30.188-30.183-30.188-16.661 0-30.198 13.532-30.198 30.188-0.005 16.645 13.537 30.198 30.198 30.198zM35.486 382.269l61.538 2.601 2.621 61.558-15.37-15.37-48.932 48.942-33.428-33.398 48.953-48.942z" />
<glyph unicode="&#xe609;" d="M378.942 133.223c-6.579 21.842-18.832 41.277-35.051 56.54v202.358c0 48.461-39.429 87.88-87.885 87.88-48.471 0-87.87-39.419-87.87-87.88v-202.358c-24.899-23.419-40.478-56.637-40.478-93.43 0-3.108 0.128-6.2 0.338-9.262 2.488-34.509 18.667-65.31 43.161-86.922 5.622-4.971 11.658-9.462 18.099-13.389 19.471-11.899 42.311-18.76 66.749-18.76 70.764 0 128.333 57.559 128.333 128.327 0 12.82-1.91 25.2-5.397 36.894zM319.288 385.408h-72.853v-24.601h43.991v-21.863h-43.991v-24.581h43.991v-21.852h-43.991v-24.581h43.991v-21.863h-43.991v-24.622h43.991v-21.842h-43.991v-24.571h43.991v-21.258c-41.083-5.75-75.843-31.298-94.244-66.719h-43.505c-0.281 3.062-0.42 6.139-0.42 9.262 0 22.087 6.938 42.578 18.76 59.418 6.052 8.632 13.369 16.292 21.689 22.723v213.662c0 34.888 28.4 63.299 63.299 63.299 34.913 0 63.283-28.411 63.283-63.299v-6.712z" />
<glyph unicode="&#xe60a;" d="M256 480c-76.57 0-138.624-62.029-138.624-138.599 0-1.321 0.072-2.601 0.103-3.891-4.004-145.28 138.066-369.51 138.066-369.51s133.959 211.451 138.025 356.705c0.671 5.488 1.050 11.018 1.050 16.691 0 76.57-62.060 138.604-138.619 138.604zM256 247.25c-51.983 0-94.151 42.148-94.151 94.151 0 51.978 42.163 94.131 94.151 94.131 52.009 0 94.147-42.148 94.147-94.131 0.005-52.004-42.137-94.151-94.147-94.151z" />
<glyph unicode="&#xe60b;" d="M306.658-25.113c36.153-17.070 79.452-1.296 96.589 35.159 17.188 36.475 1.756 79.846-34.406 96.891-1.214 0.579-2.473 1.034-3.712 1.526l-65.034 183.158c-4.551 12.816-16.051 21.11-28.738 22.498l46.259 48.030c7.572 7.895 10.901 23.245 7.24 33.536l-21.248 59.925c-3.625 10.276-15.882 19.998-26.747 21.212l-28.206 3.072c-4.603 0.491-8.218-0.584-10.204-3.072-1.982-2.488-2.207-6.272-0.635-10.665l13.639-38.4c2.334-6.63 1.961-13.783-1.060-20.219-2.98-6.344-8.233-11.172-14.797-13.573l-41.201-14.992c-13.573-4.921-28.59 2.125-33.465 15.734l-13.609 38.528c-1.556 4.388-4.126 7.142-7.214 7.782-3.113 0.65-6.579-0.809-9.815-4.147l-19.814-20.592c-7.598-7.88-10.931-23.266-7.245-33.577l21.264-59.899c3.655-10.297 15.903-20.034 26.747-21.207l65.802-7.225c-8.904-9.226-12.508-23.040-7.972-35.861l65.049-183.147c-0.625-1.168-1.316-2.304-1.925-3.568l-0.010-0.010c-17.162-36.444-1.751-79.826 34.468-96.896zM321.454 6.298c-18.923 8.955-27.029 31.728-18.084 50.775 4.388 9.252 12.048 16.266 21.627 19.712 9.554 3.527 19.861 3.051 29.020-1.29 18.959-8.914 27.065-31.673 18.053-50.816-8.97-19.026-31.703-27.3-50.617-18.381z" />
<glyph unicode="&#xe60c;" d="M195.779 396.483c-11.448 0-20.726 9.277-20.726 20.726 0 11.443 9.278 20.726 20.726 20.726 11.443 0 20.726-9.278 20.726-20.726 0-11.454-9.282-20.726-20.726-20.726zM349.548 480h-187.095c-28.278 0-37.862-94.167-37.862-241.029 0-146.841 18.704-221.865 18.704-221.865 0-10.578 8.566-19.154 19.154-19.154h40.228v-6.579c0-12.892 7.332-23.368 16.348-23.368h73.928c9.022 0 16.358 10.481 16.358 23.368v6.579h40.228c10.578 0 19.159 8.576 19.159 19.154 0 0 18.698 75.024 18.698 221.865 0.015 146.862 0.015 241.029-37.847 241.029zM302.822 139.914c0-9.529-8.581-17.26-19.149-17.26h-55.342c-10.578 0-19.159 7.731-19.159 17.26v49.869c0 9.538 8.581 17.27 19.159 17.27h55.337c10.567 0 19.149-7.731 19.149-17.27v-49.869zM228.332 105.221h55.337c10.567 0 19.149-7.731 19.149-17.26v-49.869c0-9.538-8.581-17.264-19.149-17.264h-55.337c-10.578 0-19.159 7.726-19.159 17.264v49.869c0 9.529 8.581 17.26 19.159 17.26zM298.829-8.632c0-4.623-2.632-8.387-5.868-8.387h-73.928c-3.231 0-5.868 3.758-5.868 8.387l7.071 6.579h71.516l7.076-6.579zM284.82 229.924h-72.023c-46.147 0-54.277 196.331-54.277 196.331 0 44.698 184.827 47.888 184.827 0 0.005 0-1.598-194.744-58.526-196.331zM249.815 67.911h19.517c2.898-0.62 5.079-3.18 5.079-6.272v-16.681c0-3.533-2.873-6.41-6.41-6.41h-23.998c-3.528 0-6.405 2.877-6.405 6.41v16.681c0 3.051 2.125 5.581 4.962 6.241-0.65 0.661-1.054 1.065-1.065 1.075-4.762 5.012-4.649 12.774 0.231 17.654 4.849 4.849 12.821 4.93 17.756 0.159 0.015-0.036 2.033-2.027 4.521-4.526 0.021 0.026 0.041 0.036 0.062 0.057 0.021-0.031 0.041-0.057 0.072-0.087l-3.64-3.64c-0.046 0.031-0.087 0.057-0.133 0.087l0.103 0.087c-2.462 2.468-4.47 4.459-4.567 4.572-3.036 2.796-7.706 2.709-10.634-0.231-2.929-2.923-3.026-7.608-0.21-10.649 0.092-0.092 2.069-2.063 4.526-4.526h0.046l0.138 0.128c0.051-0.021 0.102-0.021 0.169-0.036l-0.118-0.092zM251.274 55.783c0-1.884 1.095-3.502 2.688-4.265v-3.374c0-0.461 0.159-0.886 0.41-1.224 0.532-0.113 1.070-0.179 1.633-0.179 0.553 0 1.096 0.067 1.613 0.179 0.261 0.338 0.42 0.763 0.42 1.224v3.374c1.598 0.763 2.678 2.381 2.678 4.265 0 2.611-2.12 4.726-4.716 4.726-2.611-0.005-4.726-2.12-4.726-4.726zM256.005 149.622c0.553 0 1.096 0.067 1.613 0.179 0.261 0.338 0.42 0.768 0.42 1.224v3.369c1.598 0.768 2.678 2.386 2.678 4.27 0 2.606-2.12 4.726-4.716 4.726-2.621 0-4.736-2.12-4.736-4.726 0-1.884 1.095-3.502 2.688-4.27v-3.369c0-0.455 0.159-0.886 0.415-1.224 0.537-0.118 1.075-0.179 1.638-0.179zM274.411 164.531v-16.691c0-3.527-2.873-6.395-6.41-6.395h-23.998c-3.528 0-6.405 2.867-6.405 6.395v16.691c0 3.313 2.519 6.046 5.744 6.375v6.507c0.19 6.897 5.75 12.308 12.667 12.308 6.861 0 12.534-5.575 12.651-12.442v-6.38c3.221-0.327 5.75-3.067 5.75-6.37zM263.68 170.931v6.457c-0.159 4.116-3.538 7.368-7.675 7.368-4.157 0-7.526-3.257-7.685-7.383v-6.441h15.36z" />
<glyph unicode="&#xe60d;" d="M418.099 285.573c16.358 89.529-42.967 175.36-132.49 191.714-89.529 16.348-175.36-42.967-191.714-132.49-14.352-78.572 29.588-154.286 101.069-182.707l-28.447-155.709c-3.231-17.68 8.489-34.622 26.153-37.852 17.679-3.225 34.626 8.478 37.857 26.158l28.442 155.714c76.923 1.321 144.778 56.612 159.13 135.173zM243.702 203.873c-2.381 1.080-4.9 1.925-7.593 2.416-2.683 0.486-5.356 0.589-7.962 0.425-56.494 14.444-92.984 70.354-82.345 128.599 11.115 60.856 69.468 101.182 130.325 90.071 60.851-11.115 101.181-69.463 90.071-130.335-10.644-58.23-64.538-97.633-122.496-91.177z" />
<glyph unicode="&#xe60e;" d="M295.147 445.348h-78.868c-1.643 46.602 80.297 45.803 78.868 0zM154.599 453.433c-40.525-43.065-82.325-84.854-125.383-125.384-54.021 53.223 0.026 144.051 67.748 147.63 24.668 1.301 42.859-9.62 57.636-22.246zM482.222 328.048c-43.059 40.53-84.854 82.32-125.389 125.389 70 72.601 200.556-50.719 125.389-125.389zM383.12 31.78c1.762-13.962 32.819-64.22 1.019-63.708-18.468 0.302-21.709 34.498-32.358 44.498-48.63-27.899-142.74-28.79-191.119 0-11.786-7.481-13.931-43.207-32.358-44.498-32.348-2.247-3.195 48.661 0 62.7-58.706 44.749-110.71 135.301-77.85 238.628 25.252 79.39 90.639 144.512 188.068 151.68 114.698 8.433 196.27-65.367 222.469-148.649 32.589-103.588-16.891-196.229-77.87-240.65zM93.936 227.942c45.261 11.371 44.022-55.46 0-44.488 14.034-78.986 60.907-125.133 139.536-139.546-10.762 45.348 55.153 45.389 44.493 0 78.613 14.408 125.507 60.56 139.536 139.541-44.078-11.049-45.291 55.962 0 44.488-13.721 80.322-61.712 126.361-141.558 140.56 1.762-15.252-2.811-24.161-9.098-31.36 4.921-31.8 3.81-69.657 6.072-104.151 7.286-7.198 14.659-14.32 14.162-29.322 14.812-16.42 29.86-32.988 45.497-50.55 8.924-10.041 19.922-33.608-3.036-34.381-9.067-0.317-12.779 6.293-19.21 12.13-16.988 15.432-37.596 30.582-50.56 44.488-23.828-0.952-38.195 14.009-35.389 35.389 1.219 9.272 10.363 13.977 13.143 22.242 4.485 13.338 2.191 35.528 3.036 52.588 0.968 19.512 0.159 37.433 4.040 52.582-2.873 3.82-6.369 6.098-8.089 12.13-1.695 6.021 1.772 14.869-4.040 18.212-77.148-15.882-125.338-60.733-138.532-140.549z" />
<glyph unicode="&#xe60f;" d="M256.005 480c-141.389 0-256.005-114.616-256.005-255.995 0-141.389 114.617-256.005 256.005-256.005 141.379 0 255.995 114.616 255.995 256.005 0 141.379-114.616 255.995-255.995 255.995zM198.052 77.102v293.801l179.63-146.898-179.63-146.903z" />
<glyph unicode="&#xe610;" d="M34.483 480c0 0 197.601-216.074 234.148-256.010-36.547-39.966-234.158-255.99-234.158-255.99h208.906l234.143 255.99-234.143 256.010h-208.896z" />
<glyph unicode="&#xe611;" d="M477.517 480c0 0-197.601-216.074-234.148-256.010 36.547-39.966 234.158-255.99 234.158-255.99h-208.906l-234.148 255.99 234.148 256.010h208.896z" />
<glyph unicode="&#xe612;" d="M0 445.517c0 0 216.074-197.601 256.010-234.148 39.966 36.547 255.99 234.158 255.99 234.158v-208.906l-255.99-234.148-256.010 234.148v208.896z" />
<glyph unicode="&#xe613;" d="M0 2.483c0 0 216.074 197.601 256.010 234.148 39.966-36.547 255.99-234.158 255.99-234.158v208.906l-255.99 234.148-256.010-234.148v-208.896z" />
<glyph unicode="&#xe614;" d="M359.414 273.546c-16.921 20.583-54.087 46.188-134.298 46.188-98.519 0-135.68-32.793-146.99-50.928l-46.474-6.882c-8.658-2.903-13.476-6.983-16.522-16.517l-15.13-64.482c0-9.129 7.388-16.522 16.517-16.522h32.456c0 31.36 25.416 56.781 56.786 56.781 31.365 0 56.786-25.421 56.786-56.781h208.302c0 31.36 25.431 56.781 56.796 56.781s56.776-25.421 56.776-56.781h1.813c16.435 10.772 25.774 23.070 25.774 36.142-0.005 34.284-64.185 63.293-152.591 73.001zM141.886 164.403c0-19.952-16.174-36.142-36.126-36.142-19.958 0-36.142 16.185-36.142 36.142s16.184 36.142 36.142 36.142c19.953 0 36.126-16.185 36.126-36.142zM463.769 164.403c0-19.952-16.169-36.142-36.132-36.142s-36.142 16.185-36.142 36.142 16.179 36.142 36.142 36.142 36.132-16.185 36.132-36.142z" />
<glyph unicode="&#xe615;" d="M152.586 273.546c16.922 20.583 54.088 46.188 134.298 46.188 98.514 0 135.675-32.793 146.99-50.928l46.474-6.882c8.658-2.903 13.476-6.983 16.522-16.517l15.13-64.482c0-9.129-7.388-16.522-16.517-16.522h-32.455c0 31.36-25.416 56.781-56.786 56.781s-56.786-25.421-56.786-56.781h-208.302c0 31.36-25.431 56.781-56.796 56.781s-56.77-25.421-56.77-56.781h-1.813c-16.435 10.772-25.774 23.070-25.774 36.142 0 34.284 64.179 63.293 152.586 73.001zM370.115 164.403c0-19.952 16.174-36.142 36.132-36.142s36.142 16.185 36.142 36.142-16.185 36.142-36.142 36.142-36.132-16.185-36.132-36.142zM48.23 164.403c0-19.952 16.169-36.142 36.132-36.142s36.142 16.185 36.142 36.142-16.179 36.142-36.142 36.142-36.132-16.185-36.132-36.142z" />
<glyph unicode="&#xe616;" d="M512 134.334c-0.031 5.555-0.149 10.558-0.317 14.955-3.405-2.294-3.769-2.647 0.185 2.964-0.988 17.086-3.123 26.158-4.168 29.757 0.123 2.468 0.281 7.291 0.067 13.363 0.2 0.128 0.327 0.22 0.327 0.22s-0.133-0.082-0.327-0.185c-0.62 16.778-4.101 43.126-19.056 56.361-9.283 0.030-13.937 5.653-13.937 5.653s-6.236 15.094-12.779 29.455c18.786 4.234 37.909-1.961 39.363 14.546 0.046 0.333 0.082 0.671 0.118 1.029 0.036 0.159 0.077 0.327 0.108 0.517-0.021-0.031-0.062-0.056-0.087-0.082 0.22 3.379-0.548 7.234-4.382 10.542-0.568 0.441-1.219 0.83-1.915 1.188-3.589 2.171-8.812 2.96-16.118 2.796-4.551 0.015-8.837-0.348-11.627-0.712 0.174-0.021 0.338-0.041 0.512-0.051-1.567-0.169-3.19-0.343-4.894-0.542-8.878-1.050-13.481-5.146-14.024-4.541-6.451 1.024-32.226 47.59-44.892 59.54-21.791 19.205-89.795 19.702-148.152 19.907-58.347-0.205-126.382-0.702-148.178-19.902-12.662-11.95-38.416-58.516-44.861-59.54-0.538-0.604-5.151 3.492-14.029 4.541-1.69 0.2-3.323 0.374-4.895 0.542 0.174 0.010 0.333 0.031 0.507 0.051-2.795 0.358-7.076 0.727-11.627 0.717-7.291 0.159-12.508-0.63-16.102-2.791-0.701-0.368-1.367-0.748-1.935-1.198-3.85-3.308-4.608-7.158-4.383-10.542-0.041 0.026-0.066 0.046-0.092 0.082 0.041-0.185 0.082-0.353 0.113-0.517 0.036-0.379 0.087-0.738 0.128-1.086 1.495-16.42 20.598-10.26 39.347-14.489-6.518-14.362-12.764-29.455-12.764-29.455s-4.639-5.622-13.931-5.653c-14.966-13.235-18.453-39.582-19.062-56.361-0.205 0.108-0.322 0.185-0.322 0.185s0.107-0.092 0.322-0.231c-0.22-6.062-0.061-10.865 0.066-13.337-1.054-3.589-3.19-12.667-4.183-29.773 3.947-5.611 3.584-5.258 0.195-2.964-0.169-4.403-0.286-9.406-0.313-14.961 2.396-4.639 3.773-6.318 0.226-3.226 0.025-4.505 0.092-9.426 0.231-14.725 1.341-3.098 6.282-6.651 0.102-3.682 0.158-5.258 0.748-12.442 1.515-19.763 0.148-1.444 5.827-10.26 0.236-4.803 1.454-12.892 3.579-24.688 4.665-26.599 0.404-3.308 55.373-6.528 66.304-3.041 0.297-0.036 0.594-0.072 0.916-0.072 2.401-0.051 3.656 7.834 4.326 16.538l67.666-7.454 2.422 13.235 105.395-2.873v-0.118l1.982 0.057 2.018-0.057v0.123l105.395 2.873 2.422-13.235 67.676 7.465c0.676-8.714 1.935-16.599 4.327-16.548 0.313 0 0.62 0.036 0.932 0.072 10.921-3.492 65.894-0.272 66.294 3.041 1.075 1.91 3.205 13.712 4.664 26.599-5.591-5.453 0.092 3.358 0.24 4.803 0.758 7.327 1.341 14.505 1.505 19.763-6.185-2.969-1.244 0.579 0.108 3.682 0.138 5.299 0.205 10.219 0.22 14.725-3.558-3.098-2.197-1.418 0.215 3.221z" />
<glyph unicode="&#xe617;" d="M141.891 164.409c0-19.958-16.179-36.137-36.137-36.137s-36.137 16.179-36.137 36.137c0 19.958 16.179 36.137 36.137 36.137 19.958 0 36.137-16.179 36.137-36.137zM463.78 164.409c0-19.958-16.179-36.137-36.137-36.137s-36.137 16.179-36.137 36.137c0 19.958 16.179 36.137 36.137 36.137 19.958 0 36.137-16.179 36.137-36.137zM359.419 273.552c-16.916 20.577-54.087 46.178-134.303 46.178-98.519 0-135.67-32.778-146.99-50.918l-46.469-6.882c-8.658-2.903-13.476-6.989-16.522-16.522l-15.134-64.486c0-9.113 7.399-16.512 16.517-16.512h32.456c0 31.36 25.421 56.786 56.781 56.786s56.791-25.426 56.791-56.786h208.317c0 31.36 25.426 56.786 56.786 56.786 31.355 0 56.786-25.426 56.786-56.786h1.787c16.45 10.762 25.785 23.065 25.785 36.137-0.005 34.284-64.169 63.298-152.586 73.006zM245.033 196.51v-14.101h-10.117v13.2c-4.869 0.379-9.098 1.797-12.81 3.594v16.010c5.509-3.205 9.088-4.997 13.834-4.997 5.002 0 8.586 2.949 8.586 8.842 0 2.944-0.896 7.040-8.586 15.37-11.024 12.042-15.119 18.325-15.119 28.702 0 11.018 5.514 18.959 14.095 21.904v10.25h10.117v-8.96c4.741-0.266 8.325-1.413 11.407-2.698v-16.016c-4.869 2.826-7.823 4.106-11.914 4.106-4.362 0-8.079-2.821-8.079-8.069 0-3.717 1.29-6.282 8.72-14.858 12.298-14.218 14.992-20.239 14.992-29.86 0-11.274-6.282-19.604-15.125-22.421z" />
<glyph unicode="&#xe618;" d="M141.895 164.409c0-19.961-16.181-36.142-36.142-36.142s-36.142 16.181-36.142 36.142c0 19.961 16.181 36.142 36.142 36.142 19.96 0 36.142-16.181 36.142-36.142zM463.785 164.409c0-19.961-16.181-36.142-36.142-36.142s-36.142 16.181-36.142 36.142c0 19.961 16.181 36.142 36.142 36.142 19.961 0 36.142-16.181 36.142-36.142zM359.419 273.546c-16.916 20.577-54.087 46.188-134.303 46.188-98.519 0-135.67-32.793-146.995-50.928l-46.464-6.882c-8.658-2.903-13.476-6.978-16.522-16.517l-15.134-64.487c0-9.113 7.399-16.517 16.517-16.517h32.461c0 31.365 25.421 56.786 56.781 56.786s56.786-25.421 56.786-56.786h208.322c0 31.365 25.426 56.786 56.786 56.786 31.355 0 56.786-25.421 56.786-56.786h1.787c16.45 10.762 25.785 23.070 25.785 36.147-0.010 34.279-64.174 63.283-152.591 72.996zM219.12 195.85v-14.101h-10.122v13.2c-4.874 0.384-9.098 1.802-12.815 3.589v16.010c5.514-3.2 9.093-4.992 13.839-4.992 4.997 0 8.586 2.939 8.586 8.837 0 2.949-0.896 7.045-8.586 15.381-11.024 12.037-15.119 18.314-15.119 28.693 0 11.013 5.509 18.954 14.095 21.904v10.25h10.122v-8.97c4.741-0.256 8.325-1.408 11.402-2.683v-16.015c-4.864 2.816-7.813 4.096-11.909 4.096-4.362 0-8.079-2.816-8.079-8.064 0-3.728 1.29-6.282 8.72-14.869 12.293-14.213 14.992-20.244 14.992-29.85-0.005-11.269-6.287-19.61-15.125-22.416zM272.231 195.85v-14.101h-10.127v13.2c-4.869 0.384-9.093 1.802-12.805 3.589v16.010c5.504-3.2 9.093-4.992 13.834-4.992 4.997 0 8.581 2.939 8.581 8.837 0 2.949-0.896 7.045-8.581 15.381-11.018 12.037-15.119 18.314-15.119 28.693 0 11.013 5.504 18.954 14.090 21.904v10.25h10.127v-8.97c4.741-0.256 8.33-1.408 11.397-2.683v-16.015c-4.854 2.816-7.808 4.096-11.909 4.096-4.352 0-8.069-2.816-8.069-8.064 0-3.728 1.285-6.282 8.709-14.869 12.303-14.213 14.991-20.244 14.991-29.85-0.005-11.269-6.277-19.61-15.12-22.416z" />
<glyph unicode="&#xe619;" d="M141.886 164.409c0-19.955-16.177-36.132-36.132-36.132s-36.132 16.177-36.132 36.132c0 19.955 16.177 36.132 36.132 36.132 19.955 0 36.132-16.177 36.132-36.132zM463.774 164.409c0-19.955-16.177-36.132-36.132-36.132s-36.132 16.177-36.132 36.132c0 19.955 16.177 36.132 36.132 36.132 19.955 0 36.132-16.177 36.132-36.132zM359.419 273.536c-16.916 20.583-54.087 46.188-134.303 46.188-98.519 0-135.67-32.788-146.995-50.923l-46.464-6.876c-8.658-2.908-13.476-6.989-16.522-16.527l-15.134-64.481c0-9.113 7.399-16.507 16.517-16.507h32.461c0 31.355 25.421 56.776 56.781 56.776s56.786-25.421 56.786-56.776h208.322c0 31.355 25.426 56.776 56.786 56.776 31.355 0 56.786-25.421 56.786-56.776h1.787c16.45 10.752 25.785 23.055 25.785 36.132-0.010 34.284-64.174 63.293-152.591 72.996zM194.75 193.173v-14.096h-10.117v13.2c-4.874 0.384-9.103 1.787-12.816 3.584v16.015c5.509-3.21 9.093-4.992 13.834-4.992 4.997 0 8.581 2.939 8.581 8.837 0 2.944-0.891 7.040-8.581 15.37-11.018 12.042-15.119 18.32-15.119 28.692 0 11.024 5.509 18.964 14.101 21.913v10.25h10.117v-8.965c4.746-0.266 8.33-1.413 11.407-2.693v-16.026c-4.869 2.832-7.818 4.112-11.919 4.112-4.357 0-8.064-2.816-8.064-8.079 0-3.712 1.28-6.277 8.709-14.853 12.293-14.224 14.996-20.244 14.996-29.86-0.005-11.264-6.282-19.594-15.13-22.41zM249.323 193.173v-14.096h-10.117v13.2c-4.869 0.384-9.098 1.787-12.815 3.584v16.015c5.509-3.21 9.093-4.992 13.839-4.992 4.997 0 8.586 2.939 8.586 8.837 0 2.944-0.896 7.040-8.586 15.37-11.013 12.042-15.114 18.32-15.114 28.692 0 11.024 5.504 18.964 14.090 21.913v10.25h10.122v-8.965c4.741-0.266 8.33-1.413 11.408-2.693v-16.026c-4.864 2.832-7.818 4.112-11.914 4.112-4.362 0-8.069-2.816-8.069-8.079 0-3.712 1.275-6.277 8.704-14.853 12.304-14.224 14.996-20.244 14.996-29.86-0.010-11.264-6.282-19.594-15.13-22.41zM303.902 193.173v-14.096h-10.132v13.2c-4.864 0.384-9.093 1.787-12.805 3.584v16.015c5.504-3.21 9.093-4.992 13.829-4.992 5.007 0 8.586 2.939 8.586 8.837 0 2.944-0.896 7.040-8.586 15.37-11.013 12.042-15.12 18.32-15.12 28.692 0 11.024 5.514 18.964 14.096 21.913v10.25h10.132v-8.965c4.731-0.266 8.325-1.413 11.397-2.693v-16.026c-4.864 2.832-7.813 4.112-11.914 4.112-4.362 0-8.069-2.816-8.069-8.079 0-3.712 1.28-6.277 8.709-14.853 12.303-14.224 14.991-20.244 14.991-29.86 0-11.264-6.272-19.594-15.114-22.41z" />
<glyph unicode="&#xe61a;" d="M373.591 197.913c-5.606 0.574-10.808-4.183-15.027-1.879-3.738 82.841 14.551 164.301-3.753 237.589-2.882 11.566-7.060 29.097-11.269 32.865-4.229 3.789-18.908 7.736-29.113 9.395-38.784 6.313-89.682 5.11-123.95-1.879-24.197-4.936-25.641-11.044-30.996-32.865-2.012-8.197-4.157-16.917-5.632-24.418-13.625-69.366 5.089-152.889-1.879-222.562-3.886 1.746-8.673 2.601-13.148 3.753-2.642-5.494-5.959-10.312-4.685-19.722 3.164-8.089 13.051-9.477 18.78-15.022 0.548-16.625-2.76-34.028 0-49.776-20.040-79.079 16.19-138.547 86.39-144.614 88.3-7.624 131.021 40.642 124.892 124.908-0.615 8.428-4.47 15.815-5.637 23.47-2.37 15.58 1.772 29.716 0 46.956 15.575 1.362 26.014 19.738 15.027 33.802z" />
<glyph unicode="&#xe61b;" d="M512 301.358h-178.642v178.642h-154.732v-178.642h-178.626v-154.695h178.626v-178.663h154.732v178.663h178.642z" />
<glyph unicode="&#xe61c;" d="M387.938 480h-263.87c-31.944 0-57.917-26.486-57.917-59.059v-393.866c0-32.574 25.974-59.075 57.917-59.075h263.87c31.928 0 57.918 26.501 57.918 59.075v393.866c-0.005 32.574-25.989 59.059-57.918 59.059zM124.068 434.857h263.87c7.030 0 12.759-6.241 12.759-13.916v-54.723h-289.398v54.723c0 7.675 5.734 13.916 12.769 13.916zM387.938 13.154h-263.87c-7.035 0-12.764 6.252-12.764 13.921v293.986h289.392v-293.986c0-7.67-5.729-13.921-12.759-13.921zM256.998 287.903c-16.968 0-30.725-13.763-30.725-30.73 0-16.958 13.757-30.715 30.725-30.715s30.725 13.757 30.725 30.715c0 16.973-13.752 30.73-30.725 30.73zM344.141 287.903c-16.962 0-30.72-13.763-30.72-30.73 0-16.958 13.757-30.715 30.72-30.715s30.725 13.757 30.725 30.715c0 16.973-13.762 30.73-30.725 30.73zM169.861 287.903c-16.963 0-30.725-13.763-30.725-30.73 0-16.958 13.762-30.715 30.725-30.715 16.968 0 30.72 13.757 30.72 30.715 0 16.973-13.752 30.73-30.72 30.73zM256.998 195.83c-16.968 0-30.725-13.752-30.725-30.715 0-16.967 13.757-30.73 30.725-30.73s30.725 13.762 30.725 30.73c0 16.962-13.752 30.715-30.725 30.715zM344.141 195.83c-16.962 0-30.72-13.752-30.72-30.715 0-16.967 13.757-30.73 30.72-30.73s30.725 13.762 30.725 30.73c0 16.962-13.762 30.715-30.725 30.715zM169.861 195.83c-16.963 0-30.725-13.752-30.725-30.715 0-16.967 13.762-30.73 30.725-30.73 16.968 0 30.72 13.762 30.72 30.73 0 16.962-13.752 30.715-30.72 30.715zM256.998 103.767c-16.968 0-30.725-13.762-30.725-30.73 0-16.962 13.757-30.715 30.725-30.715s30.725 13.752 30.725 30.715c0 16.968-13.752 30.73-30.725 30.73zM344.141 103.767c-16.962 0-30.72-13.762-30.72-30.73 0-16.962 13.757-30.715 30.72-30.715s30.725 13.752 30.725 30.715c0 16.968-13.762 30.73-30.725 30.73zM169.861 103.767c-16.963 0-30.725-13.762-30.725-30.73 0-16.962 13.762-30.715 30.725-30.715 16.968 0 30.72 13.752 30.72 30.715 0 16.968-13.752 30.73-30.72 30.73z" />
<glyph unicode="&#xe61d;" d="M142.935 232.412c-10.112 0-18.304-10.133-18.304-22.641 0-12.503 8.197-22.646 18.304-22.646s18.299 10.137 18.299 22.646c0.005 12.508-8.187 22.641-18.299 22.641zM348.979 319.821c-26.071 12.626-153.584 15.815-184.54 0-11.228-5.73-15.242-48.046-15.242-48.046h213.422c0 0-2.401 42.588-13.639 48.046zM321.7 214.303h-131.794c-2.688 0-4.869-2.704-4.869-6.046 0-3.333 2.181-6.041 4.869-6.041h131.794c2.688 0 4.869 2.704 4.869 6.041 0 3.344-2.181 6.046-4.869 6.046zM368.671 232.412c-10.112 0-18.299-10.133-18.299-22.641 0-12.503 8.192-22.646 18.299-22.646s18.299 10.137 18.299 22.646c0 12.508-8.192 22.641-18.299 22.641zM256 480c-141.383 0-256-114.616-256-256 0-141.389 114.617-256 256-256 141.384 0 256 114.611 256 256 0 141.384-114.621 256-256 256zM183.639 111.959c0-19.415-12.769-35.226-28.472-35.226h-22.375c-15.693 0-28.477 15.81-28.477 35.226v35.917h79.319v-35.917zM405.709 111.959c0-19.415-12.769-35.226-28.478-35.226h-22.359c-15.698 0-28.478 15.81-28.478 35.226v35.917h79.314v-35.917zM420.51 192.926c0-19.43-12.759-35.241-28.473-35.241h-274.053c-15.698 0-28.472 15.81-28.472 35.241v27.668c0 15.719 8.371 29.046 19.881 33.561 0 0 13.86 85.545 33.346 105.022 8.935 8.939 220.13 8.658 228.777 0 19.369-19.354 29.952-105.375 29.952-105.375 11.070-4.828 19.041-17.879 19.041-33.203v-27.673z" />
<glyph unicode="&#xe61e;" d="M452.716 325.105h-369.731v90.445c8.484 6.262 14.023 16.323 14.023 27.689 0 19.062-15.452 34.473-34.489 34.473s-34.462-15.411-34.462-34.473c0-11.361 5.499-21.427 13.993-27.689v-92.754c-24.33-6.599-42.050-26.819-42.050-50.652v-248.873c0-29.22 26.608-52.982 59.274-52.982h393.442c32.686 0 59.284 23.762 59.284 52.982v248.873c0 29.194-26.599 52.962-59.284 52.962zM471.050 23.271c0-5.694-7.536-12.017-18.334-12.017h-393.442c-10.803 0-18.304 6.318-18.304 12.017v160.246h430.080v-160.246zM471.050 224.446h-430.080v47.693c0 5.673 7.501 11.976 18.304 11.976h393.442c10.798 0 18.334-6.303 18.334-11.976v-47.693zM195.994 79.938h232.837c10.122 0 18.325 8.207 18.325 18.32 0 10.137-8.207 18.334-18.325 18.334h-232.837c-10.107 0-18.314-8.197-18.314-18.334 0-10.112 8.208-18.32 18.314-18.32zM227.804 129.255h169.211c10.122 0 18.34 8.192 18.34 18.299 0 10.137-8.217 18.334-18.34 18.334h-169.211c-10.127 0-18.314-8.197-18.314-18.334 0-10.107 8.187-18.299 18.314-18.299zM393.267 67.282h-161.715c-10.096 0-18.314-8.212-18.314-18.334 0-10.112 8.218-18.304 18.314-18.304h161.715c10.096 0 18.309 8.197 18.309 18.304 0 10.122-8.217 18.334-18.309 18.334zM82.355 82.432c10.972 0 19.891 8.919 19.891 19.881s-8.919 19.845-19.891 19.845c-10.947 0-19.84-8.883-19.84-19.845s8.894-19.881 19.84-19.881zM426.209 273.065c-10.947 0-19.835-8.904-19.835-19.85 0-10.962 8.889-19.865 19.835-19.865 10.988 0 19.865 8.904 19.865 19.865 0 10.946-8.878 19.85-19.865 19.85zM82.355 29.097c10.972 0 19.891 8.904 19.891 19.85 0 10.988-8.919 19.865-19.891 19.865-10.947 0-19.84-8.873-19.84-19.865 0-10.947 8.894-19.85 19.84-19.85z" />
</font>
</defs>
</svg>
