<?xml version="1.0" encoding="utf-8"?>
<!-- Generator: Adobe Illustrator 14.0.0, SVG Export Plug-In . SVG Version: 6.00 Build 43363)  -->
<!DOCTYPE svg PUBLIC "-//W3C//DTD SVG 1.1//EN" "http://www.w3.org/Graphics/SVG/1.1/DTD/svg11.dtd">
<svg version="1.1" id="Layer_1" xmlns="http://www.w3.org/2000/svg" xmlns:xlink="http://www.w3.org/1999/xlink" x="0px" y="0px"
	 width="216px" height="195px" viewBox="0 0 216 195" enable-background="new 0 0 216 195" xml:space="preserve">
<g>
	<path fill="#6D6E70" d="M55.789,176.265c0,7.603,3.583,13.767,8.003,13.767h32.085c4.42,0,8.003-6.164,8.003-13.767v-18.651H55.789
		V176.265z"/>
	<path fill="#6D6E70" d="M183.277,82.59l29.49-12.438l-31.76-4.401l21.324-21.942l-29.943,4.955l10.436-29.362l-27.223,18.965
		l2.723-33.021L141.99,36.06l-13.156-23.584l-8.783,37.855l-16.17,10.652c15.878,4.058,23.592,12.729,29.037,21.607
		c5.444,8.876,1.36,38.961,1.36,38.961l13.611-0.993l23.592,17.326l-4.99-21.782l30.396,10.316l-16.785-24.765l29.035-5.247
		L183.277,82.59z M165.13,92.258l9.072,11.398l-15.878-2.002v14.448l-11.344-5.643c0,0,3.177-23.128-1.359-32.886
		c-4.538-9.758-18.604-21.014-18.604-21.014l3.177-1.882l5.445-16.902l8.166,12.555l4.99-6.062l2.723,9.018l12.702-6.576
		l-5.896,12.581l18.146-2.732l-15.878,15.055l11.796,2.551l-9.982,4.599l18.149,11.005L165.13,92.258z"/>
	<path fill="#6D6E70" d="M123.391,92.258C122.936,73.146,90.27,70.374,90.27,70.374s-22.231-51.557-34.935-59.83
		S3.232,5.653,3.232,5.653v12.059c10.908-0.328,39.97-0.754,46.205,3.728c7.713,5.542,25.86,44.311,25.86,44.311H3.232v17.412
		h52.556c1.72,0,3.113,1.393,3.113,3.112c0,1.72-1.393,3.113-3.113,3.113H3.232v15.873h48.899c1.719,0,3.112,1.394,3.112,3.112
		s-1.393,3.112-3.112,3.112H3.232v13.913H103.88c3.315,0,6.001,2.687,6.001,6.001c0,3.315-2.687,6.003-6.001,6.003H3.232v12.464
		c0,0,2.65,0.313,54.825,0.313s51.267-0.245,59.434-5.541C125.658,139.344,123.844,111.368,123.391,92.258 M89.815,111.318
		c-12.703,0-22.231,0.505-23.138-12.936c-0.907-13.439,4.083-15.595,23.138-12.108c0,0,19.509,1.05,19.509,12.108
		C109.324,109.441,102.52,111.318,89.815,111.318"/>
</g>
</svg>
