<?xml version="1.0" encoding="utf-8"?>
<!-- Generator: Adobe Illustrator 14.0.0, SVG Export Plug-In . SVG Version: 6.00 Build 43363)  -->
<!DOCTYPE svg PUBLIC "-//W3C//DTD SVG 1.1//EN" "http://www.w3.org/Graphics/SVG/1.1/DTD/svg11.dtd">
<svg version="1.1" id="Layer_1" xmlns="http://www.w3.org/2000/svg" xmlns:xlink="http://www.w3.org/1999/xlink" x="0px" y="0px"
	 width="216px" height="151px" viewBox="0 0 216 151" enable-background="new 0 0 216 151" xml:space="preserve">
<g>
	<path fill="#404041" d="M122.589,135.253c0-2.197,0-4.28-0.001-6.366c0-1.694-0.691-2.399-2.355-2.399c-14.39,0-28.783,0-43.175,0
		c-1.712,0-2.362,0.649-2.362,2.364c-0.002,1.861-0.002,3.724-0.002,5.585c0,0.246,0,0.49,0,0.69c-1.576,0-3.075,0.057-4.571-0.008
		c-6.831-0.295-13.662-0.564-20.487-0.962c-5.216-0.302-10.441-0.62-15.631-1.216c-11.548-1.324-22.843-8.619-25.385-22.986
		c-0.411-2.317-0.531-4.686-0.75-7.035c-0.344-3.7-0.659-7.401-0.984-11.104c-0.227-2.604-0.538-5.204-0.655-7.812
		c-0.115-2.581-0.124-5.175,0.003-7.755c0.056-1.115,0.4-2.293,0.903-3.296c2.487-4.97,6.135-9.05,10.114-12.861
		c1.487-1.426,2.937-2.887,4.489-4.415c-0.56-0.321-0.97-0.605-1.42-0.792c-0.183-0.074-0.48,0.013-0.679,0.113
		c-4.018,2.04-8.101,2.104-12.228,0.39c-1.2-0.498-2.237-1.253-3.026-2.305c-1.236-1.656-1.228-3.605,0.056-5.222
		c1.385-1.744,3.302-2.585,5.407-3.051c3.294-0.729,6.501-0.484,9.528,1.082c1.739,0.896,3.092,2.153,3.403,4.232
		c0.019,0.127,0.201,0.228,0.308,0.342c0.108-0.151,0.257-0.29,0.318-0.461c0.862-2.356,1.66-4.738,2.568-7.077
		c3.09-7.956,6.693-15.651,11.458-22.778c3.657-5.469,8.832-8.526,15.18-9.525c5.85-0.919,11.745-1.604,17.645-2.138
		C76.588,7.912,82.944,7.59,89.29,7.254c3.463-0.184,6.938-0.303,10.403-0.212c6.58,0.175,13.162,0.425,19.734,0.826
		c5.187,0.317,10.368,0.82,15.535,1.399c3.841,0.429,7.698,0.899,11.467,1.728c6.36,1.399,11.04,5.164,14.472,10.723
		c4.937,7.999,8.728,16.506,11.921,25.311c0.368,1.017,0.694,2.046,1.064,3.062c0.055,0.146,0.243,0.245,0.366,0.364
		c0.086-0.133,0.232-0.261,0.252-0.405c0.242-1.781,1.354-2.939,2.787-3.826c2.442-1.505,5.145-1.943,7.963-1.738
		c2.188,0.159,4.266,0.706,6.081,1.997c0.466,0.333,0.909,0.723,1.286,1.154c1.61,1.851,1.556,4.129-0.141,5.905
		c-1.736,1.823-3.978,2.58-6.394,2.899c-3.02,0.396-5.909-0.022-8.604-1.513c-0.164-0.089-0.44-0.086-0.614-0.011
		c-0.413,0.174-0.794,0.42-1.292,0.692c0.251,0.267,0.445,0.476,0.645,0.683c2.907,2.993,5.875,5.933,8.702,9
		c2.089,2.262,3.742,4.854,5.201,7.567c0.6,1.117,0.885,2.293,0.965,3.531c0.265,4.025-0.047,8.034-0.394,12.043
		c-0.48,5.53-0.988,11.059-1.408,16.593c-0.443,5.866-1.825,11.41-5.305,16.266c-4.009,5.595-9.546,8.935-16.08,10.793
		c-2.681,0.763-5.434,0.977-8.186,1.195c-3.884,0.307-7.768,0.592-11.654,0.854c-2.808,0.191-5.619,0.359-8.431,0.483
		c-5.197,0.232-10.396,0.427-15.594,0.632C123.591,135.269,123.143,135.253,122.589,135.253 M168.233,54.234
		c-0.048-0.26-0.055-0.385-0.093-0.502c-2.292-7.442-4.834-14.797-7.881-21.964c-1.85-4.351-3.839-8.635-6.487-12.573
		c-0.201-0.299-0.647-0.577-1.002-0.609c-3.303-0.306-6.607-0.588-9.915-0.81c-6.169-0.412-12.338-0.852-18.509-1.136
		c-5.726-0.268-11.457-0.424-17.188-0.485c-6.991-0.074-13.985-0.089-20.976,0.041c-6.304,0.115-12.607,0.434-18.91,0.715
		c-3.413,0.151-6.824,0.388-10.235,0.64c-4.135,0.305-8.263,0.683-12.397,0.988c-0.601,0.046-0.986,0.243-1.267,0.753
		c-1.38,2.51-2.895,4.953-4.135,7.527c-4.027,8.367-7.056,17.122-9.829,25.969c-0.14,0.446-0.253,0.9-0.406,1.446
		C75.456,54.639,121.801,54.64,168.233,54.234 M150.202,96.812c2.078-0.221,5.477-0.396,8.805-0.973
		c5.638-0.974,10.86-3.078,15.458-6.562c1.923-1.457,3.618-3.134,4.495-5.455c0.882-2.334,0.358-4.213-1.695-5.609
		c-1.027-0.695-2.18-1.265-3.351-1.675c-4.838-1.697-9.887-1.92-14.945-1.915c-2.356,0.003-4.717,0.209-7.07,0.399
		c-3.798,0.303-7.507,1.064-11.018,2.59c-2.188,0.947-4.234,2.123-5.724,4.052c-1.308,1.698-1.837,3.615-1.091,5.666
		c0.571,1.571,1.291,3.107,2.127,4.556c0.965,1.677,2.473,2.813,4.268,3.562C143.167,96.569,146.024,96.697,150.202,96.812
		 M48.368,96.83c1.5-0.117,3.012-0.166,4.502-0.363c3.069-0.411,5.869-1.413,7.823-4.013c1.19-1.584,1.997-3.374,2.552-5.263
		c0.529-1.806,0.227-3.529-0.836-5.104c-0.963-1.428-2.28-2.465-3.747-3.321c-3.014-1.763-6.304-2.731-9.718-3.288
		c-4.474-0.727-8.986-0.947-13.517-0.817c-3.218,0.091-6.417,0.373-9.558,1.123c-2.307,0.548-4.563,1.247-6.411,2.832
		c-1.022,0.881-1.595,1.976-1.532,3.371c0.091,1.975,1.061,3.536,2.323,4.941c2.556,2.844,5.796,4.691,9.236,6.24
		C35.492,95.876,41.859,96.672,48.368,96.83"/>
	<path fill="#6D6E70" d="M120.323,139.756H76.959c-0.021-0.276-0.057-0.539-0.057-0.804c-0.003-3.144,0.02-6.289-0.017-9.433
		c-0.008-0.677,0.203-0.84,0.858-0.84c13.886,0.019,27.769,0.019,41.654,0.002c0.697-0.002,0.954,0.145,0.945,0.899
		c-0.042,3.094-0.02,6.187-0.02,9.281V139.756z"/>
	<path fill="#404041" d="M188.53,118.058c-0.169,3.085-0.334,6.168-0.506,9.253c-0.183,3.233-0.364,6.468-0.555,9.703
		c-0.188,3.183-0.355,6.369-0.604,9.549c-0.054,0.674-0.355,1.361-0.67,1.976c-0.534,1.039-1.395,1.539-2.629,1.528
		c-4.802-0.04-9.606-0.044-14.409,0.001c-1.348,0.015-2.156-0.622-2.764-1.711c-0.675-1.213-0.639-2.566-0.757-3.884
		c-0.266-2.925-0.498-5.854-0.74-8.786c-0.02-0.195-0.004-0.396-0.004-0.68c4.998-0.966,9.675-2.755,13.878-5.678
		C182.98,126.401,186.212,122.633,188.53,118.058"/>
	<path fill="#404041" d="M8.816,118.016c4.922,9.834,13.208,14.848,23.576,17.03c-0.14,1.711-0.273,3.407-0.418,5.103
		c-0.192,2.226-0.349,4.455-0.619,6.672c-0.082,0.669-0.422,1.338-0.764,1.94c-0.502,0.894-1.3,1.31-2.373,1.302
		c-4.877-0.027-9.756-0.027-14.635,0c-1.105,0.008-1.946-0.422-2.411-1.363c-0.405-0.816-0.791-1.724-0.856-2.613
		c-0.282-3.858-0.437-7.723-0.655-11.585c-0.272-4.866-0.565-9.73-0.84-14.597C8.788,119.329,8.816,118.752,8.816,118.016"/>
	<path fill="#404041" d="M149.921,136.271c4.352-0.336,8.498-0.657,12.722-0.981c0.208,2.527,0.413,4.998,0.626,7.563
		c-0.328,0.017-0.593,0.045-0.857,0.045c-2.515,0.004-5.032-0.047-7.546,0.019c-2.009,0.049-3.364-0.881-4.03-2.665
		C150.371,139.009,150.226,137.646,149.921,136.271"/>
	<path fill="#404041" d="M33.981,142.9c0.218-2.598,0.426-5.068,0.639-7.611c4.167,0.322,8.286,0.641,12.457,0.961
		c0.073,1.572-0.089,3.09-0.875,4.495c-0.804,1.444-1.986,2.188-3.679,2.165c-2.564-0.039-5.129-0.01-7.693-0.01H33.981z"/>
	<polygon fill="#A6A8AB" points="39.044,17.377 30.437,12.179 39.897,15.44 39.007,11.803 41.729,14.376 45.263,0.933 
		43.835,14.589 47.018,12.617 45.413,16.002 54.28,14.987 45.86,18.071 48.72,20.49 45.006,20.01 48.204,28.867 43.175,21.072 
		41.758,24.539 41.068,20.858 33.8,27.862 39.491,19.447 35.754,19.172 	"/>
	<polygon fill="#6D6E70" points="187.052,80.767 176.175,67.893 189.45,78.149 189.987,71.893 192.925,77.44 205.752,57.99 
		196.155,78.91 202.271,77.486 197.905,81.997 212.528,85.146 197.502,85.523 200.747,90.901 195.105,88.141 195.432,103.928 
		191.629,88.85 187.519,93.594 188.4,87.378 173.098,94.599 186.653,84.29 180.87,81.847 	"/>
</g>
</svg>
