<?xml version="1.0" encoding="utf-8"?>
<!-- Generator: Adobe Illustrator 14.0.0, SVG Export Plug-In . SVG Version: 6.00 Build 43363)  -->
<!DOCTYPE svg PUBLIC "-//W3C//DTD SVG 1.1//EN" "http://www.w3.org/Graphics/SVG/1.1/DTD/svg11.dtd">
<svg version="1.1" id="Layer_1" xmlns="http://www.w3.org/2000/svg" xmlns:xlink="http://www.w3.org/1999/xlink" x="0px" y="0px"
	 width="220px" height="60px" viewBox="0 0 220 60" enable-background="new 0 0 220 60" xml:space="preserve">
<g>
	<polygon fill="#231F20" points="32.739,50.058 8.354,50.058 8.354,20.569 32.69,20.569 32.69,25.428 15.161,25.428 15.161,32.846 
		31.766,32.846 31.766,37.439 15.161,37.439 15.161,45.251 32.739,45.251 	"/>
	<path fill="#231F20" d="M57.423,42.427h-4.94l-1.604-3.899H40.042l-1.588,3.899h-5.005l8.344-20.883h7.037L57.423,42.427z
		 M49.722,35.486l-4.294-10.902l-4.296,10.902H49.722z"/>
	<path fill="#231F20" d="M79.064,36.399c0,2.427-0.695,4.079-2.065,4.938c-1.354,0.857-3.834,1.273-7.418,1.273
		c-4.675,0-7.633-0.397-8.904-1.212c-1.272-0.788-1.901-2.672-1.901-5.596h4.76c0,1.584,0.295,2.559,0.892,2.988
		c0.577,0.399,2.048,0.592,4.395,0.592c2.148,0,3.584-0.192,4.293-0.592c0.728-0.43,1.092-1.258,1.092-2.562
		c0-1.036-0.296-1.75-0.909-2.128c-0.61-0.398-1.816-0.597-3.649-0.597c-3.487,0-6.146-0.293-7.999-0.89
		c-1.833-0.598-2.758-2.281-2.758-5.007c0-2.265,0.613-3.883,1.866-4.807c1.256-0.94,3.769-1.404,7.535-1.404
		c4.163,0,6.907,0.378,8.243,1.167c1.32,0.797,2.002,2.518,2.002,5.143h-4.859c0-1.423-0.248-2.279-0.729-2.562
		c-0.477-0.293-2.047-0.445-4.756-0.445c-1.685,0-2.858,0.183-3.534,0.529c-0.662,0.351-0.993,1.079-0.993,2.164
		c0,1.191,0.314,1.952,0.927,2.312c0.627,0.364,2.212,0.529,4.791,0.529c3.965,0,6.575,0.348,7.796,1.041
		C78.436,31.95,79.064,33.668,79.064,36.399"/>
	<polygon fill="#231F20" points="102.87,21.542 93.619,34.431 93.619,42.426 88.794,42.426 88.794,34.431 79.739,21.542 
		85.211,21.542 91.141,30.485 91.307,30.485 97.353,21.542 	"/>
	<path fill="#231F20" d="M132.855,39.555c0,4.507-0.876,7.432-2.593,8.786c-1.719,1.358-6.311,2.033-13.796,2.033
		c-5.024,0-8.443-0.847-10.276-2.56c-1.836-1.668-2.741-4.329-2.741-7.896v-8.226c0-4.269,1.057-7.22,3.152-8.857
		c2.116-1.656,6.03-2.479,11.767-2.479c5.746,0,9.61,0.629,11.631,1.868c2.014,1.253,3.04,4.06,3.04,8.407h-1.026h-1.223h-0.857
		h-0.743h-0.612h-0.53c-1.453,0-2.213-0.032-2.248-0.085c0-2.46-0.344-3.978-1.006-4.521c-0.662-0.55-2.624-0.809-5.896-0.809
		c-3.505,0-5.835,0.345-6.988,1.021c-1.175,0.696-1.752,2.394-1.752,5.104v7.684c0,2.872,0.577,4.67,1.686,5.384
		c1.104,0.696,3.253,1.062,6.392,1.062c3.437,0,5.636-0.304,6.56-0.943c0.939-0.647,1.402-2.3,1.402-4.972H132.855z"/>
	<path fill="#231F20" d="M158.579,42.427h-4.942l-1.601-3.899h-10.837l-1.588,3.899h-5.021l8.358-20.883h7.039L158.579,42.427z
		 M150.881,35.486l-4.296-10.902l-4.295,10.902H150.881z"/>
	<path fill="#231F20" d="M181.227,27.755c0,2.015-0.246,3.435-0.81,4.261c-0.525,0.843-1.733,1.407-3.583,1.686
		c1.471,0.197,2.561,0.613,3.19,1.259c0.658,0.658,0.99,1.865,0.99,3.613v3.853h-4.842v-3.123c0-1.538-0.215-2.528-0.678-3.024
		c-0.428-0.477-1.484-0.723-3.139-0.723h-6.674v6.87h-4.825V21.543h12.293c3.011,0,5.121,0.463,6.31,1.424
		C180.649,23.905,181.227,25.494,181.227,27.755 M176.387,28.399c0-1.466-0.226-2.414-0.692-2.82
		c-0.444-0.402-1.537-0.596-3.271-0.596h-6.741v7.167h6.874c1.483,0,2.511-0.266,3.038-0.723
		C176.122,30.915,176.387,29.904,176.387,28.399"/>
	<polygon fill="#231F20" points="202.026,42.427 184.779,42.427 184.779,21.543 201.993,21.543 201.993,24.983 189.571,24.983 
		189.571,30.233 201.335,30.233 201.335,33.475 189.571,33.475 189.571,39.023 202.026,39.023 	"/>
	<path fill="#231F20" d="M211.646,23.294c0,1.006-0.366,1.882-1.075,2.625c-0.724,0.742-1.602,1.107-2.63,1.107
		c-1.021,0-1.878-0.365-2.608-1.088c-0.729-0.742-1.09-1.651-1.09-2.738c0-0.995,0.361-1.854,1.057-2.546
		c0.695-0.729,1.584-1.093,2.642-1.093c1.011,0,1.887,0.35,2.612,1.061C211.279,21.31,211.646,22.205,211.646,23.294 M210.95,23.294
		c0-0.824-0.298-1.535-0.859-2.144c-0.562-0.601-1.288-0.894-2.15-0.894c-0.871,0-1.602,0.293-2.16,0.894
		c-0.578,0.592-0.845,1.32-0.845,2.175c0,0.83,0.28,1.557,0.86,2.116c0.595,0.597,1.286,0.895,2.145,0.895
		c0.827,0,1.541-0.313,2.133-0.895C210.652,24.851,210.95,24.134,210.95,23.294 M209.91,22.532c0,0.364-0.083,0.628-0.282,0.793
		c-0.183,0.186-0.461,0.27-0.792,0.27l0.958,1.732h-0.925l-0.896-1.732h-0.775v1.732h-0.772V21.28h1.913
		c0.597,0,0.99,0.097,1.223,0.283C209.794,21.743,209.91,22.073,209.91,22.532 M209.134,22.403c0-0.179-0.066-0.315-0.216-0.396
		c-0.15-0.1-0.381-0.146-0.712-0.146h-1.008v1.168h1.041c0.331,0,0.597-0.028,0.696-0.1
		C209.067,22.849,209.134,22.683,209.134,22.403"/>
	<path fill="#231F20" d="M35.365,54.026V59c12.474-4.264,31.969-6.992,53.841-6.992c4.066,0,8.03,0.086,11.882,0.264v-0.976
		C66.64,47.546,54.579,49.481,35.365,54.026"/>
	<path fill="#231F20" d="M71.646,45.104c-13.631-0.827-26.268,0.325-36.281,2.988v2.84c9.599-2.347,19.047-3.184,31.175-3.416
		c10.839-0.197,24.14,1.539,34.548,3.237v-0.479C92.594,47.617,82.517,45.762,71.646,45.104"/>
	<path fill="#231F20" d="M10.477,1.706c0.889-0.154,1.856-0.229,2.869-0.229c1.612,0,2.887,0.368,3.761,1.119
		c0.845,0.691,1.366,1.705,1.366,3.241c0,2.01-0.844,3.728-2.117,4.757c-1.197,0.966-2.719,1.382-4.959,1.382
		c-1.242,0-2.316-0.107-2.839-0.2L10.477,1.706z M11.105,10.133c0.26,0.028,0.583,0.046,0.967,0.046c1.197,0,2.257-0.415,2.933-1.2
		c0.705-0.797,1.073-1.887,1.073-3.13c0-1.643-0.904-2.61-2.732-2.61c-0.382,0-0.705,0.032-0.936,0.078L11.105,10.133z"/>
	<path fill="#231F20" d="M18.954,11.896l0.845-4.465c0.214-1.136,0.307-2.395,0.384-3.039h1.919
		c-0.047,0.507-0.076,1.014-0.139,1.535h0.046c0.537-0.999,1.366-1.705,2.395-1.705c0.138,0,0.276,0,0.414,0.017l-0.43,2.148
		c-0.107-0.014-0.229-0.014-0.353-0.014c-1.412,0-2.072,1.257-2.349,2.731l-0.521,2.792H18.954z"/>
	<path fill="#231F20" d="M24.636,11.896l1.428-7.504h2.212l-1.429,7.504H24.636z M27.431,3.456c-0.614,0-1.061-0.43-1.061-1.075
		c0-0.751,0.599-1.258,1.275-1.258c0.66,0,1.12,0.43,1.12,1.088c0,0.785-0.599,1.245-1.305,1.245H27.431z"/>
	<path fill="#231F20" d="M31.484,4.392l0.354,3.284c0.076,0.922,0.153,1.489,0.2,2.042h0.046c0.199-0.539,0.43-1.105,0.845-2.025
		l1.503-3.3h2.473l-4.176,7.504h-2.256l-1.259-7.504H31.484z"/>
	<path fill="#231F20" d="M42.693,11.467c-0.874,0.447-1.965,0.599-2.809,0.599c-2.133,0-3.238-1.212-3.238-3.176
		c0-2.288,1.658-4.667,4.374-4.667c1.521,0,2.609,0.86,2.609,2.257c0,1.903-1.856,2.593-4.881,2.517
		c0.015,0.215,0.093,0.553,0.246,0.768c0.292,0.383,0.798,0.583,1.442,0.583c0.814,0,1.504-0.186,2.104-0.477L42.693,11.467z
		 M40.745,5.836c-1.029,0-1.628,0.858-1.781,1.55c1.735,0.014,2.595-0.215,2.595-0.921C41.559,6.095,41.252,5.836,40.745,5.836"/>
	<path fill="#231F20" d="M44.095,11.896l0.951-5.065c0.2-0.95,0.308-1.764,0.415-2.439h1.949l-0.139,1.242h0.03
		c0.706-0.966,1.628-1.412,2.626-1.412c1.227,0,1.934,0.753,1.934,2.058c0,0.337-0.062,0.89-0.123,1.259l-0.828,4.358h-2.226
		l0.797-4.158c0.047-0.262,0.077-0.553,0.077-0.83c0-0.536-0.184-0.904-0.752-0.904c-0.722,0-1.565,0.904-1.873,2.562l-0.628,3.33
		H44.095z"/>
	<path fill="#231F20" d="M59.85,1l-0.892,4.297h0.031c0.552-0.66,1.396-1.075,2.317-1.075c1.566,0,2.271,1.29,2.271,2.625
		c0,2.426-1.595,5.218-4.972,5.218c-1.781,0-2.672-0.767-2.672-2.101c0-0.462,0.076-0.921,0.169-1.368L57.623,1H59.85z M58.3,8.735
		c-0.047,0.245-0.094,0.522-0.078,0.829c0.016,0.537,0.322,0.83,0.844,0.83c1.29,0,2.195-1.781,2.195-3.085
		c0-0.737-0.307-1.29-0.982-1.29c-0.798,0-1.581,0.798-1.841,2.103L58.3,8.735z"/>
	<path fill="#231F20" d="M66.838,4.392l0.46,3.27c0.107,0.783,0.185,1.319,0.246,1.796h0.031c0.168-0.46,0.337-0.938,0.659-1.75
		l1.366-3.315h2.333l-2.687,5.402c-0.998,1.995-1.887,3.346-2.885,4.282c-0.875,0.83-1.918,1.212-2.409,1.29l-0.491-1.904
		c0.353-0.107,0.844-0.291,1.274-0.582c0.505-0.354,0.935-0.798,1.228-1.305c0.061-0.123,0.061-0.216,0.029-0.367l-1.473-6.816
		H66.838z"/>
</g>
</svg>
