<?xml version="1.0" encoding="utf-8"?>
<!-- Generator: Adobe Illustrator 14.0.0, SVG Export Plug-In . SVG Version: 6.00 Build 43363)  -->
<!DOCTYPE svg PUBLIC "-//W3C//DTD SVG 1.1//EN" "http://www.w3.org/Graphics/SVG/1.1/DTD/svg11.dtd">
<svg version="1.1" id="Layer_1" xmlns="http://www.w3.org/2000/svg" xmlns:xlink="http://www.w3.org/1999/xlink" x="0px" y="0px"
	 width="300px" height="300px" viewBox="0 0 300 300" enable-background="new 0 0 300 300" xml:space="preserve">
<g>
	<path fill="#EC1C24" d="M299.189,150c0,82.395-66.795,149.189-149.19,149.189C67.605,299.188,0.811,232.395,0.811,150
		C0.811,67.605,67.605,0.81,150,0.81C232.395,0.81,299.189,67.605,299.189,150"/>
	<circle fill="none" stroke="#FFFFFF" stroke-miterlimit="10" cx="150" cy="150" r="149.189"/>
	<g opacity="0.4">
		<g>
			<g>
				<path fill="none" d="M12.78,208.549c-32.335-75.783,2.887-163.433,78.671-195.768c75.786-32.338,163.435,2.884,195.77,78.671
					c32.336,75.784-2.887,163.432-78.672,195.768C132.765,319.557,45.116,284.333,12.78,208.549"/>
			</g>
			<circle fill="none" stroke="#FFFFFF" stroke-miterlimit="10" cx="150" cy="150" r="149.189"/>
		</g>
	</g>
	<g opacity="0.4">
		<g>
			<g>
				<path fill="none" d="M108.302,6.758C187.411-16.273,270.214,29.19,293.244,108.3c23.029,79.112-22.434,161.914-101.546,184.943
					c-79.11,23.03-161.911-22.434-184.941-101.544C-16.272,112.587,29.19,29.786,108.302,6.758"/>
			</g>
			<g>
				<path fill="#FFFFFF" d="M150.075,1.772c31.417,0,62.709,10.343,88.113,29.124c26.243,19.401,44.949,46.265,54.095,77.686
					c11.063,38.005,6.665,78.043-12.386,112.739c-19.05,34.696-50.473,59.897-88.478,70.961
					c-13.552,3.945-27.511,5.945-41.489,5.945c-31.419,0-62.712-10.342-88.116-29.121c-26.244-19.4-44.95-46.264-54.098-77.686
					c-11.062-38.006-6.663-78.045,12.387-112.742C39.153,43.981,70.575,18.78,108.58,7.716c13.549-3.944,27.507-5.944,41.492-5.944
					H150.075 M150.068,0.772c-13.804,0-27.846,1.932-41.767,5.984C29.189,29.786-16.272,112.587,6.755,191.699
					c18.978,65.189,78.534,107.527,143.174,107.527c13.804,0,27.848-1.933,41.769-5.985
					c79.112-23.029,124.573-105.829,101.544-184.939C274.267,43.111,214.71,0.769,150.068,0.772L150.068,0.772z"/>
			</g>
		</g>
	</g>
	<path fill="#231F20" d="M108.82,227.709c0-22.742,18.438-41.18,41.18-41.18c22.744,0,41.18,18.438,41.18,41.18
		c0,22.743-18.437,41.18-41.18,41.18C127.258,268.889,108.82,250.452,108.82,227.709"/>
	<circle fill="none" stroke="#991B2C" stroke-width="0.5" stroke-miterlimit="10" cx="150" cy="227.709" r="41.18"/>
	<g opacity="0.4">
		<g>
			<g>
				<path fill="none" d="M150,268.889c-22.742,0-41.178-18.437-41.178-41.18s18.437-41.18,41.178-41.18
					c22.744,0,41.18,18.437,41.18,41.18S172.743,268.889,150,268.889"/>
			</g>
			<circle fill="none" stroke="#991B2C" stroke-width="0.5" stroke-miterlimit="10" cx="150" cy="227.709" r="41.18"/>
		</g>
	</g>
	<path fill-rule="evenodd" clip-rule="evenodd" fill="#FFFFFF" d="M125.757,211.54c0,0,12.481,13.647,14.789,16.169
		c-2.307,2.524-14.789,16.167-14.789,16.167h13.194l14.787-16.167l-14.787-16.169H125.757z"/>
	<path fill-rule="evenodd" clip-rule="evenodd" fill="#FFFFFF" d="M150.001,211.54c0,0,12.479,13.647,14.787,16.169
		C162.479,230.233,150,243.876,150,243.876h13.193l14.79-16.167l-14.79-16.169H150.001z"/>
	<polygon fill="#FFFFFF" points="95.477,51.799 110.74,51.799 110.74,54.464 98.409,54.464 98.409,74.257 109.604,74.257 
		109.604,76.925 98.409,76.925 98.409,98.451 95.477,98.451 	"/>
	<rect x="114.996" y="51.801" fill="#FFFFFF" width="2.931" height="46.65"/>
	<polygon fill="#FFFFFF" points="124.521,51.799 127.722,51.799 142.25,90.986 142.25,51.799 145.046,51.799 145.046,98.451 
		142.182,98.451 127.321,58.331 127.321,98.451 124.521,98.451 	"/>
	<path fill="#FFFFFF" d="M151.161,51.801h5.535c8.66,0,14.927,7.796,14.927,22.724v1.202c0,14.926-6.267,22.724-14.927,22.724
		h-5.535V51.801z M154.093,54.464v41.321h2.668c6.997,0,11.932-6.865,11.932-20.059v-1.202c0-13.195-5.134-20.061-12.066-20.061
		H154.093z"/>
	<path fill="#FFFFFF" d="M194.455,51.6h3.202l10.192,46.849h-3.062l-2.735-13.062h-12.127l-2.732,13.062h-2.933L194.455,51.6z
		 M201.521,82.722l-5.534-26.523l-5.527,26.523H201.521z"/>
	<polygon fill="#FFFFFF" points="68.635,114.6 78.898,114.6 82.83,142.525 86.827,114.6 96.759,114.6 88.028,161.384 
		77.431,161.384 	"/>
	<polygon fill="#FFFFFF" points="98.344,114.6 118.536,114.6 118.536,124.063 108.337,124.063 108.337,133.126 117.403,133.126 
		117.403,142.458 108.337,142.458 108.337,151.721 118.736,151.721 118.736,161.252 98.344,161.252 	"/>
	<polygon fill="#FFFFFF" points="121.789,114.6 131.783,114.6 131.783,132.993 137.78,132.993 137.78,114.6 147.779,114.6 
		147.779,161.252 137.78,161.252 137.78,142.525 131.783,142.525 131.783,161.252 121.789,161.252 	"/>
	<rect x="151.558" y="114.6" fill="#FFFFFF" width="9.997" height="46.65"/>
	<path fill="#FFFFFF" d="M164.677,139.125v-2.333c0-16.395,7.269-22.727,15.397-22.727c2.599,0,4.197,0.4,6.065,1.268v10.062
		c-1.799-1.064-3.333-1.666-5.065-1.666c-3.332,0-6.198,2.801-6.198,13.328v1.734c0,10.997,2.668,13.261,6.463,13.261
		c1.468,0,3.002-0.532,4.999-1.665v9.596c-1.997,1.198-3.999,1.801-6.932,1.801C171.21,161.785,164.677,154.852,164.677,139.125"/>
	<polygon fill="#FFFFFF" points="189.525,114.6 199.52,114.6 199.52,151.721 208.385,151.721 208.385,161.252 189.525,161.252 	"/>
	<polygon fill="#FFFFFF" points="210.973,114.6 231.164,114.6 231.164,124.063 220.967,124.063 220.967,133.126 230.032,133.126 
		230.032,142.458 220.967,142.458 220.967,151.721 231.364,151.721 231.364,161.252 210.973,161.252 	"/>
</g>
</svg>
