<?xml version="1.0" encoding="utf-8"?>
<!-- Generator: Adobe Illustrator 14.0.0, SVG Export Plug-In . SVG Version: 6.00 Build 43363)  -->
<!DOCTYPE svg PUBLIC "-//W3C//DTD SVG 1.1//EN" "http://www.w3.org/Graphics/SVG/1.1/DTD/svg11.dtd">
<svg version="1.1" id="Layer_1" xmlns="http://www.w3.org/2000/svg" xmlns:xlink="http://www.w3.org/1999/xlink" x="0px" y="0px"
	 width="300px" height="300px" viewBox="0 0 300 300" enable-background="new 0 0 300 300" xml:space="preserve">
<g>
	<path fill="#EC1C24" d="M299.962,150c0,82.821-67.141,149.96-149.961,149.96c-82.82,0-149.96-67.14-149.96-149.96
		C0.041,67.178,67.18,0.04,150,0.04C232.821,0.04,299.962,67.178,299.962,150"/>
	<circle fill="none" stroke="#FFFFFF" stroke-miterlimit="10" cx="150.001" cy="150" r="149.961"/>
	<g opacity="0.4">
		<g>
			<g>
				<path fill="none" d="M12.071,208.852c-32.503-76.175,2.902-164.279,79.078-196.78c76.175-32.505,164.278,2.898,196.781,79.077
					c32.504,76.175-2.9,164.277-79.078,196.781C132.676,320.433,44.575,285.027,12.071,208.852"/>
			</g>
			<circle fill="none" stroke="#FFFFFF" stroke-miterlimit="10" cx="150" cy="150" r="149.96"/>
		</g>
	</g>
	<g opacity="0.4">
		<g>
			<g>
				<path fill="none" d="M108.086,6.017c79.521-23.149,162.75,22.549,185.898,102.067c23.148,79.521-22.549,162.75-102.068,185.899
					c-79.521,23.149-162.75-22.55-185.898-102.068C-17.132,112.394,28.567,29.165,108.086,6.017"/>
			</g>
			<g>
				<path fill="#FFFFFF" d="M150.076,1c31.58,0,63.035,10.397,88.571,29.276c26.38,19.502,45.184,46.505,54.378,78.089
					c11.12,38.203,6.698,78.45-12.451,113.327c-19.15,34.877-50.735,60.209-88.938,71.329c-13.622,3.966-27.654,5.977-41.706,5.977
					c-31.582,0-63.039-10.396-88.575-29.273c-26.38-19.501-45.185-46.504-54.38-78.089c-11.121-38.204-6.699-78.451,12.451-113.329
					s50.735-60.21,88.938-71.331c13.619-3.964,27.65-5.975,41.708-5.976H150.076 M150.069,0c-13.875,0.001-27.99,1.942-41.983,6.016
					C28.565,29.165-17.132,112.394,6.016,191.915c19.076,65.526,78.939,108.083,143.915,108.083c13.875,0,27.993-1.943,41.985-6.017
					c79.521-23.147,125.217-106.376,102.07-185.895C274.91,42.559,215.045-0.002,150.069,0L150.069,0z"/>
			</g>
		</g>
	</g>
	<path fill="#231F20" d="M108.608,228.11c0-22.859,18.533-41.393,41.393-41.393c22.859,0,41.393,18.533,41.393,41.393
		c0,22.861-18.534,41.394-41.393,41.394C127.141,269.504,108.608,250.972,108.608,228.11"/>
	<circle fill="none" stroke="#991B2C" stroke-width="0.5" stroke-miterlimit="10" cx="150.001" cy="228.11" r="41.393"/>
	<g opacity="0.4">
		<g>
			<g>
				<path fill="none" d="M150.002,269.504c-22.862,0-41.394-18.532-41.394-41.394c0-22.86,18.532-41.393,41.394-41.393
					c22.859,0,41.393,18.532,41.393,41.393C191.395,250.972,172.861,269.504,150.002,269.504"/>
			</g>
			<circle fill="none" stroke="#991B2C" stroke-width="0.5" stroke-miterlimit="10" cx="150" cy="228.111" r="41.393"/>
		</g>
	</g>
	<path fill-rule="evenodd" clip-rule="evenodd" fill="#FFFFFF" d="M125.632,211.858c0,0,12.546,13.718,14.865,16.252
		c-2.318,2.538-14.865,16.251-14.865,16.251h13.263l14.863-16.251l-14.863-16.252H125.632z"/>
	<path fill-rule="evenodd" clip-rule="evenodd" fill="#FFFFFF" d="M150.002,211.858c0,0,12.545,13.718,14.863,16.252
		c-2.318,2.538-14.863,16.251-14.863,16.251h13.262l14.864-16.251l-14.864-16.252H150.002z"/>
	<polygon fill="#FFFFFF" points="90.643,51.091 106.469,51.091 106.469,53.854 93.683,53.854 93.683,74.381 105.294,74.381 
		105.294,77.144 93.683,77.144 93.683,99.467 90.643,99.467 	"/>
	<rect x="110.883" y="51.091" fill="#FFFFFF" width="3.04" height="48.378"/>
	<polygon fill="#FFFFFF" points="120.761,51.091 124.08,51.091 139.146,91.728 139.146,51.091 142.047,51.091 142.047,99.467 
		139.073,99.467 123.666,57.863 123.666,99.467 120.761,99.467 	"/>
	<path fill="#FFFFFF" d="M148.388,51.092h5.737c8.98,0,15.482,8.084,15.482,23.564v1.245c0,15.48-6.502,23.567-15.482,23.567h-5.737
		V51.092z M151.428,53.854v42.851h2.766c7.254,0,12.373-7.12,12.373-20.803v-1.245c0-13.683-5.324-20.803-12.514-20.803H151.428z"/>
	<path fill="#FFFFFF" d="M193.281,50.884h3.321l10.571,48.585h-3.177L201.16,85.92h-12.576l-2.833,13.549h-3.04L193.281,50.884z
		 M200.611,83.159l-5.738-27.507l-5.734,27.507H200.611z"/>
	<path fill="#FFFFFF" d="M69.505,116.022h9.676c11.746,0,18.033,8.016,18.033,23.016v2.349c0,14.995-6.287,23.011-18.033,23.011
		h-9.676V116.022z M79.868,125.56v29.3c3.802,0,6.775-2.902,6.775-13.405v-2.489C86.643,128.253,83.67,125.56,79.868,125.56"/>
	<polygon fill="#FFFFFF" points="100.38,116.022 121.318,116.022 121.318,125.835 110.744,125.835 110.744,135.234 120.144,135.234 
		120.144,144.912 110.744,144.912 110.744,154.519 121.525,154.519 121.525,164.399 100.38,164.399 	"/>
	<path fill="#FFFFFF" d="M131.741,115.883h11.886l9.194,48.514h-10.37l-1.313-8.708h-7.257l-1.311,8.708h-10.09L131.741,115.883z
		 M139.826,146.844l-2.279-15.203l-2.351,15.203H139.826z"/>
	<polygon fill="#FFFFFF" points="154.463,116.022 164.828,116.022 164.828,154.519 174.02,154.519 174.02,164.399 154.463,164.399 	
		"/>
	<polygon fill="#FFFFFF" points="176.703,116.022 197.643,116.022 197.643,125.835 187.067,125.835 187.067,135.234 
		196.468,135.234 196.468,144.912 187.067,144.912 187.067,154.519 197.85,154.519 197.85,164.399 176.703,164.399 	"/>
	<path fill="#FFFFFF" d="M201.016,116.022h10.362c4.839,0,9.054,1.242,11.889,4.078c2.556,2.624,4.079,6.359,4.079,11.612v0.689
		c0,6.636-2.559,10.436-5.671,12.855l6.429,19.14h-11.059l-4.905-15.755h-0.828v15.755h-10.296V116.022z M211.659,139.935
		c2.968,0,5.112-1.867,5.112-6.842v-1.038c0-5.183-2.212-6.771-5.186-6.771h-0.274v14.651H211.659z"/>
</g>
</svg>
