<?xml version="1.0" encoding="utf-8"?>
<!-- Generator: Adobe Illustrator 14.0.0, SVG Export Plug-In . SVG Version: 6.00 Build 43363)  -->
<!DOCTYPE svg PUBLIC "-//W3C//DTD SVG 1.1//EN" "http://www.w3.org/Graphics/SVG/1.1/DTD/svg11.dtd">
<svg version="1.1" id="Layer_1" xmlns="http://www.w3.org/2000/svg" xmlns:xlink="http://www.w3.org/1999/xlink" x="0px" y="0px"
	 width="170px" height="40px" viewBox="0 0 170 40" enable-background="new 0 0 170 40" xml:space="preserve">
<g>
	<g>
		<g>
			<path d="M29.467,35.039c0-2.547,2.048-5.193,5.326-5.193c1.744,0,2.949,0.848,3.461,2.18l-2.047,1.107
				c-0.341-0.701-0.878-1.107-1.718-1.107c-1.414,0-2.548,1.341-2.548,2.843c0,1.096,0.719,1.772,1.706,1.772
				c0.742,0,1.279-0.32,1.827-0.873l1.598,1.428c-0.829,0.947-1.95,1.611-3.57,1.611C31.137,38.807,29.467,37.344,29.467,35.039z"/>
			<path d="M40.215,30.018h6.838l-0.549,2.031h-4.485l-0.353,1.305h4.07l-0.5,1.886h-4.071L40.8,36.605h4.559l-0.535,2.029h-6.898
				L40.215,30.018z"/>
			<path d="M48.734,30.018h3.218c1.426,0,2.364,0.32,2.937,0.898c0.451,0.457,0.658,1.07,0.658,1.761
				c0,1.44-0.815,2.574-2.559,3.054l1.315,2.906h-2.608l-1.135-2.609h-1.048l-0.694,2.609h-2.376L48.734,30.018z M51.354,34.154
				c1.061,0,1.756-0.455,1.756-1.193c0-0.232-0.073-0.42-0.22-0.58c-0.194-0.197-0.549-0.295-1.048-0.295h-1.279l-0.561,2.068
				C50.001,34.154,51.354,34.154,51.354,34.154z"/>
			<path d="M59.068,32.111h-2.56l0.562-2.094h7.471l-0.549,2.094h-2.56l-1.73,6.522h-2.376L59.068,32.111z"/>
			<path d="M65.917,30.018h2.364l-2.291,8.618h-2.364L65.917,30.018z"/>
			<path d="M70.181,30.018h6.826l-0.561,2.094h-4.449l-0.39,1.464h4.021l-0.523,1.983h-4.021l-0.817,3.076h-2.376L70.181,30.018z"/>
			<path d="M78.552,30.018h2.366l-2.292,8.618H76.26L78.552,30.018z"/>
			<path d="M82.82,30.018h6.836l-0.549,2.031h-4.486l-0.354,1.305h4.071l-0.498,1.886h-4.072l-0.365,1.366h4.559l-0.535,2.029
				h-6.898L82.82,30.018z"/>
			<path d="M91.337,30.018h2.755c1.657,0,2.693,0.455,3.34,1.109c0.634,0.639,0.927,1.477,0.927,2.521
				c0,1.293-0.488,2.475-1.4,3.397c-1.025,1.033-2.498,1.588-4.474,1.588h-3.438L91.337,30.018z M92.764,36.518
				c0.986,0,1.876-0.309,2.438-0.873c0.45-0.457,0.73-1.121,0.73-1.799c0-0.527-0.157-0.91-0.426-1.182
				c-0.317-0.333-0.842-0.529-1.671-0.529h-0.681l-1.17,4.383H92.764L92.764,36.518z"/>
			<path d="M103.9,30.018h2.584l0.477,5.416l3.35-5.416h2.67l-5.737,8.681h-2.209L103.9,30.018z"/>
			<path d="M114.089,30.018h6.837l-0.547,2.031h-4.486l-0.354,1.305h4.071l-0.499,1.886h-4.07l-0.365,1.366h4.558l-0.535,2.029
				H111.8L114.089,30.018z"/>
			<path d="M122.607,30.018h2.376l-0.865,3.226h3.011l0.853-3.226h2.377l-2.289,8.618h-2.378l0.878-3.274h-3.011l-0.864,3.274
				h-2.377L122.607,30.018z"/>
			<path d="M132.258,30.018h2.365l-2.292,8.618h-2.364L132.258,30.018z"/>
			<path d="M135.002,35.039c0-2.547,2.047-5.193,5.324-5.193c1.743,0,2.948,0.848,3.461,2.18l-2.047,1.107
				c-0.343-0.701-0.877-1.107-1.718-1.107c-1.414,0-2.549,1.341-2.549,2.843c0,1.096,0.72,1.772,1.707,1.772
				c0.742,0,1.279-0.32,1.827-0.873l1.597,1.428c-0.827,0.947-1.948,1.611-3.569,1.611C136.67,38.807,135.002,37.344,135.002,35.039
				z"/>
			<path d="M145.748,30.018h2.377l-1.729,6.524h4.069l-0.561,2.094h-6.447L145.748,30.018z"/>
			<path d="M153.633,30.018h6.838l-0.548,2.031h-4.484l-0.354,1.305h4.07l-0.5,1.886h-4.07l-0.366,1.366h4.56l-0.536,2.029h-6.898
				L153.633,30.018z"/>
			<path d="M159.727,37.209l1.522-1.59c0.829,0.775,1.694,1.17,2.633,1.17c0.562,0,0.962-0.246,0.962-0.641
				c0-0.332-0.229-0.504-1.425-0.975c-1.354-0.516-2.218-1.107-2.218-2.374c0-1.712,1.533-2.932,3.619-2.932
				c1.499,0,2.682,0.493,3.498,1.282l-1.462,1.648c-0.647-0.568-1.391-0.949-2.256-0.949c-0.572,0-0.926,0.272-0.926,0.615
				c0,0.346,0.256,0.469,1.425,0.938c1.315,0.505,2.221,1.105,2.221,2.398c0,1.773-1.513,2.98-3.634,2.98
				C162.018,38.783,160.641,38.205,159.727,37.209z"/>
		</g>
		<g>
			<polygon fill="#EE3524" points="39.791,0.785 39.636,13.355 39.848,13.355 43.489,0.785 49.821,0.785 46.086,25.619 
				41.44,25.619 43.58,11.309 43.369,11.309 39.39,25.619 36.488,25.619 36.763,11.309 36.581,11.309 34.438,25.619 29.759,25.619 
				33.458,0.785 			"/>
			<path fill="#EE3524" d="M60.706,20.6c-0.276,1.836-0.429,3.146-1.38,4.102c-1.008,1.007-2.658,1.099-5.349,1.099
				c-3.548,0-5.443-0.271-5.443-2.473c0-0.646,0.062-1.562,0.246-2.728l2.201-14.826c0.275-1.804,0.459-3.119,1.313-4.01
				c1.041-1.099,2.755-1.125,5.443-1.125c3.669,0,5.442,0.15,5.442,2.687c0,0.612-0.092,1.407-0.244,2.448L60.706,20.6z M57.8,5.438
				c0-0.521-0.217-0.732-0.767-0.732c-0.673,0-0.796,0.459-0.917,1.222L53.946,20.45c-0.028,0.215-0.028,0.37-0.028,0.518
				c0,0.523,0.181,0.734,0.67,0.734c0.706,0,0.859-0.431,0.98-1.252l2.17-14.523C57.8,5.617,57.8,5.467,57.8,5.438"/>
			<polygon fill="#EE3524" points="75.013,0.785 74.404,4.884 71.712,4.884 68.625,25.619 63.458,25.619 66.543,4.884 63.853,4.884 
				64.464,0.785 			"/>
			<path fill="#EE3524" d="M84.769,20.6c-0.272,1.836-0.427,3.146-1.375,4.102c-1.008,1.007-2.659,1.099-5.351,1.099
				c-3.547,0-5.445-0.271-5.445-2.473c0-0.646,0.062-1.562,0.246-2.728l2.202-14.826c0.275-1.804,0.458-3.119,1.312-4.01
				c1.044-1.099,2.756-1.125,5.443-1.125c3.672,0,5.446,0.15,5.446,2.687c0,0.612-0.092,1.407-0.244,2.448L84.769,20.6z
				 M81.865,5.438c0-0.521-0.215-0.732-0.765-0.732c-0.675,0-0.798,0.459-0.921,1.222L78.01,20.45
				c-0.031,0.215-0.031,0.37-0.031,0.518c0,0.523,0.187,0.734,0.672,0.734c0.705,0,0.859-0.431,0.979-1.252l2.169-14.523
				C81.865,5.617,81.865,5.467,81.865,5.438"/>
			<path fill="#EE3524" d="M95.623,0.788c3.76,0,5.475,0.335,5.475,2.778c0,0.613-0.09,1.382-0.244,2.358l-0.366,2.569
				c-0.397,2.721-0.703,4.186-3.149,5.017c1.374,0.427,1.896,1.159,1.896,2.535c0,0.427-0.029,0.947-0.122,1.496l-1.194,8.075
				h-5.165l1.284-8.534c0.029-0.185,0.029-0.367,0.029-0.55c0-0.578-0.335-0.764-1.103-0.764h-0.366l-1.467,9.848h-5.168
				l3.702-24.83L95.623,0.788L95.623,0.788z M93.299,11.154c0.215,0,0.37,0.029,0.523,0.029c1.1,0,1.162-0.427,1.342-1.652
				l0.458-3.092c0.094-0.576,0.123-0.91,0.123-0.944c0-0.611-0.306-0.702-1.07-0.702h-0.426L93.299,11.154z"/>
		</g>
		<g>
			<polygon fill="#646469" points="117.67,0.785 117.059,4.884 114.367,4.884 111.279,25.619 106.111,25.619 109.203,4.884 
				106.509,4.884 107.123,0.785 			"/>
			<path fill="#646469" d="M124.825,0.788c3.761,0,5.477,0.335,5.477,2.778c0,0.613-0.095,1.382-0.247,2.358l-0.367,2.569
				c-0.396,2.721-0.706,4.186-3.147,5.017c1.374,0.427,1.893,1.159,1.893,2.535c0,0.427-0.025,0.947-0.12,1.496l-1.191,8.075h-5.168
				l1.283-8.534c0.031-0.185,0.031-0.367,0.031-0.55c0-0.578-0.339-0.764-1.103-0.764H121.8l-1.47,9.848h-5.167l3.701-24.83
				L124.825,0.788L124.825,0.788z M122.502,11.154c0.213,0,0.367,0.029,0.522,0.029c1.095,0,1.16-0.427,1.342-1.652l0.458-3.092
				c0.095-0.576,0.124-0.91,0.124-0.944c0-0.611-0.309-0.702-1.069-0.702h-0.428L122.502,11.154z"/>
			<polygon fill="#646469" points="141.033,0.785 140.419,4.793 137.301,4.793 136.536,9.957 139.656,9.957 139.047,13.995 
				135.955,13.995 134.828,21.581 137.912,21.581 137.33,25.619 129.046,25.619 132.744,0.785 			"/>
			<polygon fill="#646469" points="147.758,0.785 148.308,13.512 148.522,13.512 150.453,0.785 154.885,0.785 151.184,25.619 
				146.383,25.619 145.71,13.448 145.498,13.448 143.691,25.619 139.227,25.619 142.932,0.785 			"/>
			<path fill="#646469" d="M162.895,0.785c3.669,0,5.472,0.217,5.472,2.726c0,0.46-0.06,1.253-0.24,2.38l-2.17,14.59
				c-0.279,1.869-0.46,3.146-1.38,4.035c-1.04,1.041-2.692,1.104-5.354,1.104h-5.993l3.706-24.834L162.895,0.785L162.895,0.785z
				 M159.011,21.609c0.212,0,0.366,0.031,0.52,0.031c1.103,0,1.162-0.398,1.315-1.527l2.047-13.758
				c0.095-0.52,0.121-0.797,0.121-0.859c0-0.579-0.271-0.764-1.004-0.764c-0.154,0-0.307,0.031-0.494,0.031L159.011,21.609z"/>
		</g>
		<g>
			<ellipse fill="#7D8589" cx="13.956" cy="39.287" rx="12.715" ry="0.289"/>
			<g>
				
					<linearGradient id="SVGID_1_" gradientUnits="userSpaceOnUse" x1="-3.2954" y1="657.1826" x2="-3.2954" y2="657.3566" gradientTransform="matrix(3.8106 0 0 3.8106 32.2227 -2491.7673)">
					<stop  offset="0.0056" style="stop-color:#FBC926"/>
					<stop  offset="0.2528" style="stop-color:#FFFBCC"/>
					<stop  offset="0.3045" style="stop-color:#F8F0BB"/>
					<stop  offset="0.4072" style="stop-color:#E7D28E"/>
					<stop  offset="0.55" style="stop-color:#CCA246"/>
					<stop  offset="0.5955" style="stop-color:#C3922E"/>
					<stop  offset="0.8708" style="stop-color:#EED688"/>
					<stop  offset="1" style="stop-color:#FFFBCC"/>
				</linearGradient>
				<circle fill="url(#SVGID_1_)" cx="19.664" cy="12.8" r="0.347"/>
				
					<linearGradient id="SVGID_2_" gradientUnits="userSpaceOnUse" x1="-2.4951" y1="662.1943" x2="-7.3526" y2="662.1943" gradientTransform="matrix(3.8106 0 0 3.8106 32.2227 -2491.7673)">
					<stop  offset="0.0056" style="stop-color:#FBC926"/>
					<stop  offset="0.2528" style="stop-color:#FFFBCC"/>
					<stop  offset="0.293" style="stop-color:#FBF6C6"/>
					<stop  offset="0.3467" style="stop-color:#F0E8B5"/>
					<stop  offset="0.4081" style="stop-color:#DDD199"/>
					<stop  offset="0.4752" style="stop-color:#C3B172"/>
					<stop  offset="0.5461" style="stop-color:#A38841"/>
					<stop  offset="0.5955" style="stop-color:#89681A"/>
					<stop  offset="0.6351" style="stop-color:#9B7C2E"/>
					<stop  offset="0.7427" style="stop-color:#C8AC5E"/>
					<stop  offset="0.8246" style="stop-color:#E4CB7D"/>
					<stop  offset="0.8708" style="stop-color:#EED688"/>
					<stop  offset="1" style="stop-color:#FFFBCC"/>
				</linearGradient>
				<rect x="3.567" y="30.41" fill="url(#SVGID_2_)" width="19.452" height="2.351"/>
				
					<linearGradient id="SVGID_3_" gradientUnits="userSpaceOnUse" x1="-4.9565" y1="657.1455" x2="-4.9565" y2="657.3576" gradientTransform="matrix(3.8106 0 0 3.8106 32.2227 -2491.7673)">
					<stop  offset="0.0056" style="stop-color:#FBC926"/>
					<stop  offset="0.2528" style="stop-color:#FFFBCC"/>
					<stop  offset="0.293" style="stop-color:#FBF6C6"/>
					<stop  offset="0.3467" style="stop-color:#F0E8B5"/>
					<stop  offset="0.4081" style="stop-color:#DDD199"/>
					<stop  offset="0.4752" style="stop-color:#C3B172"/>
					<stop  offset="0.5461" style="stop-color:#A38841"/>
					<stop  offset="0.5955" style="stop-color:#89681A"/>
					<stop  offset="0.6351" style="stop-color:#9B7C2E"/>
					<stop  offset="0.7427" style="stop-color:#C8AC5E"/>
					<stop  offset="0.8246" style="stop-color:#E4CB7D"/>
					<stop  offset="0.8708" style="stop-color:#EED688"/>
					<stop  offset="1" style="stop-color:#FFFBCC"/>
				</linearGradient>
				<path fill="url(#SVGID_3_)" d="M11.922,12.518v0.564h2.824c-0.061-0.182-0.113-0.368-0.163-0.564H11.922z"/>
				
					<linearGradient id="SVGID_4_" gradientUnits="userSpaceOnUse" x1="-3.6772" y1="657.1455" x2="-3.6772" y2="657.3576" gradientTransform="matrix(3.8106 0 0 3.8106 32.2227 -2491.7673)">
					<stop  offset="0.0056" style="stop-color:#FBC926"/>
					<stop  offset="0.2528" style="stop-color:#FFFBCC"/>
					<stop  offset="0.293" style="stop-color:#FBF6C6"/>
					<stop  offset="0.3467" style="stop-color:#F0E8B5"/>
					<stop  offset="0.4081" style="stop-color:#DDD199"/>
					<stop  offset="0.4752" style="stop-color:#C3B172"/>
					<stop  offset="0.5461" style="stop-color:#A38841"/>
					<stop  offset="0.5955" style="stop-color:#89681A"/>
					<stop  offset="0.6351" style="stop-color:#9B7C2E"/>
					<stop  offset="0.7427" style="stop-color:#C8AC5E"/>
					<stop  offset="0.8246" style="stop-color:#E4CB7D"/>
					<stop  offset="0.8708" style="stop-color:#EED688"/>
					<stop  offset="1" style="stop-color:#FFFBCC"/>
				</linearGradient>
				<path fill="url(#SVGID_4_)" d="M16.96,13.082h2.501v-0.564h-2.502c0,0.092,0,0.188,0,0.299
					C16.96,12.916,16.96,13.003,16.96,13.082z"/>
				<g>
					<path fill="#485654" d="M23.033,32.611v-2.389H3.37v2.381L3.247,32.88h19.963L23.033,32.611z M3.729,32.604h-0.12v-2.006h0.12
						V32.604z M4.239,32.604H4.12v-2.006h0.119V32.604z M4.74,32.604H4.592v-2.006H4.74V32.604z M5.281,32.604H5.132v-2.006h0.148
						V32.604z M5.841,32.604H5.696v-2.006h0.146V32.604z M6.493,32.604H6.286v-2.006h0.207V32.604z M6.986,32.604H6.779v-2.006
						h0.207V32.604z M7.412,32.604H7.205v-2.006h0.207V32.604z M7.885,32.604H7.678v-2.006h0.207V32.604z M8.418,32.604H8.092
						v-2.006h0.326V32.604z M8.92,32.604H8.595v-2.006h0.326L8.92,32.604L8.92,32.604z M9.397,32.604H9.07v-2.006h0.327V32.604z
						 M9.883,32.604H9.558v-2.006h0.325V32.604z M10.446,32.604h-0.414v-2.006h0.414V32.604z M11.05,32.604h-0.414v-2.006h0.414
						V32.604z M11.639,32.604h-0.415v-2.006h0.415V32.604z M12.297,32.604h-0.503v-2.006h0.504L12.297,32.604L12.297,32.604z
						 M12.958,32.604h-0.503v-2.006h0.503V32.604z M13.6,32.611h-0.504v-2.006H13.6V32.611z M14.281,32.604h-0.503v-2.006h0.503
						V32.604z M14.961,32.604h-0.503v-2.006h0.503V32.604z M15.58,32.604h-0.413v-2.006h0.413V32.604z M16.171,32.604h-0.414v-2.006
						h0.415L16.171,32.604L16.171,32.604z M16.752,32.604h-0.416v-2.006h0.416V32.604z M17.243,32.604h-0.326v-2.006h0.326V32.604z
						 M17.746,32.604H17.42v-2.006h0.325V32.604z M18.22,32.604h-0.327v-2.006h0.327V32.604z M18.708,32.604h-0.326v-2.006h0.326
						V32.604z M19.123,32.604h-0.208v-2.006h0.208V32.604z M19.566,32.604h-0.208v-2.006h0.208V32.604z M19.99,32.604h-0.206v-2.006
						h0.206V32.604z M20.465,32.604h-0.207v-2.006h0.207V32.604z M20.928,32.604h-0.149v-2.006h0.149V32.604z M21.443,32.604h-0.148
						v-2.006h0.148V32.604z M21.975,32.604h-0.147v-2.006h0.147V32.604z M22.448,32.604H22.33v-2.006h0.118V32.604z M22.905,32.604
						h-0.118v-2.006h0.118V32.604z"/>
					
						<linearGradient id="SVGID_5_" gradientUnits="userSpaceOnUse" x1="-8.3511" y1="662.9023" x2="-1.615" y2="662.9023" gradientTransform="matrix(3.8106 0 0 3.8106 32.2227 -2491.7673)">
						<stop  offset="0" style="stop-color:#707070"/>
						<stop  offset="0.023" style="stop-color:#5D5D5D"/>
						<stop  offset="0.0666" style="stop-color:#414141"/>
						<stop  offset="0.1154" style="stop-color:#292929"/>
						<stop  offset="0.1708" style="stop-color:#161616"/>
						<stop  offset="0.2364" style="stop-color:#0A0A0A"/>
						<stop  offset="0.3223" style="stop-color:#020202"/>
						<stop  offset="0.5055" style="stop-color:#000000"/>
						<stop  offset="0.6841" style="stop-color:#020202"/>
						<stop  offset="0.77" style="stop-color:#0A0A0A"/>
						<stop  offset="0.8361" style="stop-color:#171717"/>
						<stop  offset="0.8922" style="stop-color:#292929"/>
						<stop  offset="0.9418" style="stop-color:#414141"/>
						<stop  offset="0.9862" style="stop-color:#5E5E5E"/>
						<stop  offset="1" style="stop-color:#696969"/>
					</linearGradient>
					<path fill="url(#SVGID_5_)" d="M23.321,32.854c-0.242-0.061-0.347-0.092-0.571-0.092H3.92c-0.245,0-0.488,0.031-0.728,0.092
						c-0.022,0.006-0.045,0.011-0.067,0.016c-1.33,0.352-2.498,1.523-2.573,2.941h25.563C26.039,34.213,24.574,33.154,23.321,32.854
						z"/>
					<g>
						<g>
							<path fill="none" stroke="#231F20" stroke-width="0.4916" d="M13.457,4.003"/>
						</g>
						<g>
							<path fill="none" stroke="#000000" stroke-width="0.4916" d="M13.357,3.902"/>
						</g>
					</g>
					
						<linearGradient id="SVGID_6_" gradientUnits="userSpaceOnUse" x1="-7.6152" y1="662.1758" x2="-2.3457" y2="662.1758" gradientTransform="matrix(3.8106 0 0 3.8106 32.2227 -2491.7673)">
						<stop  offset="0.0056" style="stop-color:#FBC926"/>
						<stop  offset="0.2528" style="stop-color:#FFFBCC"/>
						<stop  offset="0.3045" style="stop-color:#F8F0BB"/>
						<stop  offset="0.4072" style="stop-color:#E7D28E"/>
						<stop  offset="0.55" style="stop-color:#CCA246"/>
						<stop  offset="0.5955" style="stop-color:#C3922E"/>
						<stop  offset="0.8708" style="stop-color:#EED688"/>
						<stop  offset="1" style="stop-color:#FFFBCC"/>
					</linearGradient>
					<path fill="url(#SVGID_6_)" d="M23.104,32.577v-2.388H3.328v2.379l-0.124,0.279h20.08L23.104,32.577z M3.688,32.568H3.567
						v-2.004h0.121V32.568z M4.195,32.568H4.076v-2.004h0.119V32.568z M4.698,32.568H4.549v-2.004h0.147L4.698,32.568L4.698,32.568z
						 M5.239,32.568H5.09v-2.004h0.148V32.568z M5.799,32.568H5.653v-2.004H5.8L5.799,32.568L5.799,32.568z M6.451,32.568H6.245
						v-2.004h0.206V32.568z M6.943,32.568H6.736v-2.004h0.206L6.943,32.568L6.943,32.568z M7.37,32.568H7.162v-2.004H7.37V32.568z
						 M7.844,32.568h-0.21v-2.004h0.21V32.568z M8.376,32.568H8.049v-2.004h0.327V32.568z M8.878,32.568H8.551v-2.004h0.327V32.568z
						 M9.353,32.568H9.027v-2.004h0.326V32.568z M9.84,32.568H9.514v-2.004H9.84V32.568z M10.404,32.568H9.991v-2.004h0.413V32.568z
						 M11.008,32.568h-0.415v-2.004h0.415V32.568z M11.596,32.568h-0.414v-2.004h0.414V32.568z M12.254,32.568h-0.503v-2.004h0.503
						V32.568z M12.917,32.568h-0.504v-2.004h0.504V32.568z M13.557,32.577h-0.503v-2.005h0.502L13.557,32.577L13.557,32.577z
						 M14.238,32.568h-0.503v-2.004h0.503V32.568z M14.919,32.568h-0.504v-2.004h0.504V32.568z M15.538,32.568h-0.414v-2.004h0.414
						V32.568z M16.129,32.568h-0.415v-2.004h0.415V32.568z M16.71,32.568h-0.417v-2.004h0.417V32.568z M17.201,32.568h-0.324v-2.004
						h0.324V32.568z M17.704,32.568h-0.326v-2.004h0.326V32.568L17.704,32.568z M18.176,32.568h-0.325v-2.004h0.325V32.568z
						 M18.666,32.568h-0.326v-2.004h0.326V32.568z M19.078,32.568h-0.207v-2.004h0.207V32.568z M19.523,32.568h-0.207v-2.004h0.207
						V32.568z M19.949,32.568h-0.206v-2.004h0.206V32.568z M20.422,32.568h-0.207v-2.004h0.206L20.422,32.568L20.422,32.568z
						 M20.885,32.568h-0.149v-2.004h0.149V32.568z M21.4,32.568h-0.148v-2.004H21.4V32.568z M21.932,32.568h-0.146v-2.004h0.146
						V32.568z M22.407,32.568h-0.118v-2.004h0.118V32.568z M22.862,32.568h-0.119v-2.004h0.119V32.568z"/>
					
						<linearGradient id="SVGID_7_" gradientUnits="userSpaceOnUse" x1="-8.3105" y1="663.7812" x2="-1.6021" y2="663.7812" gradientTransform="matrix(3.8106 0 0 3.8106 32.2227 -2491.7673)">
						<stop  offset="0.0056" style="stop-color:#E8C44E"/>
						<stop  offset="0.2528" style="stop-color:#FFFBCC"/>
						<stop  offset="0.3045" style="stop-color:#F8F0BB"/>
						<stop  offset="0.4072" style="stop-color:#E7D28E"/>
						<stop  offset="0.55" style="stop-color:#CCA246"/>
						<stop  offset="0.5955" style="stop-color:#C3922E"/>
						<stop  offset="0.8708" style="stop-color:#EED688"/>
						<stop  offset="1" style="stop-color:#FFFABC"/>
					</linearGradient>
					<path fill="url(#SVGID_7_)" d="M3.862,39.152h18.946c1.618,0,3.212-1.348,3.309-3.039H0.554
						C0.65,37.805,2.244,39.152,3.862,39.152z"/>
					<g>
						<g>
							
								<linearGradient id="SVGID_8_" gradientUnits="userSpaceOnUse" x1="-7.7041" y1="658.1201" x2="-2.1938" y2="658.1201" gradientTransform="matrix(3.8106 0 0 3.8106 32.2227 -2491.7673)">
								<stop  offset="0.0056" style="stop-color:#DECF84"/>
								<stop  offset="0.2528" style="stop-color:#FFFBCC"/>
								<stop  offset="0.293" style="stop-color:#FBF6C6"/>
								<stop  offset="0.3467" style="stop-color:#F0E8B5"/>
								<stop  offset="0.4081" style="stop-color:#DDD199"/>
								<stop  offset="0.4752" style="stop-color:#C3B172"/>
								<stop  offset="0.5461" style="stop-color:#A38841"/>
								<stop  offset="0.5955" style="stop-color:#89681A"/>
								<stop  offset="0.6351" style="stop-color:#9B7C2E"/>
								<stop  offset="0.7427" style="stop-color:#C8AC5E"/>
								<stop  offset="0.8246" style="stop-color:#E4CB7D"/>
								<stop  offset="0.8708" style="stop-color:#EED688"/>
								<stop  offset="1" style="stop-color:#FFEAB3"/>
							</linearGradient>
							<path fill="url(#SVGID_8_)" d="M19.626,16.701c-1.618-1.018-2.832-1.984-3.557-3.438c-0.203-0.05-0.449-0.152-0.599-0.265
								c-0.055,0.067-0.132,0.11-0.221,0.11c-0.162,0-0.292-0.139-0.292-0.309c0-0.172,0.13-0.311,0.292-0.311
								c0.089,0,0.166,0.045,0.22,0.109c0.07-0.06,0.16-0.113,0.258-0.164c-0.211-0.629-0.346-1.343-0.4-2.174
								c-0.072-1.1-0.659-4.781-0.952-6.568c-0.033-0.196-0.062-0.37-0.086-0.517c-0.044-0.264-0.074-0.433-0.081-0.466
								c-0.046-0.229-0.311-0.25-0.311-0.25l-0.446,0.788l-0.006-0.006c0,0.003,0,0.004,0,0.008
								c0.301,0.046,0.532,0.317,0.532,0.649c0,0.272-0.154,0.508-0.377,0.607c0.204,1.745,0.537,4.788,0.599,5.815
								c0.051,0.836,0.156,1.555,0.314,2.188c0.049,0.195,0.104,0.385,0.163,0.563c0.605,1.825,1.766,2.89,3.586,3.969
								c0.326,0.19,5.061,2.867,4.723,7.394c-0.259,3.479-3.035,4.512-5.507,4.729v0.491l2.281-0.225
								c1.048-0.33,3.826-1.483,4.083-4.967C24.18,19.949,19.946,16.902,19.626,16.701z M12.832,2.463c0,0-0.266,0.021-0.312,0.25
								c-0.008,0.033-0.037,0.208-0.083,0.482C12.412,3.338,12.383,3.51,12.352,3.7c-0.294,1.79-0.878,5.468-0.951,6.563
								c-0.221,3.383-1.773,4.85-4.301,6.438c-0.317,0.201-4.555,3.248-4.218,7.77c0.258,3.482,3.035,4.639,4.085,4.967l2.28,0.226
								v-0.49C6.774,28.954,4,27.923,3.739,24.441c-0.333-4.523,4.398-7.201,4.724-7.392c2.583-1.528,3.841-3.024,4.063-6.723
								c0.06-1.025,0.394-4.063,0.599-5.812c-0.23-0.099-0.393-0.336-0.393-0.611c0-0.338,0.238-0.611,0.546-0.652
								c0-0.002,0.002-0.003,0.003-0.007l-0.004,0.007L12.832,2.463z M11.463,13.116c-0.161,0-0.292-0.142-0.292-0.313
								c0-0.17,0.131-0.309,0.292-0.309c0.163,0,0.293,0.139,0.293,0.309C11.756,12.975,11.625,13.116,11.463,13.116z"/>
						</g>
					</g>
				</g>
				<g>
					<path fill="#485654" d="M26.127,36.215c-0.788,0-24.99,0-25.566,0c-0.326,0-0.306-0.492,0-0.492c0.563,0,24.797,0,25.566,0
						C26.397,35.723,26.438,36.215,26.127,36.215z"/>
				</g>
				
					<radialGradient id="SVGID_9_" cx="-7.1475" cy="657.9443" r="0.9986" gradientTransform="matrix(3.7481 0 0 3.7481 40.7423 -2453.2908)" gradientUnits="userSpaceOnUse">
					<stop  offset="0.0056" style="stop-color:#FBC926"/>
					<stop  offset="0.1868" style="stop-color:#FFFBCC"/>
					<stop  offset="0.2802" style="stop-color:#FBF2BB"/>
					<stop  offset="0.4649" style="stop-color:#F0D98E"/>
					<stop  offset="0.489" style="stop-color:#EED688"/>
					<stop  offset="0.5634" style="stop-color:#EDD485"/>
					<stop  offset="0.6216" style="stop-color:#E8CC7B"/>
					<stop  offset="0.6743" style="stop-color:#E0C06A"/>
					<stop  offset="0.7238" style="stop-color:#D5AE53"/>
					<stop  offset="0.7707" style="stop-color:#C69735"/>
					<stop  offset="0.7802" style="stop-color:#C3922E"/>
					<stop  offset="0.7889" style="stop-color:#D1AA52"/>
					<stop  offset="0.7986" style="stop-color:#DDC073"/>
					<stop  offset="0.8094" style="stop-color:#E8D28F"/>
					<stop  offset="0.8216" style="stop-color:#F0E1A5"/>
					<stop  offset="0.8356" style="stop-color:#F7EDB7"/>
					<stop  offset="0.8527" style="stop-color:#FCF5C3"/>
					<stop  offset="0.876" style="stop-color:#FEFACA"/>
					<stop  offset="0.9341" style="stop-color:#FFFBCC"/>
				</radialGradient>
				<path fill="url(#SVGID_9_)" d="M15.475,12.6c0.043,0.055,0.072,0.123,0.072,0.199s-0.029,0.146-0.07,0.199
					c0.149,0.111,0.396,0.212,0.599,0.264c0.169,0.043,0.308,0.051,0.329-0.001c0.18-0.454,0.244,0.46,0.443,0.46
					c0.15,0,0.151-0.084,0.15-0.644c-0.002-0.078-0.002-0.167-0.002-0.265c0-0.111,0-0.209,0-0.299
					c-0.001-0.691-0.016-0.767-0.139-0.767c-0.208,0-0.233,1.071-0.453,0.562c-0.041-0.096-0.387-0.017-0.672,0.127
					C15.634,12.484,15.544,12.54,15.475,12.6z"/>
				
					<radialGradient id="SVGID_10_" cx="-6.8027" cy="657.9736" r="0.6144" gradientTransform="matrix(3.7481 0 0 3.7481 40.7423 -2453.2908)" gradientUnits="userSpaceOnUse">
					<stop  offset="0.0056" style="stop-color:#FBC926"/>
					<stop  offset="0.2528" style="stop-color:#FFFBCC"/>
					<stop  offset="0.293" style="stop-color:#FBF6C6"/>
					<stop  offset="0.3467" style="stop-color:#F0E8B5"/>
					<stop  offset="0.4081" style="stop-color:#DDD199"/>
					<stop  offset="0.4752" style="stop-color:#C3B172"/>
					<stop  offset="0.5461" style="stop-color:#A38841"/>
					<stop  offset="0.5955" style="stop-color:#89681A"/>
					<stop  offset="0.6351" style="stop-color:#9B7C2E"/>
					<stop  offset="0.7427" style="stop-color:#C8AC5E"/>
					<stop  offset="0.8246" style="stop-color:#E4CB7D"/>
					<stop  offset="0.8708" style="stop-color:#EED688"/>
					<stop  offset="1" style="stop-color:#FFFBCC"/>
				</radialGradient>
				<path fill="url(#SVGID_10_)" d="M16.404,12.311c0,0-0.027-0.158-0.672,0.127c-0.101,0.043-0.188,0.104-0.257,0.162
					c0.043,0.055,0.072,0.123,0.072,0.199s-0.029,0.146-0.07,0.199c0.149,0.111,0.396,0.208,0.599,0.264
					c0.311,0.084,0.329-0.001,0.329-0.001C16.599,12.874,16.575,12.659,16.404,12.311z"/>
				<circle fill="#485654" cx="11.49" cy="12.812" r="0.409"/>
				<path fill="#485654" d="M15.652,12.811c0,0.227-0.185,0.412-0.41,0.412s-0.408-0.187-0.408-0.412
					c0-0.227,0.183-0.408,0.408-0.408S15.652,12.584,15.652,12.811z"/>
				
					<linearGradient id="SVGID_11_" gradientUnits="userSpaceOnUse" x1="-5.4473" y1="657.1621" x2="-5.4473" y2="657.3688" gradientTransform="matrix(3.8106 0 0 3.8106 32.2227 -2491.7673)">
					<stop  offset="0.0056" style="stop-color:#FBC926"/>
					<stop  offset="0.2528" style="stop-color:#FFFBCC"/>
					<stop  offset="0.3045" style="stop-color:#F8F0BB"/>
					<stop  offset="0.4072" style="stop-color:#E7D28E"/>
					<stop  offset="0.55" style="stop-color:#CCA246"/>
					<stop  offset="0.5955" style="stop-color:#C3922E"/>
					<stop  offset="0.8708" style="stop-color:#EED688"/>
					<stop  offset="1" style="stop-color:#FFFBCC"/>
				</linearGradient>
				<circle fill="url(#SVGID_11_)" cx="11.463" cy="12.779" r="0.408"/>
				
					<linearGradient id="SVGID_12_" gradientUnits="userSpaceOnUse" x1="-4.4629" y1="657.1621" x2="-4.4629" y2="657.3676" gradientTransform="matrix(3.8106 0 0 3.8106 32.2227 -2491.7673)">
					<stop  offset="0.0056" style="stop-color:#FBC926"/>
					<stop  offset="0.2528" style="stop-color:#FFFBCC"/>
					<stop  offset="0.3045" style="stop-color:#F8F0BB"/>
					<stop  offset="0.4072" style="stop-color:#E7D28E"/>
					<stop  offset="0.55" style="stop-color:#CCA246"/>
					<stop  offset="0.5955" style="stop-color:#C3922E"/>
					<stop  offset="0.8708" style="stop-color:#EED688"/>
					<stop  offset="1" style="stop-color:#FFFBCC"/>
				</linearGradient>
				<circle fill="url(#SVGID_12_)" cx="15.215" cy="12.779" r="0.409"/>
				
					<linearGradient id="SVGID_13_" gradientUnits="userSpaceOnUse" x1="-2.7896" y1="661.7256" x2="-7.1517" y2="661.7256" gradientTransform="matrix(3.8106 0 0 3.8106 32.2227 -2491.7673)">
					<stop  offset="0.0056" style="stop-color:#FBC926"/>
					<stop  offset="0.2528" style="stop-color:#FFFBCC"/>
					<stop  offset="0.293" style="stop-color:#FBF6C6"/>
					<stop  offset="0.3467" style="stop-color:#F0E8B5"/>
					<stop  offset="0.4081" style="stop-color:#DDD199"/>
					<stop  offset="0.4752" style="stop-color:#C3B172"/>
					<stop  offset="0.5461" style="stop-color:#A38841"/>
					<stop  offset="0.5955" style="stop-color:#89681A"/>
					<stop  offset="0.6351" style="stop-color:#9B7C2E"/>
					<stop  offset="0.7427" style="stop-color:#C8AC5E"/>
					<stop  offset="0.8246" style="stop-color:#E4CB7D"/>
					<stop  offset="0.8708" style="stop-color:#EED688"/>
					<stop  offset="1" style="stop-color:#FFFBCC"/>
				</linearGradient>
				<polygon fill="url(#SVGID_13_)" points="21.305,29.41 5.318,29.41 4.598,30.189 22.115,30.189 				"/>
				
					<linearGradient id="SVGID_14_" gradientUnits="userSpaceOnUse" x1="-5.5522" y1="654.4453" x2="-4.3099" y2="654.4453" gradientTransform="matrix(3.8106 0 0 3.8106 32.2227 -2491.7673)">
					<stop  offset="0.0056" style="stop-color:#FBC926"/>
					<stop  offset="0.2528" style="stop-color:#FFFBCC"/>
					<stop  offset="0.293" style="stop-color:#FBF6C6"/>
					<stop  offset="0.3467" style="stop-color:#F0E8B5"/>
					<stop  offset="0.4081" style="stop-color:#DDD199"/>
					<stop  offset="0.4752" style="stop-color:#C3B172"/>
					<stop  offset="0.5461" style="stop-color:#A38841"/>
					<stop  offset="0.5955" style="stop-color:#89681A"/>
					<stop  offset="0.6351" style="stop-color:#9B7C2E"/>
					<stop  offset="0.7427" style="stop-color:#C8AC5E"/>
					<stop  offset="0.8246" style="stop-color:#E4CB7D"/>
					<stop  offset="0.8708" style="stop-color:#EED688"/>
					<stop  offset="1" style="stop-color:#FFFBCC"/>
				</linearGradient>
				<path fill="url(#SVGID_14_)" d="M12.066,2.229c0-0.754,0.578-1.367,1.294-1.367c0.713,0,1.292,0.613,1.292,1.367
					c0,0.369-0.141,0.701-0.361,0.947c0.024,0.145,0.052,0.317,0.084,0.516c0.423-0.33,0.699-0.859,0.699-1.457
					c0-1.002-0.769-1.811-1.712-1.811c-0.945,0-1.711,0.811-1.711,1.811c0,0.603,0.277,1.135,0.704,1.463
					c0.031-0.19,0.06-0.362,0.085-0.506C12.208,2.943,12.066,2.604,12.066,2.229z"/>
				<circle fill="#485654" cx="13.369" cy="3.921" r="0.676"/>
				
					<linearGradient id="SVGID_15_" gradientUnits="userSpaceOnUse" x1="-4.9521" y1="654.7471" x2="-4.9521" y2="655.0992" gradientTransform="matrix(3.8106 0 0 3.8106 32.2227 -2491.7673)">
					<stop  offset="0.0056" style="stop-color:#FBC926"/>
					<stop  offset="0.2528" style="stop-color:#FFFBCC"/>
					<stop  offset="0.293" style="stop-color:#FBF6C6"/>
					<stop  offset="0.3467" style="stop-color:#F0E8B5"/>
					<stop  offset="0.4081" style="stop-color:#DDD199"/>
					<stop  offset="0.4752" style="stop-color:#C3B172"/>
					<stop  offset="0.5461" style="stop-color:#A38841"/>
					<stop  offset="0.5955" style="stop-color:#89681A"/>
					<stop  offset="0.6351" style="stop-color:#9B7C2E"/>
					<stop  offset="0.7427" style="stop-color:#C8AC5E"/>
					<stop  offset="0.8246" style="stop-color:#E4CB7D"/>
					<stop  offset="0.8708" style="stop-color:#EED688"/>
					<stop  offset="1" style="stop-color:#FFFBCC"/>
				</linearGradient>
				<path fill="url(#SVGID_15_)" d="M14.008,3.912c0,0.365-0.294,0.658-0.657,0.658s-0.658-0.293-0.658-0.658
					c0-0.361,0.294-0.655,0.658-0.655C13.714,3.257,14.008,3.551,14.008,3.912z"/>
				<g>
					
						<linearGradient id="SVGID_16_" gradientUnits="userSpaceOnUse" x1="-4.9575" y1="663.2646" x2="-4.9575" y2="663.5303" gradientTransform="matrix(3.8106 0 0 3.8106 32.2227 -2491.7673)">
						<stop  offset="0.0056" style="stop-color:#FBC926"/>
						<stop  offset="0.2528" style="stop-color:#FFFBCC"/>
						<stop  offset="0.293" style="stop-color:#FBF6C6"/>
						<stop  offset="0.3467" style="stop-color:#F0E8B5"/>
						<stop  offset="0.4081" style="stop-color:#DDD199"/>
						<stop  offset="0.4752" style="stop-color:#C3B172"/>
						<stop  offset="0.5461" style="stop-color:#A38841"/>
						<stop  offset="0.5955" style="stop-color:#89681A"/>
						<stop  offset="0.6351" style="stop-color:#9B7C2E"/>
						<stop  offset="0.7427" style="stop-color:#C8AC5E"/>
						<stop  offset="0.8246" style="stop-color:#E4CB7D"/>
						<stop  offset="0.8708" style="stop-color:#EED688"/>
						<stop  offset="1" style="stop-color:#FFFBCC"/>
					</linearGradient>
					<path fill="url(#SVGID_16_)" d="M26.127,36.184c-0.788,0-24.998,0-25.573,0c-0.329,0-0.307-0.492,0-0.492
						c0.563,0,24.804,0,25.573,0C26.397,35.691,26.438,36.184,26.127,36.184z"/>
				</g>
			</g>
		</g>
	</g>
	<g>
		<path fill="#FFFFFF" d="M168.147,1.902V1.896c0-0.506,0.41-0.933,0.928-0.933c0.521,0,0.925,0.42,0.925,0.927v0.006
			c0,0.506-0.408,0.932-0.925,0.932C168.552,2.828,168.147,2.406,168.147,1.902z M169.894,1.896V1.891
			c0-0.451-0.353-0.826-0.818-0.826c-0.464,0-0.819,0.379-0.819,0.832v0.006c0,0.451,0.352,0.822,0.819,0.822
			C169.538,2.727,169.894,2.348,169.894,1.896z M168.713,1.406h0.426c0.207,0,0.36,0.101,0.36,0.299c0,0.154-0.09,0.249-0.217,0.288
			l0.248,0.354h-0.217l-0.225-0.324h-0.195v0.324h-0.18L168.713,1.406L168.713,1.406L168.713,1.406z M169.121,1.875
			c0.124,0,0.191-0.064,0.191-0.154c0-0.102-0.068-0.154-0.191-0.154h-0.228v0.31L169.121,1.875L169.121,1.875z"/>
	</g>
</g>
</svg>
