<?xml version="1.0" encoding="utf-8"?>
<!-- Generator: Adobe Illustrator 14.0.0, SVG Export Plug-In . SVG Version: 6.00 Build 43363)  -->
<!DOCTYPE svg PUBLIC "-//W3C//DTD SVG 1.1//EN" "http://www.w3.org/Graphics/SVG/1.1/DTD/svg11.dtd">
<svg version="1.1" id="Layer_1" xmlns="http://www.w3.org/2000/svg" xmlns:xlink="http://www.w3.org/1999/xlink" x="0px" y="0px"
	 width="100px" height="100px" viewBox="0 0 100 100" enable-background="new 0 0 100 100" xml:space="preserve">
<g>
	<path fill="#6D6E70" d="M50.001,76.94c-14.854,0-26.942-12.086-26.942-26.938c0-14.859,12.087-26.945,26.942-26.945
		c14.853,0,26.938,12.086,26.938,26.945C76.938,64.854,64.854,76.94,50.001,76.94 M50.001,29.464
		c-11.326,0-20.538,9.211-20.538,20.538c0,11.323,9.212,20.537,20.538,20.537c11.323,0,20.532-9.214,20.532-20.537
		C70.533,38.675,61.324,29.464,50.001,29.464"/>
	<path fill="#6D6E70" d="M53.122,15.8c0,1.723-1.398,3.123-3.123,3.123s-3.121-1.4-3.121-3.123V3.12c0-1.72,1.396-3.12,3.121-3.12
		s3.123,1.4,3.123,3.12V15.8z"/>
	<path fill="#6D6E70" d="M53.122,96.873c0,1.727-1.398,3.127-3.123,3.127s-3.121-1.4-3.121-3.127V84.204
		c0-1.733,1.396-3.133,3.121-3.133s3.123,1.399,3.123,3.133V96.873z"/>
	<path fill="#6D6E70" d="M76.386,28.024c-1.209,1.219-3.188,1.219-4.413,0c-1.213-1.222-1.213-3.193,0-4.418l8.964-8.962
		c1.221-1.219,3.197-1.219,4.414,0c1.225,1.215,1.225,3.196,0,4.414L76.386,28.024z"/>
	<path fill="#6D6E70" d="M19.063,85.353c-1.219,1.225-3.199,1.225-4.416,0c-1.221-1.22-1.221-3.199,0-4.414l8.962-8.966
		c1.223-1.219,3.193-1.219,4.418,0c1.216,1.225,1.216,3.196,0,4.421L19.063,85.353z"/>
	<path fill="#6D6E70" d="M84.198,53.122c-1.728,0-3.125-1.4-3.125-3.12c0-1.727,1.397-3.127,3.125-3.127h12.675
		c1.725,0,3.127,1.4,3.127,3.127c0,1.72-1.402,3.12-3.127,3.12H84.198z"/>
	<path fill="#6D6E70" d="M3.125,53.122c-1.721,0-3.125-1.4-3.125-3.12c0-1.727,1.404-3.127,3.125-3.127h12.677
		c1.727,0,3.125,1.4,3.125,3.127c0,1.72-1.398,3.12-3.125,3.12H3.125z"/>
	<path fill="#6D6E70" d="M71.973,76.394c-1.217-1.225-1.217-3.196,0-4.421c1.225-1.219,3.204-1.219,4.413,0l8.967,8.966
		c1.223,1.215,1.223,3.198,0,4.414c-1.219,1.225-3.193,1.225-4.418,0L71.973,76.394z"/>
	<path fill="#6D6E70" d="M14.647,19.059c-1.223-1.218-1.223-3.195,0-4.411c1.219-1.222,3.195-1.222,4.416,0l8.966,8.959
		c1.214,1.225,1.214,3.196,0,4.418c-1.225,1.219-3.203,1.219-4.42,0L14.647,19.059z"/>
</g>
</svg>
