<?xml version="1.0" encoding="utf-8"?>
<!-- Generator: Adobe Illustrator 14.0.0, SVG Export Plug-In . SVG Version: 6.00 Build 43363)  -->
<!DOCTYPE svg PUBLIC "-//W3C//DTD SVG 1.1//EN" "http://www.w3.org/Graphics/SVG/1.1/DTD/svg11.dtd">
<svg version="1.1" id="Layer_1" xmlns="http://www.w3.org/2000/svg" xmlns:xlink="http://www.w3.org/1999/xlink" x="0px" y="0px"
	 width="100px" height="100px" viewBox="0 0 100 100" enable-background="new 0 0 100 100" xml:space="preserve">
<g>
	<path fill="#BBBDBF" d="M29.802,40.323c3.305-4.02,10.564-9.021,26.23-9.021c19.241,0,26.499,6.405,28.709,9.947l9.077,1.344
		c1.691,0.567,2.632,1.364,3.227,3.226L100,58.413c0,1.783-1.443,3.227-3.226,3.227h-6.339c0-6.125-4.964-11.09-11.091-11.09
		s-11.091,4.965-11.091,11.09H27.569c0-6.125-4.967-11.09-11.093-11.09S5.388,55.515,5.388,61.64H5.034
		C1.824,59.536,0,57.134,0,54.581C0,47.885,12.535,42.219,29.802,40.323"/>
	<path fill="#BBBDBF" d="M72.288,61.64c0,3.897,3.159,7.059,7.057,7.059s7.059-3.161,7.059-7.059s-3.161-7.059-7.059-7.059
		S72.288,57.742,72.288,61.64"/>
	<path fill="#BBBDBF" d="M9.42,61.64c0,3.897,3.158,7.059,7.057,7.059s7.059-3.161,7.059-7.059s-3.16-7.059-7.059-7.059
		S9.42,57.742,9.42,61.64"/>
</g>
</svg>
