<?xml version="1.0" encoding="utf-8"?>
<!-- Generator: Adobe Illustrator 14.0.0, SVG Export Plug-In . SVG Version: 6.00 Build 43363)  -->
<!DOCTYPE svg PUBLIC "-//W3C//DTD SVG 1.1//EN" "http://www.w3.org/Graphics/SVG/1.1/DTD/svg11.dtd">
<svg version="1.1" id="Layer_1" xmlns="http://www.w3.org/2000/svg" xmlns:xlink="http://www.w3.org/1999/xlink" x="0px" y="0px"
	 width="100px" height="100px" viewBox="0 0 100 100" enable-background="new 0 0 100 100" xml:space="preserve">
<g>
	<path fill="#6D6E70" d="M90.361,53.504c-7.607-8.219-5.174-14.035-4.764-16.234c-3.895-0.977-7.506-1.9-7.506-1.9l-0.127,0.514
		L67.361,78.479c0,0-1.538-2.432-6.994-3.918c-0.076-0.029-0.151-0.029-0.229-0.051c-5.558-1.387-16.776,0.332-19.107,9.652
		c-2.357,9.479,8.145,14.191,12.986,15.266c2.688,0.666,15.469,2.514,18.004-7.631c0.23-0.973,0.488-1.973,0.719-2.971
		c2.406-9.605,5.121-20.566,5.121-20.566s1.203-0.311,2.74,0.078c1.666,0.406,3.713,1.637,5.125,4.967
		c2.662,6.404-3.281,13.164-3.281,13.164l1.822,3.588c0,0,12.395-4.15,14.47-12.447C100.812,69.281,97.994,61.727,90.361,53.504z"/>
	<path fill="#6D6E70" d="M46.051,39.854c2.127,0.205,4.892,1.332,7.222,5.125c4.482,7.324-1.536,16.748-1.536,16.748l2.894,4.021
		c0,0,14.42-7.4,15.368-17.98c0.972-10.551-3.894-19.26-14.779-27.867c-10.858-8.629-8.989-16.188-8.887-18.977
		C41.388,0.461,36.805,0,36.805,0l-0.076,0.666l-4.943,54.119c0,0-2.331-2.689-9.297-3.484c-0.104-0.021-0.206-0.021-0.309-0.021
		c-7.043-0.643-20.438,3.559-21.516,15.418c-1.1,12.035,12.628,15.801,18.773,16.238c3.382,0.307,19.365,0.129,20.543-12.758
		c0.127-1.227,0.23-2.482,0.359-3.762c1.099-12.191,2.383-26.127,2.383-26.127S44.105,39.701,46.051,39.854z"/>
</g>
</svg>
