<?xml version="1.0" encoding="utf-8"?>
<!-- Generator: Adobe Illustrator 14.0.0, SVG Export Plug-In . SVG Version: 6.00 Build 43363)  -->
<!DOCTYPE svg PUBLIC "-//W3C//DTD SVG 1.1//EN" "http://www.w3.org/Graphics/SVG/1.1/DTD/svg11.dtd">
<svg version="1.1" id="Layer_1" xmlns="http://www.w3.org/2000/svg" xmlns:xlink="http://www.w3.org/1999/xlink" x="0px" y="0px"
	 width="100px" height="100px" viewBox="0 0 100 100" enable-background="new 0 0 100 100" xml:space="preserve">
<path fill="#6D6E70" d="M76.219,39c0-7.311-0.002-13.174-0.002-13.236C75.975,11.555,64.215,0,50,0
	C35.691,0,24.18,11.194,23.793,25.497c-0.002,0.098-0.004,6.096-0.006,13.504c-6.688,0.682-11.9,6.328-11.9,13.189v34.549
	c0,7.328,5.938,13.262,13.262,13.262h49.705c7.324,0,13.26-5.934,13.26-13.262V52.189C88.113,45.329,82.9,39.684,76.219,39
	 M50,10.303c8.59,0,15.574,6.727,15.898,15.264c0.004,0.266,0.006,6.123,0.01,13.363H34.098c0-7.227,0.004-13.072,0.006-13.33
	C34.432,17.03,41.416,10.303,50,10.303 M45.773,80.158v-6.992c-3.293-1.576-5.568-4.93-5.568-8.824c0-5.412,4.385-9.799,9.795-9.799
	c5.412,0,9.799,4.387,9.799,9.799c0,3.895-2.279,7.248-5.574,8.824c0,2.846,0,6.973,0,6.992c0,0.959-0.326,1.83-0.863,2.539
	c-1.084,0.232-2.205,0.365-3.361,0.365c-1.154,0-2.275-0.133-3.363-0.365C46.102,81.988,45.773,81.117,45.773,80.158"/>
</svg>
