<?xml version="1.0" encoding="utf-8"?>
<!-- Generator: Adobe Illustrator 14.0.0, SVG Export Plug-In . SVG Version: 6.00 Build 43363)  -->
<!DOCTYPE svg PUBLIC "-//W3C//DTD SVG 1.1//EN" "http://www.w3.org/Graphics/SVG/1.1/DTD/svg11.dtd">
<svg version="1.1" id="Layer_1" xmlns="http://www.w3.org/2000/svg" xmlns:xlink="http://www.w3.org/1999/xlink" x="0px" y="0px"
	 width="170px" height="40px" viewBox="415 112 170 40" enable-background="new 415 112 170 40" xml:space="preserve">
<g>
	<g>
		<g>
			<path fill="#FFFFFF" d="M444.467,147.039c0-2.547,2.048-5.193,5.326-5.193c1.744,0,2.949,0.848,3.461,2.18l-2.047,1.107
				c-0.341-0.701-0.878-1.107-1.718-1.107c-1.414,0-2.548,1.34-2.548,2.842c0,1.096,0.719,1.773,1.706,1.773
				c0.743,0,1.28-0.32,1.828-0.873l1.597,1.428c-0.829,0.947-1.95,1.611-3.57,1.611
				C446.137,150.807,444.467,149.344,444.467,147.039z"/>
			<path fill="#FFFFFF" d="M455.215,142.018h6.838l-0.549,2.031h-4.485l-0.353,1.305h4.07l-0.5,1.885h-4.071l-0.365,1.366h4.558
				l-0.535,2.03h-6.898L455.215,142.018z"/>
			<path fill="#FFFFFF" d="M463.733,142.018h3.218c1.426,0,2.364,0.32,2.937,0.898c0.451,0.457,0.658,1.07,0.658,1.761
				c0,1.44-0.816,2.574-2.559,3.053l1.316,2.907h-2.609l-1.134-2.61h-1.048l-0.695,2.61h-2.376L463.733,142.018z M466.354,146.155
				c1.06,0,1.755-0.456,1.755-1.194c0-0.233-0.073-0.42-0.219-0.58c-0.195-0.197-0.549-0.295-1.048-0.295h-1.28l-0.56,2.069
				C465.001,146.155,466.354,146.155,466.354,146.155z"/>
			<path fill="#FFFFFF" d="M474.067,144.111h-2.559l0.561-2.093h7.471l-0.549,2.093h-2.559l-1.731,6.523h-2.376L474.067,144.111z"/>
			<path fill="#FFFFFF" d="M480.917,142.018h2.364l-2.291,8.618h-2.364L480.917,142.018z"/>
			<path fill="#FFFFFF" d="M485.181,142.018h6.826l-0.561,2.094h-4.449l-0.39,1.463h4.022l-0.524,1.983h-4.021l-0.817,3.077h-2.376
				L485.181,142.018z"/>
			<path fill="#FFFFFF" d="M493.552,142.018h2.366l-2.292,8.618h-2.366L493.552,142.018z"/>
			<path fill="#FFFFFF" d="M497.819,142.018h6.836l-0.549,2.031h-4.485l-0.354,1.305h4.07l-0.498,1.885h-4.071l-0.366,1.366h4.559
				l-0.535,2.03h-6.898L497.819,142.018z"/>
			<path fill="#FFFFFF" d="M506.336,142.018h2.755c1.657,0,2.693,0.455,3.34,1.109c0.633,0.639,0.926,1.477,0.926,2.522
				c0,1.292-0.488,2.474-1.4,3.397c-1.025,1.033-2.498,1.588-4.474,1.588h-3.438L506.336,142.018z M507.763,148.518
				c0.986,0,1.876-0.309,2.437-0.873c0.45-0.457,0.731-1.121,0.731-1.799c0-0.528-0.158-0.91-0.426-1.182
				c-0.318-0.333-0.842-0.529-1.671-0.529h-0.681l-1.17,4.383H507.763L507.763,148.518z"/>
			<path fill="#FFFFFF" d="M518.899,142.018h2.584l0.477,5.416l3.35-5.416h2.67l-5.738,8.68h-2.209L518.899,142.018z"/>
			<path fill="#FFFFFF" d="M529.088,142.018h6.837l-0.547,2.031h-4.486l-0.354,1.305h4.071l-0.499,1.885h-4.07l-0.365,1.366h4.557
				l-0.535,2.03h-6.898L529.088,142.018z"/>
			<path fill="#FFFFFF" d="M537.606,142.018h2.376l-0.865,3.225h3.011l0.852-3.225h2.377l-2.289,8.618h-2.378l0.878-3.274h-3.01
				l-0.865,3.274h-2.377L537.606,142.018z"/>
			<path fill="#FFFFFF" d="M547.257,142.018h2.365l-2.292,8.618h-2.364L547.257,142.018z"/>
			<path fill="#FFFFFF" d="M550.001,147.039c0-2.547,2.047-5.193,5.324-5.193c1.743,0,2.949,0.848,3.461,2.18l-2.047,1.107
				c-0.342-0.701-0.877-1.107-1.717-1.107c-1.415,0-2.549,1.34-2.549,2.842c0,1.096,0.719,1.773,1.707,1.773
				c0.742,0,1.279-0.32,1.827-0.873l1.597,1.428c-0.828,0.947-1.949,1.611-3.57,1.611
				C551.669,150.807,550.001,149.344,550.001,147.039z"/>
			<path fill="#FFFFFF" d="M560.747,142.018h2.377l-1.73,6.524h4.07l-0.561,2.094h-6.447L560.747,142.018z"/>
			<path fill="#FFFFFF" d="M568.632,142.018h6.838l-0.548,2.031h-4.485l-0.353,1.305h4.07l-0.5,1.885h-4.07l-0.366,1.366h4.559
				l-0.536,2.03h-6.898L568.632,142.018z"/>
			<path fill="#FFFFFF" d="M574.726,149.209l1.522-1.59c0.829,0.776,1.694,1.17,2.633,1.17c0.561,0,0.962-0.246,0.962-0.641
				c0-0.332-0.23-0.504-1.425-0.974c-1.354-0.516-2.218-1.108-2.218-2.374c0-1.712,1.533-2.932,3.619-2.932
				c1.499,0,2.682,0.494,3.498,1.282l-1.461,1.649c-0.648-0.568-1.391-0.949-2.256-0.949c-0.573,0-0.926,0.272-0.926,0.615
				c0,0.346,0.256,0.469,1.425,0.938c1.315,0.504,2.22,1.105,2.22,2.398c0,1.773-1.512,2.98-3.633,2.98
				C577.017,150.783,575.64,150.205,574.726,149.209z"/>
		</g>
		<g>
			<polygon fill="#EE3524" points="454.79,112.785 454.636,125.355 454.848,125.355 458.488,112.785 464.82,112.785 
				461.086,137.619 456.439,137.619 458.579,123.309 458.368,123.309 454.39,137.619 451.487,137.619 451.763,123.309 
				451.58,123.309 449.437,137.619 444.759,137.619 448.457,112.785 			"/>
			<path fill="#EE3524" d="M475.705,132.6c-0.276,1.836-0.429,3.146-1.38,4.101c-1.008,1.007-2.658,1.099-5.348,1.099
				c-3.548,0-5.444-0.27-5.444-2.473c0-0.646,0.062-1.562,0.246-2.727l2.201-14.826c0.276-1.804,0.459-3.12,1.314-4.01
				c1.041-1.099,2.755-1.126,5.443-1.126c3.669,0,5.443,0.151,5.443,2.687c0,0.613-0.092,1.407-0.244,2.449L475.705,132.6z
				 M472.8,117.437c0-0.521-0.217-0.732-0.767-0.732c-0.673,0-0.796,0.459-0.917,1.222l-2.171,14.523
				c-0.028,0.215-0.028,0.371-0.028,0.518c0,0.523,0.181,0.734,0.67,0.734c0.706,0,0.859-0.43,0.98-1.252l2.17-14.523
				C472.8,117.617,472.8,117.467,472.8,117.437"/>
			<polygon fill="#EE3524" points="490.013,112.785 489.403,116.884 486.712,116.884 483.624,137.619 478.458,137.619 
				481.543,116.884 478.853,116.884 479.464,112.785 			"/>
			<path fill="#EE3524" d="M499.769,132.6c-0.273,1.836-0.427,3.146-1.375,4.101c-1.008,1.007-2.66,1.099-5.351,1.099
				c-3.547,0-5.445-0.27-5.445-2.473c0-0.646,0.062-1.562,0.246-2.727l2.202-14.826c0.275-1.804,0.458-3.12,1.312-4.01
				c1.044-1.099,2.756-1.126,5.444-1.126c3.672,0,5.445,0.151,5.445,2.687c0,0.613-0.092,1.407-0.244,2.449L499.769,132.6z
				 M496.864,117.437c0-0.521-0.215-0.732-0.764-0.732c-0.675,0-0.798,0.459-0.921,1.222l-2.169,14.523
				c-0.031,0.215-0.031,0.371-0.031,0.518c0,0.523,0.186,0.734,0.671,0.734c0.705,0,0.86-0.43,0.98-1.252l2.169-14.523
				C496.864,117.617,496.864,117.467,496.864,117.437"/>
			<path fill="#EE3524" d="M510.622,112.788c3.76,0,5.475,0.335,5.475,2.779c0,0.613-0.09,1.381-0.244,2.358l-0.367,2.569
				c-0.397,2.721-0.703,4.186-3.149,5.017c1.374,0.426,1.896,1.159,1.896,2.535c0,0.427-0.029,0.947-0.122,1.496l-1.194,8.075
				h-5.165l1.284-8.534c0.029-0.184,0.029-0.367,0.029-0.55c0-0.578-0.335-0.763-1.102-0.763h-0.366l-1.467,9.847h-5.168
				l3.702-24.83H510.622L510.622,112.788z M508.298,123.154c0.215,0,0.37,0.029,0.523,0.029c1.1,0,1.162-0.426,1.342-1.652
				l0.458-3.091c0.094-0.577,0.123-0.91,0.123-0.945c0-0.611-0.306-0.702-1.07-0.702h-0.426L508.298,123.154z"/>
		</g>
		<g>
			<polygon fill="#646469" points="532.669,112.785 532.058,116.884 529.366,116.884 526.278,137.619 521.11,137.619 
				524.202,116.884 521.508,116.884 522.122,112.785 			"/>
			<path fill="#646469" d="M539.824,112.788c3.761,0,5.477,0.335,5.477,2.779c0,0.613-0.095,1.381-0.247,2.358l-0.367,2.569
				c-0.396,2.721-0.706,4.186-3.148,5.017c1.374,0.426,1.893,1.159,1.893,2.535c0,0.427-0.026,0.947-0.12,1.496l-1.192,8.075h-5.168
				l1.283-8.534c0.032-0.184,0.032-0.367,0.032-0.55c0-0.578-0.339-0.763-1.103-0.763h-0.365l-1.47,9.847h-5.167l3.701-24.83
				H539.824L539.824,112.788z M537.501,123.154c0.213,0,0.367,0.029,0.522,0.029c1.095,0,1.161-0.426,1.342-1.652l0.458-3.091
				c0.095-0.577,0.124-0.91,0.124-0.945c0-0.611-0.308-0.702-1.069-0.702h-0.428L537.501,123.154z"/>
			<polygon fill="#646469" points="556.032,112.785 555.418,116.793 552.3,116.793 551.535,121.957 554.655,121.957 
				554.046,125.995 550.954,125.995 549.827,133.581 552.911,133.581 552.329,137.619 544.045,137.619 547.743,112.785 			"/>
			<polygon fill="#646469" points="562.757,112.785 563.307,125.512 563.521,125.512 565.452,112.785 569.884,112.785 
				566.183,137.619 561.382,137.619 560.709,125.448 560.497,125.448 558.69,137.619 554.226,137.619 557.931,112.785 			"/>
			<path fill="#646469" d="M577.894,112.785c3.668,0,5.471,0.217,5.471,2.726c0,0.459-0.059,1.252-0.24,2.38l-2.17,14.59
				c-0.279,1.869-0.46,3.146-1.38,4.035c-1.04,1.04-2.692,1.104-5.353,1.104h-5.993l3.706-24.834H577.894z M574.01,133.61
				c0.212,0,0.366,0.031,0.519,0.031c1.103,0,1.162-0.399,1.316-1.528l2.047-13.757c0.094-0.52,0.121-0.798,0.121-0.86
				c0-0.579-0.272-0.764-1.004-0.764c-0.154,0-0.307,0.031-0.494,0.031L574.01,133.61z"/>
		</g>
		<g>
			<ellipse fill="#7D8589" cx="428.955" cy="151.287" rx="12.715" ry="0.289"/>
			<g>
				
					<linearGradient id="SVGID_1_" gradientUnits="userSpaceOnUse" x1="12.6147" y1="-517.9019" x2="12.6147" y2="-518.0759" gradientTransform="matrix(3.8106 0 0 -3.8106 386.5938 -1849.0259)">
					<stop  offset="0.0056" style="stop-color:#FBC926"/>
					<stop  offset="0.2528" style="stop-color:#FFFBCC"/>
					<stop  offset="0.3045" style="stop-color:#F8F0BB"/>
					<stop  offset="0.4072" style="stop-color:#E7D28E"/>
					<stop  offset="0.55" style="stop-color:#CCA246"/>
					<stop  offset="0.5955" style="stop-color:#C3922E"/>
					<stop  offset="0.8708" style="stop-color:#EED688"/>
					<stop  offset="1" style="stop-color:#FFFBCC"/>
				</linearGradient>
				<circle fill="url(#SVGID_1_)" cx="434.663" cy="124.8" r="0.347"/>
				
					<linearGradient id="SVGID_2_" gradientUnits="userSpaceOnUse" x1="13.4155" y1="-522.9126" x2="8.5576" y2="-522.9126" gradientTransform="matrix(3.8106 0 0 -3.8106 386.5938 -1849.0259)">
					<stop  offset="0.0056" style="stop-color:#FBC926"/>
					<stop  offset="0.2528" style="stop-color:#FFFBCC"/>
					<stop  offset="0.293" style="stop-color:#FBF6C6"/>
					<stop  offset="0.3467" style="stop-color:#F0E8B5"/>
					<stop  offset="0.4081" style="stop-color:#DDD199"/>
					<stop  offset="0.4752" style="stop-color:#C3B172"/>
					<stop  offset="0.5461" style="stop-color:#A38841"/>
					<stop  offset="0.5955" style="stop-color:#89681A"/>
					<stop  offset="0.6351" style="stop-color:#9B7C2E"/>
					<stop  offset="0.7427" style="stop-color:#C8AC5E"/>
					<stop  offset="0.8246" style="stop-color:#E4CB7D"/>
					<stop  offset="0.8708" style="stop-color:#EED688"/>
					<stop  offset="1" style="stop-color:#FFFBCC"/>
				</linearGradient>
				<rect x="418.566" y="142.41" fill="url(#SVGID_2_)" width="19.453" height="2.351"/>
				
					<linearGradient id="SVGID_3_" gradientUnits="userSpaceOnUse" x1="10.9541" y1="-517.8657" x2="10.9541" y2="-518.0778" gradientTransform="matrix(3.8106 0 0 -3.8106 386.5938 -1849.0259)">
					<stop  offset="0.0056" style="stop-color:#FBC926"/>
					<stop  offset="0.2528" style="stop-color:#FFFBCC"/>
					<stop  offset="0.293" style="stop-color:#FBF6C6"/>
					<stop  offset="0.3467" style="stop-color:#F0E8B5"/>
					<stop  offset="0.4081" style="stop-color:#DDD199"/>
					<stop  offset="0.4752" style="stop-color:#C3B172"/>
					<stop  offset="0.5461" style="stop-color:#A38841"/>
					<stop  offset="0.5955" style="stop-color:#89681A"/>
					<stop  offset="0.6351" style="stop-color:#9B7C2E"/>
					<stop  offset="0.7427" style="stop-color:#C8AC5E"/>
					<stop  offset="0.8246" style="stop-color:#E4CB7D"/>
					<stop  offset="0.8708" style="stop-color:#EED688"/>
					<stop  offset="1" style="stop-color:#FFFBCC"/>
				</linearGradient>
				<path fill="url(#SVGID_3_)" d="M426.922,124.518v0.564h2.824c-0.06-0.182-0.113-0.368-0.163-0.564H426.922z"/>
				
					<linearGradient id="SVGID_4_" gradientUnits="userSpaceOnUse" x1="12.2339" y1="-517.8657" x2="12.2339" y2="-518.0778" gradientTransform="matrix(3.8106 0 0 -3.8106 386.5938 -1849.0259)">
					<stop  offset="0.0056" style="stop-color:#FBC926"/>
					<stop  offset="0.2528" style="stop-color:#FFFBCC"/>
					<stop  offset="0.293" style="stop-color:#FBF6C6"/>
					<stop  offset="0.3467" style="stop-color:#F0E8B5"/>
					<stop  offset="0.4081" style="stop-color:#DDD199"/>
					<stop  offset="0.4752" style="stop-color:#C3B172"/>
					<stop  offset="0.5461" style="stop-color:#A38841"/>
					<stop  offset="0.5955" style="stop-color:#89681A"/>
					<stop  offset="0.6351" style="stop-color:#9B7C2E"/>
					<stop  offset="0.7427" style="stop-color:#C8AC5E"/>
					<stop  offset="0.8246" style="stop-color:#E4CB7D"/>
					<stop  offset="0.8708" style="stop-color:#EED688"/>
					<stop  offset="1" style="stop-color:#FFFBCC"/>
				</linearGradient>
				<path fill="url(#SVGID_4_)" d="M431.96,125.082h2.501v-0.564h-2.502c0,0.091,0,0.188,0,0.298
					C431.96,124.916,431.96,125.003,431.96,125.082z"/>
				<g>
					<path fill="#485654" d="M438.032,144.611v-2.389h-19.663v2.381l-0.123,0.277h19.963L438.032,144.611z M418.729,144.604h-0.121
						v-2.006h0.121V144.604z M419.238,144.604h-0.119v-2.006h0.119V144.604z M419.739,144.604h-0.147v-2.006h0.147V144.604z
						 M420.28,144.604h-0.148v-2.006h0.148V144.604z M420.841,144.604h-0.146v-2.006h0.146V144.604z M421.492,144.604h-0.207v-2.006
						h0.207V144.604z M421.985,144.604h-0.207v-2.006h0.207V144.604z M422.411,144.604h-0.207v-2.006h0.207V144.604z
						 M422.885,144.604h-0.207v-2.006h0.207V144.604z M423.418,144.604h-0.326v-2.006h0.326V144.604z M423.92,144.604h-0.325v-2.006
						h0.326L423.92,144.604L423.92,144.604z M424.396,144.604h-0.327v-2.006h0.327V144.604z M424.883,144.604h-0.325v-2.006h0.325
						V144.604z M425.445,144.604h-0.414v-2.006h0.414V144.604z M426.05,144.604h-0.414v-2.006h0.414V144.604z M426.639,144.604
						h-0.415v-2.006h0.415V144.604z M427.297,144.604h-0.503v-2.006h0.504L427.297,144.604L427.297,144.604z M427.958,144.604
						h-0.503v-2.006h0.503V144.604z M428.6,144.611h-0.504v-2.006h0.504V144.611z M429.28,144.604h-0.503v-2.006h0.503V144.604z
						 M429.961,144.604h-0.503v-2.006h0.503V144.604z M430.579,144.604h-0.413v-2.006h0.413V144.604z M431.171,144.604h-0.414
						v-2.006h0.415L431.171,144.604L431.171,144.604z M431.752,144.604h-0.416v-2.006h0.416V144.604z M432.242,144.604h-0.326
						v-2.006h0.326V144.604z M432.745,144.604h-0.325v-2.006h0.325V144.604z M433.22,144.604h-0.327v-2.006h0.327V144.604z
						 M433.708,144.604h-0.326v-2.006h0.326V144.604z M434.122,144.604h-0.208v-2.006h0.208V144.604z M434.565,144.604h-0.208
						v-2.006h0.208V144.604z M434.989,144.604h-0.206v-2.006h0.206V144.604z M435.465,144.604h-0.207v-2.006h0.207V144.604z
						 M435.928,144.604h-0.15v-2.006h0.15V144.604z M436.442,144.604h-0.148v-2.006h0.148V144.604z M436.975,144.604h-0.148v-2.006
						h0.148V144.604z M437.447,144.604h-0.118v-2.006h0.118V144.604z M437.904,144.604h-0.118v-2.006h0.118V144.604z"/>
					
						<linearGradient id="SVGID_5_" gradientUnits="userSpaceOnUse" x1="7.5591" y1="-523.6216" x2="14.2957" y2="-523.6216" gradientTransform="matrix(3.8106 0 0 -3.8106 386.5938 -1849.0259)">
						<stop  offset="0" style="stop-color:#707070"/>
						<stop  offset="0.023" style="stop-color:#5D5D5D"/>
						<stop  offset="0.0666" style="stop-color:#414141"/>
						<stop  offset="0.1154" style="stop-color:#292929"/>
						<stop  offset="0.1708" style="stop-color:#161616"/>
						<stop  offset="0.2364" style="stop-color:#0A0A0A"/>
						<stop  offset="0.3223" style="stop-color:#020202"/>
						<stop  offset="0.5055" style="stop-color:#000000"/>
						<stop  offset="0.6841" style="stop-color:#020202"/>
						<stop  offset="0.77" style="stop-color:#0A0A0A"/>
						<stop  offset="0.8361" style="stop-color:#171717"/>
						<stop  offset="0.8922" style="stop-color:#292929"/>
						<stop  offset="0.9418" style="stop-color:#414141"/>
						<stop  offset="0.9862" style="stop-color:#5E5E5E"/>
						<stop  offset="1" style="stop-color:#696969"/>
					</linearGradient>
					<path fill="url(#SVGID_5_)" d="M438.32,144.854c-0.242-0.061-0.346-0.092-0.571-0.092H418.92c-0.245,0-0.488,0.031-0.728,0.092
						c-0.022,0.006-0.045,0.01-0.067,0.015c-1.33,0.351-2.498,1.524-2.573,2.942h25.563
						C441.038,146.213,439.573,145.155,438.32,144.854z"/>
					<g>
						<g>
							<path fill="none" stroke="#231F20" stroke-width="0.4916" d="M428.456,116.003"/>
						</g>
						<g>
							<path fill="none" stroke="#000000" stroke-width="0.4916" d="M428.356,115.903"/>
						</g>
					</g>
					
						<linearGradient id="SVGID_6_" gradientUnits="userSpaceOnUse" x1="8.2959" y1="-522.8955" x2="13.5654" y2="-522.8955" gradientTransform="matrix(3.8106 0 0 -3.8106 386.5938 -1849.0259)">
						<stop  offset="0.0056" style="stop-color:#FBC926"/>
						<stop  offset="0.2528" style="stop-color:#FFFBCC"/>
						<stop  offset="0.3045" style="stop-color:#F8F0BB"/>
						<stop  offset="0.4072" style="stop-color:#E7D28E"/>
						<stop  offset="0.55" style="stop-color:#CCA246"/>
						<stop  offset="0.5955" style="stop-color:#C3922E"/>
						<stop  offset="0.8708" style="stop-color:#EED688"/>
						<stop  offset="1" style="stop-color:#FFFBCC"/>
					</linearGradient>
					<path fill="url(#SVGID_6_)" d="M438.104,144.577v-2.388h-19.777v2.38l-0.124,0.279h20.08L438.104,144.577z M418.687,144.569
						h-0.121v-2.005h0.121V144.569z M419.194,144.569h-0.119v-2.005h0.119V144.569z M419.697,144.569h-0.148v-2.005h0.147
						L419.697,144.569L419.697,144.569z M420.238,144.569h-0.148v-2.005h0.148V144.569z M420.799,144.569h-0.147v-2.005h0.148
						L420.799,144.569L420.799,144.569z M421.45,144.569h-0.206v-2.005h0.206V144.569z M421.942,144.569h-0.207v-2.005h0.206
						L421.942,144.569L421.942,144.569z M422.369,144.569h-0.208v-2.005h0.208V144.569z M422.844,144.569h-0.21v-2.005h0.21V144.569
						z M423.376,144.569h-0.327v-2.005h0.327V144.569z M423.878,144.569h-0.327v-2.005h0.327V144.569z M424.353,144.569h-0.327
						v-2.005h0.327V144.569z M424.84,144.569h-0.326v-2.005h0.326V144.569z M425.403,144.569h-0.413v-2.005h0.413V144.569z
						 M426.008,144.569h-0.415v-2.005h0.415V144.569z M426.596,144.569h-0.414v-2.005h0.414V144.569z M427.254,144.569h-0.503
						v-2.005h0.503V144.569z M427.917,144.569h-0.504v-2.005h0.504V144.569z M428.557,144.577h-0.503v-2.005h0.502L428.557,144.577
						L428.557,144.577z M429.237,144.569h-0.503v-2.005h0.503V144.569z M429.919,144.569h-0.504v-2.005h0.504V144.569z
						 M430.537,144.569h-0.414v-2.005h0.414V144.569z M431.129,144.569h-0.415v-2.005h0.415V144.569z M431.71,144.569h-0.417v-2.005
						h0.417V144.569z M432.2,144.569h-0.324v-2.005h0.324V144.569z M432.703,144.569h-0.326v-2.005h0.326V144.569L432.703,144.569z
						 M433.176,144.569h-0.325v-2.005h0.325V144.569z M433.665,144.569h-0.326v-2.005h0.326V144.569z M434.077,144.569h-0.207
						v-2.005h0.207V144.569z M434.522,144.569h-0.207v-2.005h0.207V144.569z M434.948,144.569h-0.206v-2.005h0.206V144.569z
						 M435.422,144.569h-0.207v-2.005h0.206L435.422,144.569L435.422,144.569z M435.885,144.569h-0.15v-2.005h0.15V144.569z
						 M436.399,144.569h-0.148v-2.005h0.148V144.569z M436.932,144.569h-0.147v-2.005h0.147V144.569z M437.406,144.569h-0.118
						v-2.005h0.118V144.569z M437.861,144.569h-0.119v-2.005h0.119V144.569z"/>
					
						<linearGradient id="SVGID_7_" gradientUnits="userSpaceOnUse" x1="7.6006" y1="-524.5" x2="14.3086" y2="-524.5" gradientTransform="matrix(3.8106 0 0 -3.8106 386.5938 -1849.0259)">
						<stop  offset="0.0056" style="stop-color:#E8C44E"/>
						<stop  offset="0.2528" style="stop-color:#FFFBCC"/>
						<stop  offset="0.3045" style="stop-color:#F8F0BB"/>
						<stop  offset="0.4072" style="stop-color:#E7D28E"/>
						<stop  offset="0.55" style="stop-color:#CCA246"/>
						<stop  offset="0.5955" style="stop-color:#C3922E"/>
						<stop  offset="0.8708" style="stop-color:#EED688"/>
						<stop  offset="1" style="stop-color:#FFFABC"/>
					</linearGradient>
					<path fill="url(#SVGID_7_)" d="M418.861,151.152h18.947c1.618,0,3.212-1.348,3.308-3.039h-25.562
						C415.649,149.805,417.243,151.152,418.861,151.152z"/>
					<g>
						<g>
							
								<linearGradient id="SVGID_8_" gradientUnits="userSpaceOnUse" x1="8.2065" y1="-518.8394" x2="13.7168" y2="-518.8394" gradientTransform="matrix(3.8106 0 0 -3.8106 386.5938 -1849.0259)">
								<stop  offset="0.0056" style="stop-color:#DECF84"/>
								<stop  offset="0.2528" style="stop-color:#FFFBCC"/>
								<stop  offset="0.293" style="stop-color:#FBF6C6"/>
								<stop  offset="0.3467" style="stop-color:#F0E8B5"/>
								<stop  offset="0.4081" style="stop-color:#DDD199"/>
								<stop  offset="0.4752" style="stop-color:#C3B172"/>
								<stop  offset="0.5461" style="stop-color:#A38841"/>
								<stop  offset="0.5955" style="stop-color:#89681A"/>
								<stop  offset="0.6351" style="stop-color:#9B7C2E"/>
								<stop  offset="0.7427" style="stop-color:#C8AC5E"/>
								<stop  offset="0.8246" style="stop-color:#E4CB7D"/>
								<stop  offset="0.8708" style="stop-color:#EED688"/>
								<stop  offset="1" style="stop-color:#FFEAB3"/>
							</linearGradient>
							<path fill="url(#SVGID_8_)" d="M434.626,128.701c-1.618-1.018-2.832-1.984-3.557-3.438c-0.203-0.049-0.449-0.152-0.598-0.264
								c-0.055,0.067-0.132,0.111-0.221,0.111c-0.162,0-0.292-0.139-0.292-0.309c0-0.172,0.13-0.311,0.292-0.311
								c0.089,0,0.166,0.045,0.22,0.11c0.07-0.06,0.16-0.113,0.258-0.164c-0.211-0.629-0.346-1.343-0.401-2.174
								c-0.072-1.1-0.659-4.781-0.952-6.568c-0.033-0.197-0.062-0.371-0.086-0.517c-0.044-0.264-0.074-0.433-0.081-0.466
								c-0.046-0.228-0.311-0.25-0.311-0.25l-0.446,0.788l-0.006-0.006c0,0.003,0,0.004,0,0.008c0.301,0.046,0.533,0.318,0.533,0.65
								c0,0.272-0.155,0.507-0.377,0.607c0.204,1.745,0.537,4.788,0.598,5.815c0.051,0.836,0.157,1.555,0.315,2.189
								c0.049,0.195,0.104,0.385,0.163,0.563c0.605,1.826,1.765,2.89,3.586,3.969c0.326,0.19,5.06,2.867,4.722,7.393
								c-0.258,3.48-3.035,4.512-5.506,4.73v0.491l2.281-0.225c1.048-0.329,3.826-1.483,4.083-4.966
								C439.18,131.949,434.945,128.902,434.626,128.701z M427.831,114.463c0,0-0.266,0.022-0.311,0.25
								c-0.008,0.033-0.038,0.208-0.083,0.482c-0.026,0.143-0.054,0.315-0.085,0.505c-0.294,1.79-0.878,5.468-0.952,6.563
								c-0.22,3.384-1.773,4.85-4.3,6.438c-0.318,0.201-4.555,3.248-4.218,7.77c0.258,3.482,3.035,4.638,4.085,4.967l2.28,0.225
								v-0.49c-2.474-0.219-5.248-1.25-5.509-4.732c-0.333-4.523,4.399-7.201,4.724-7.391c2.583-1.529,3.841-3.025,4.063-6.723
								c0.06-1.025,0.394-4.063,0.599-5.812c-0.23-0.098-0.393-0.335-0.393-0.611c0-0.338,0.239-0.611,0.546-0.652
								c0-0.002,0.002-0.003,0.003-0.007l-0.004,0.007L427.831,114.463z M426.463,125.116c-0.161,0-0.292-0.141-0.292-0.313
								c0-0.17,0.131-0.309,0.292-0.309c0.163,0,0.293,0.139,0.293,0.309C426.756,124.975,426.625,125.116,426.463,125.116z"/>
						</g>
					</g>
				</g>
				<g>
					<path fill="#485654" d="M441.127,148.215c-0.788,0-24.99,0-25.566,0c-0.327,0-0.306-0.492,0-0.492c0.563,0,24.796,0,25.566,0
						C441.396,147.723,441.438,148.215,441.127,148.215z"/>
				</g>
				
					<radialGradient id="SVGID_9_" cx="9.6128" cy="-517.5088" r="0.9975" gradientTransform="matrix(3.7481 0 0 -3.7481 392.9258 -1814.9243)" gradientUnits="userSpaceOnUse">
					<stop  offset="0.0056" style="stop-color:#FBC926"/>
					<stop  offset="0.1868" style="stop-color:#FFFBCC"/>
					<stop  offset="0.2802" style="stop-color:#FBF2BB"/>
					<stop  offset="0.4649" style="stop-color:#F0D98E"/>
					<stop  offset="0.489" style="stop-color:#EED688"/>
					<stop  offset="0.5634" style="stop-color:#EDD485"/>
					<stop  offset="0.6216" style="stop-color:#E8CC7B"/>
					<stop  offset="0.6743" style="stop-color:#E0C06A"/>
					<stop  offset="0.7238" style="stop-color:#D5AE53"/>
					<stop  offset="0.7707" style="stop-color:#C69735"/>
					<stop  offset="0.7802" style="stop-color:#C3922E"/>
					<stop  offset="0.7889" style="stop-color:#D1AA52"/>
					<stop  offset="0.7986" style="stop-color:#DDC073"/>
					<stop  offset="0.8094" style="stop-color:#E8D28F"/>
					<stop  offset="0.8216" style="stop-color:#F0E1A5"/>
					<stop  offset="0.8356" style="stop-color:#F7EDB7"/>
					<stop  offset="0.8527" style="stop-color:#FCF5C3"/>
					<stop  offset="0.876" style="stop-color:#FEFACA"/>
					<stop  offset="0.9341" style="stop-color:#FFFBCC"/>
				</radialGradient>
				<path fill="url(#SVGID_9_)" d="M430.475,124.6c0.043,0.055,0.072,0.123,0.072,0.199s-0.029,0.146-0.07,0.199
					c0.149,0.111,0.395,0.212,0.598,0.264c0.169,0.043,0.308,0.051,0.329-0.001c0.18-0.454,0.244,0.459,0.444,0.459
					c0.15,0,0.151-0.083,0.15-0.643c-0.002-0.078-0.002-0.167-0.002-0.265c0-0.111,0-0.209,0-0.299
					c-0.001-0.691-0.016-0.766-0.139-0.766c-0.208,0-0.233,1.072-0.453,0.562c-0.041-0.096-0.386-0.017-0.672,0.126
					C430.634,124.485,430.544,124.54,430.475,124.6z"/>
				
					<radialGradient id="SVGID_10_" cx="9.9575" cy="-517.5366" r="0.6128" gradientTransform="matrix(3.7481 0 0 -3.7481 392.9258 -1814.9243)" gradientUnits="userSpaceOnUse">
					<stop  offset="0.0056" style="stop-color:#FBC926"/>
					<stop  offset="0.2528" style="stop-color:#FFFBCC"/>
					<stop  offset="0.293" style="stop-color:#FBF6C6"/>
					<stop  offset="0.3467" style="stop-color:#F0E8B5"/>
					<stop  offset="0.4081" style="stop-color:#DDD199"/>
					<stop  offset="0.4752" style="stop-color:#C3B172"/>
					<stop  offset="0.5461" style="stop-color:#A38841"/>
					<stop  offset="0.5955" style="stop-color:#89681A"/>
					<stop  offset="0.6351" style="stop-color:#9B7C2E"/>
					<stop  offset="0.7427" style="stop-color:#C8AC5E"/>
					<stop  offset="0.8246" style="stop-color:#E4CB7D"/>
					<stop  offset="0.8708" style="stop-color:#EED688"/>
					<stop  offset="1" style="stop-color:#FFFBCC"/>
				</radialGradient>
				<path fill="url(#SVGID_10_)" d="M431.403,124.311c0,0-0.027-0.159-0.672,0.126c-0.1,0.043-0.187,0.104-0.256,0.163
					c0.043,0.055,0.072,0.123,0.072,0.199s-0.029,0.146-0.07,0.199c0.149,0.111,0.396,0.208,0.598,0.264
					c0.311,0.083,0.329-0.001,0.329-0.001C431.599,124.874,431.574,124.659,431.403,124.311z"/>
				<circle fill="#485654" cx="426.489" cy="124.811" r="0.409"/>
				<path fill="#485654" d="M430.651,124.811c0,0.226-0.184,0.411-0.41,0.411c-0.225,0-0.408-0.186-0.408-0.411
					c0-0.227,0.183-0.408,0.408-0.408C430.467,124.402,430.651,124.584,430.651,124.811z"/>
				
					<linearGradient id="SVGID_11_" gradientUnits="userSpaceOnUse" x1="10.4634" y1="-517.8818" x2="10.4634" y2="-518.0876" gradientTransform="matrix(3.8106 0 0 -3.8106 386.5938 -1849.0259)">
					<stop  offset="0.0056" style="stop-color:#FBC926"/>
					<stop  offset="0.2528" style="stop-color:#FFFBCC"/>
					<stop  offset="0.3045" style="stop-color:#F8F0BB"/>
					<stop  offset="0.4072" style="stop-color:#E7D28E"/>
					<stop  offset="0.55" style="stop-color:#CCA246"/>
					<stop  offset="0.5955" style="stop-color:#C3922E"/>
					<stop  offset="0.8708" style="stop-color:#EED688"/>
					<stop  offset="1" style="stop-color:#FFFBCC"/>
				</linearGradient>
				<circle fill="url(#SVGID_11_)" cx="426.463" cy="124.779" r="0.408"/>
				
					<linearGradient id="SVGID_12_" gradientUnits="userSpaceOnUse" x1="11.4478" y1="-517.8818" x2="11.4478" y2="-518.0873" gradientTransform="matrix(3.8106 0 0 -3.8106 386.5938 -1849.0259)">
					<stop  offset="0.0056" style="stop-color:#FBC926"/>
					<stop  offset="0.2528" style="stop-color:#FFFBCC"/>
					<stop  offset="0.3045" style="stop-color:#F8F0BB"/>
					<stop  offset="0.4072" style="stop-color:#E7D28E"/>
					<stop  offset="0.55" style="stop-color:#CCA246"/>
					<stop  offset="0.5955" style="stop-color:#C3922E"/>
					<stop  offset="0.8708" style="stop-color:#EED688"/>
					<stop  offset="1" style="stop-color:#FFFBCC"/>
				</linearGradient>
				<circle fill="url(#SVGID_12_)" cx="430.215" cy="124.779" r="0.409"/>
				
					<linearGradient id="SVGID_13_" gradientUnits="userSpaceOnUse" x1="13.1211" y1="-522.4438" x2="8.7585" y2="-522.4438" gradientTransform="matrix(3.8106 0 0 -3.8106 386.5938 -1849.0259)">
					<stop  offset="0.0056" style="stop-color:#FBC926"/>
					<stop  offset="0.2528" style="stop-color:#FFFBCC"/>
					<stop  offset="0.293" style="stop-color:#FBF6C6"/>
					<stop  offset="0.3467" style="stop-color:#F0E8B5"/>
					<stop  offset="0.4081" style="stop-color:#DDD199"/>
					<stop  offset="0.4752" style="stop-color:#C3B172"/>
					<stop  offset="0.5461" style="stop-color:#A38841"/>
					<stop  offset="0.5955" style="stop-color:#89681A"/>
					<stop  offset="0.6351" style="stop-color:#9B7C2E"/>
					<stop  offset="0.7427" style="stop-color:#C8AC5E"/>
					<stop  offset="0.8246" style="stop-color:#E4CB7D"/>
					<stop  offset="0.8708" style="stop-color:#EED688"/>
					<stop  offset="1" style="stop-color:#FFFBCC"/>
				</linearGradient>
				<polygon fill="url(#SVGID_13_)" points="436.305,141.41 420.317,141.41 419.598,142.189 437.114,142.189 				"/>
				
					<linearGradient id="SVGID_14_" gradientUnits="userSpaceOnUse" x1="10.3584" y1="-515.165" x2="11.6001" y2="-515.165" gradientTransform="matrix(3.8106 0 0 -3.8106 386.5938 -1849.0259)">
					<stop  offset="0.0056" style="stop-color:#FBC926"/>
					<stop  offset="0.2528" style="stop-color:#FFFBCC"/>
					<stop  offset="0.293" style="stop-color:#FBF6C6"/>
					<stop  offset="0.3467" style="stop-color:#F0E8B5"/>
					<stop  offset="0.4081" style="stop-color:#DDD199"/>
					<stop  offset="0.4752" style="stop-color:#C3B172"/>
					<stop  offset="0.5461" style="stop-color:#A38841"/>
					<stop  offset="0.5955" style="stop-color:#89681A"/>
					<stop  offset="0.6351" style="stop-color:#9B7C2E"/>
					<stop  offset="0.7427" style="stop-color:#C8AC5E"/>
					<stop  offset="0.8246" style="stop-color:#E4CB7D"/>
					<stop  offset="0.8708" style="stop-color:#EED688"/>
					<stop  offset="1" style="stop-color:#FFFBCC"/>
				</linearGradient>
				<path fill="url(#SVGID_14_)" d="M427.065,114.229c0-0.754,0.579-1.367,1.294-1.367c0.713,0,1.292,0.613,1.292,1.367
					c0,0.369-0.14,0.7-0.361,0.947c0.024,0.145,0.052,0.317,0.084,0.515c0.423-0.329,0.699-0.859,0.699-1.456
					c0-1.002-0.768-1.811-1.712-1.811c-0.945,0-1.711,0.81-1.711,1.811c0,0.602,0.278,1.134,0.704,1.462
					c0.032-0.19,0.06-0.362,0.085-0.506C427.208,114.944,427.065,114.604,427.065,114.229z"/>
				<circle fill="#485654" cx="428.368" cy="115.921" r="0.676"/>
				
					<linearGradient id="SVGID_15_" gradientUnits="userSpaceOnUse" x1="10.9585" y1="-515.4668" x2="10.9585" y2="-515.819" gradientTransform="matrix(3.8106 0 0 -3.8106 386.5938 -1849.0259)">
					<stop  offset="0.0056" style="stop-color:#FBC926"/>
					<stop  offset="0.2528" style="stop-color:#FFFBCC"/>
					<stop  offset="0.293" style="stop-color:#FBF6C6"/>
					<stop  offset="0.3467" style="stop-color:#F0E8B5"/>
					<stop  offset="0.4081" style="stop-color:#DDD199"/>
					<stop  offset="0.4752" style="stop-color:#C3B172"/>
					<stop  offset="0.5461" style="stop-color:#A38841"/>
					<stop  offset="0.5955" style="stop-color:#89681A"/>
					<stop  offset="0.6351" style="stop-color:#9B7C2E"/>
					<stop  offset="0.7427" style="stop-color:#C8AC5E"/>
					<stop  offset="0.8246" style="stop-color:#E4CB7D"/>
					<stop  offset="0.8708" style="stop-color:#EED688"/>
					<stop  offset="1" style="stop-color:#FFFBCC"/>
				</linearGradient>
				<path fill="url(#SVGID_15_)" d="M429.008,115.912c0,0.366-0.294,0.659-0.657,0.659c-0.364,0-0.659-0.293-0.659-0.659
					c0-0.361,0.294-0.655,0.659-0.655C428.714,115.257,429.008,115.551,429.008,115.912z"/>
				<g>
					
						<linearGradient id="SVGID_16_" gradientUnits="userSpaceOnUse" x1="10.9536" y1="-523.9839" x2="10.9536" y2="-524.2496" gradientTransform="matrix(3.8106 0 0 -3.8106 386.5938 -1849.0259)">
						<stop  offset="0.0056" style="stop-color:#FBC926"/>
						<stop  offset="0.2528" style="stop-color:#FFFBCC"/>
						<stop  offset="0.293" style="stop-color:#FBF6C6"/>
						<stop  offset="0.3467" style="stop-color:#F0E8B5"/>
						<stop  offset="0.4081" style="stop-color:#DDD199"/>
						<stop  offset="0.4752" style="stop-color:#C3B172"/>
						<stop  offset="0.5461" style="stop-color:#A38841"/>
						<stop  offset="0.5955" style="stop-color:#89681A"/>
						<stop  offset="0.6351" style="stop-color:#9B7C2E"/>
						<stop  offset="0.7427" style="stop-color:#C8AC5E"/>
						<stop  offset="0.8246" style="stop-color:#E4CB7D"/>
						<stop  offset="0.8708" style="stop-color:#EED688"/>
						<stop  offset="1" style="stop-color:#FFFBCC"/>
					</linearGradient>
					<path fill="url(#SVGID_16_)" d="M441.127,148.184c-0.788,0-24.998,0-25.573,0c-0.329,0-0.307-0.492,0-0.492
						c0.563,0,24.803,0,25.573,0C441.396,147.691,441.438,148.184,441.127,148.184z"/>
				</g>
			</g>
		</g>
	</g>
	<g>
		<path fill="#FFFFFF" d="M582.831,113.902v-0.006c0-0.506,0.41-0.932,0.928-0.932c0.521,0,0.925,0.42,0.925,0.926v0.006
			c0,0.506-0.409,0.932-0.925,0.932C583.235,114.828,582.831,114.406,582.831,113.902z M584.577,113.896v-0.006
			c0-0.451-0.352-0.825-0.818-0.825c-0.464,0-0.82,0.379-0.82,0.831v0.006c0,0.452,0.352,0.823,0.82,0.823
			C584.222,114.726,584.577,114.348,584.577,113.896z M583.396,113.406h0.426c0.207,0,0.361,0.101,0.361,0.299
			c0,0.154-0.09,0.249-0.217,0.288l0.248,0.355h-0.217l-0.225-0.324h-0.195v0.323h-0.18v-0.941H583.396L583.396,113.406z
			 M583.805,113.875c0.124,0,0.191-0.064,0.191-0.154c0-0.102-0.068-0.154-0.191-0.154h-0.228v0.309H583.805L583.805,113.875z"/>
	</g>
</g>
</svg>
