<?xml version="1.0" encoding="utf-8"?>
<!-- Generator: Adobe Illustrator 14.0.0, SVG Export Plug-In . SVG Version: 6.00 Build 43363)  -->
<!DOCTYPE svg PUBLIC "-//W3C//DTD SVG 1.1//EN" "http://www.w3.org/Graphics/SVG/1.1/DTD/svg11.dtd">
<svg version="1.1" id="Layer_1" xmlns="http://www.w3.org/2000/svg" xmlns:xlink="http://www.w3.org/1999/xlink" x="0px" y="0px"
	 width="100px" height="100px" viewBox="0 0 100 100" enable-background="new 0 0 100 100" xml:space="preserve">
<path fill="#6D6E70" d="M74.012,67.73c-1.285-4.266-3.678-8.062-6.846-11.043V17.164C67.166,7.699,59.465,0,50.001,0
	c-9.467,0-17.162,7.699-17.162,17.164v39.523c-4.863,4.574-7.906,11.062-7.906,18.248c0,0.607,0.025,1.211,0.066,1.809
	c0.486,6.74,3.646,12.756,8.43,16.977c1.098,0.971,2.277,1.848,3.535,2.615C40.767,98.66,45.228,100,50.001,100
	c13.821,0,25.065-11.242,25.065-25.064C75.066,72.432,74.693,70.014,74.012,67.73z M62.361,18.475h-5.637h-8.592v4.805h8.592v4.27
	h-8.592v4.801h8.592v4.268h-8.592v4.801h8.592v4.27h-8.592v4.809h8.592v4.266h-8.592v4.799h8.592v4.152
	c-8.024,1.123-14.813,6.113-18.407,13.031H29.82c-0.055-0.598-0.082-1.199-0.082-1.809c0-4.314,1.355-8.316,3.664-11.605
	c1.182-1.686,2.611-3.182,4.236-4.438v-5.756V17.164c0-6.814,5.547-12.363,12.363-12.363c6.819,0,12.36,5.549,12.36,12.363V18.475z"
	/>
</svg>
