<?xml version="1.0" encoding="utf-8"?>
<!-- Generator: Adobe Illustrator 14.0.0, SVG Export Plug-In . SVG Version: 6.00 Build 43363)  -->
<!DOCTYPE svg PUBLIC "-//W3C//DTD SVG 1.1//EN" "http://www.w3.org/Graphics/SVG/1.1/DTD/svg11.dtd">
<svg version="1.1" id="Layer_1" xmlns="http://www.w3.org/2000/svg" xmlns:xlink="http://www.w3.org/1999/xlink" x="0px" y="0px"
	 width="100px" height="100px" viewBox="0 0 100 100" enable-background="new 0 0 100 100" xml:space="preserve">
<g>
	<path fill="#BBBDBF" d="M38.238,16.312c-2.236,0-4.048-1.812-4.048-4.048c0-2.235,1.812-4.048,4.048-4.048
		c2.235,0,4.048,1.812,4.048,4.048C42.286,14.501,40.473,16.312,38.238,16.312"/>
	<path fill="#B3B3B3" d="M68.271,0H52.295h-4.591H31.729c-5.523,0-7.395,18.392-7.395,47.076c0,28.68,3.653,43.333,3.653,43.333
		c0,2.066,1.673,3.741,3.741,3.741h7.857v1.285c0,2.518,1.432,4.564,3.193,4.564h14.439c1.762,0,3.195-2.047,3.195-4.564V94.15
		h7.857c2.066,0,3.742-1.675,3.742-3.741c0,0,3.652-14.653,3.652-43.333C75.666,18.392,75.666,0,68.271,0 M59.145,66.423
		c0,1.861-1.676,3.371-3.74,3.371H44.596c-2.066,0-3.742-1.51-3.742-3.371v-9.74c0-1.863,1.676-3.373,3.742-3.373h10.808
		c2.064,0,3.74,1.51,3.74,3.373V66.423z M44.596,73.199h10.808c2.064,0,3.74,1.51,3.74,3.371v9.74c0,1.863-1.676,3.372-3.74,3.372
		H44.596c-2.066,0-3.742-1.509-3.742-3.372v-9.74C40.854,74.709,42.53,73.199,44.596,73.199 M58.365,95.436
		c0,0.903-0.514,1.638-1.146,1.638H42.78c-0.631,0-1.146-0.734-1.146-1.638l1.381-1.285h4.688h4.591h4.689L58.365,95.436z
		 M55.629,48.843H41.562c-9.013,0-10.601-38.346-10.601-38.346c0-8.73,36.099-9.353,36.099,0
		C67.061,10.497,66.748,48.533,55.629,48.843"/>
	<g>
		<g>
			<path fill="#BBBDBF" d="M48.792,80.486h3.812c0.566,0.121,0.992,0.621,0.992,1.225v3.258c0,0.69-0.561,1.252-1.252,1.252h-4.687
				c-0.689,0-1.251-0.562-1.251-1.252v-3.258c0-0.596,0.415-1.09,0.969-1.219c-0.127-0.129-0.206-0.208-0.208-0.21
				c-0.93-0.979-0.908-2.495,0.045-3.448c0.947-0.947,2.504-0.963,3.468-0.031c0.003,0.007,0.397,0.396,0.883,0.884
				c0.004-0.005,0.008-0.007,0.012-0.011c0.004,0.006,0.008,0.011,0.014,0.017l-0.711,0.711c-0.009-0.006-0.017-0.011-0.026-0.017
				l0.02-0.017c-0.481-0.482-0.873-0.871-0.892-0.893c-0.593-0.546-1.505-0.529-2.077,0.045c-0.572,0.571-0.591,1.486-0.041,2.08
				c0.018,0.018,0.404,0.403,0.884,0.884h0.009l0.027-0.025c0.01,0.004,0.02,0.004,0.033,0.007L48.792,80.486z M49.077,82.855
				c0,0.368,0.214,0.684,0.525,0.833v0.659c0,0.09,0.031,0.173,0.08,0.239c0.104,0.022,0.209,0.035,0.319,0.035
				c0.108,0,0.214-0.013,0.315-0.035c0.051-0.066,0.082-0.149,0.082-0.239v-0.659c0.312-0.149,0.523-0.465,0.523-0.833
				c0-0.51-0.414-0.923-0.921-0.923C49.49,81.933,49.077,82.346,49.077,82.855"/>
		</g>
	</g>
	<g>
		<g>
			<path fill="#BBBDBF" d="M50.001,64.527c0.108,0,0.214-0.013,0.315-0.035c0.051-0.066,0.082-0.15,0.082-0.239v-0.658
				c0.312-0.15,0.523-0.466,0.523-0.834c0-0.509-0.414-0.923-0.921-0.923c-0.512,0-0.925,0.414-0.925,0.923
				c0,0.368,0.214,0.684,0.525,0.834v0.658c0,0.089,0.031,0.173,0.081,0.239C49.786,64.515,49.891,64.527,50.001,64.527
				 M53.596,61.615v3.26c0,0.689-0.561,1.249-1.252,1.249h-4.687c-0.689,0-1.251-0.56-1.251-1.249v-3.26
				c0-0.647,0.492-1.181,1.122-1.245v-1.271c0.037-1.347,1.123-2.404,2.474-2.404c1.34,0,2.448,1.089,2.471,2.43v1.246
				C53.102,60.435,53.596,60.97,53.596,61.615 M51.5,60.365v-1.261c-0.031-0.804-0.691-1.439-1.499-1.439
				c-0.812,0-1.47,0.636-1.501,1.442v1.258H51.5z"/>
		</g>
	</g>
</g>
</svg>
