<?xml version="1.0" encoding="utf-8"?>
<!-- Generator: Adobe Illustrator 14.0.0, SVG Export Plug-In . SVG Version: 6.00 Build 43363)  -->
<!DOCTYPE svg PUBLIC "-//W3C//DTD SVG 1.1//EN" "http://www.w3.org/Graphics/SVG/1.1/DTD/svg11.dtd">
<svg version="1.1" id="Layer_1" xmlns="http://www.w3.org/2000/svg" xmlns:xlink="http://www.w3.org/1999/xlink" x="0px" y="0px"
	 width="100px" height="100px" viewBox="0 0 100 100" enable-background="new 0 0 100 100" xml:space="preserve">
<g>
	<path fill="#6D6E70" d="M84.033,17.631c-1.146-0.887-2.393-1.65-3.709-2.283l-1.121,2.12c1.156,0.552,2.252,1.225,3.26,2.002
		L84.033,17.631z"/>
	<path fill="#6D6E70" d="M89.516,24.148c-0.65-1.254-1.449-2.446-2.371-3.542l-1.947,1.482c0.809,0.962,1.512,2.009,2.084,3.112
		L89.516,24.148z"/>
	<path fill="#6D6E70" d="M76.186,13.879c-1.424-0.346-2.896-0.546-4.375-0.59l-0.082,2.369c1.299,0.039,2.59,0.214,3.844,0.518
		L76.186,13.879z"/>
	<path fill="#6D6E70" d="M89.129,32.316l2.49-0.062c-0.039-1.406-0.236-2.806-0.586-4.159l-2.424,0.568
		C88.918,29.85,89.092,31.08,89.129,32.316z"/>
	<path fill="#6D6E70" d="M60.748,18.768l-1.438-1.94c-1.205,0.806-2.318,1.74-3.316,2.774l1.84,1.6
		C58.709,20.292,59.691,19.475,60.748,18.768z"/>
	<path fill="#6D6E70" d="M67.857,15.928l-0.449-2.33c-1.451,0.249-2.875,0.654-4.236,1.195l0.967,2.187
		C65.332,16.503,66.584,16.147,67.857,15.928z"/>
	<path fill="#6D6E70" d="M31.974,15.659L31.89,13.29c-1.479,0.046-2.951,0.244-4.375,0.59l0.615,2.297
		C29.38,15.873,30.673,15.698,31.974,15.659z"/>
	<path fill="#6D6E70" d="M18.505,22.088l-1.951-1.482c-0.92,1.096-1.719,2.288-2.371,3.542l2.238,1.053
		C16.994,24.097,17.695,23.05,18.505,22.088z"/>
	<path fill="#6D6E70" d="M15.091,28.658l-2.422-0.566c-0.354,1.356-0.551,2.756-0.588,4.162l2.492,0.06
		C14.609,31.08,14.785,29.85,15.091,28.658z"/>
	<path fill="#6D6E70" d="M24.498,17.468l-1.119-2.12c-1.318,0.631-2.564,1.396-3.713,2.278l1.574,1.844
		C22.248,18.693,23.341,18.02,24.498,17.468z"/>
	<path fill="#6D6E70" d="M40.527,14.793c-1.357-0.541-2.783-0.946-4.232-1.195l-0.451,2.33c1.275,0.219,2.525,0.575,3.719,1.052
		L40.527,14.793z"/>
	<path fill="#6D6E70" d="M47.707,19.599c-0.998-1.031-2.113-1.966-3.316-2.771l-1.436,1.938c1.057,0.709,2.037,1.526,2.914,2.436
		L47.707,19.599z"/>
	<path fill="#6D6E70" d="M51.852,26.899l2.102,0.643c0.395-1.172,0.926-2.307,1.578-3.37l-2.154-1.195
		c-0.605,0.992-1.115,2.033-1.525,3.104c-0.412-1.07-0.922-2.111-1.524-3.104l-2.158,1.195c0.652,1.063,1.184,2.198,1.576,3.37
		L51.852,26.899z"/>
	<rect x="50.601" y="45.943" fill="#6D6E70" width="2.497" height="3.95"/>
	<rect x="50.601" y="61.747" fill="#6D6E70" width="2.497" height="3.952"/>
	<rect x="50.601" y="53.844" fill="#6D6E70" width="2.497" height="3.955"/>
	<path fill="#6D6E70" d="M93.877,41.259c-12.625-5.226-26.373-8.271-40.77-8.653c0.004-0.486,0.023-0.974,0.072-1.455l-0.082-0.005
		v-1.008h-2.497v1.008l-0.078,0.005c0.045,0.472,0.064,0.946,0.068,1.418C50.394,32.567,50.197,32.56,50,32.56
		c-15.529,0-30.35,3.098-43.879,8.699C4.05,42.115,2.007,43.027,0,44l2.738,6.13L15.24,78.1l2.74,6.131
		c1.986-1.009,4.029-1.927,6.119-2.749c5.215-2.044,10.73-3.485,16.455-4.249c6.666,6.443,12.508,10.872,14.282,9.076
		c1.348-1.369-0.904-5.087-4.907-9.712c0.021,0,0.047-0.002,0.07-0.002c9.137,0,17.87,1.733,25.899,4.887
		c2.094,0.822,4.131,1.74,6.121,2.749l2.742-6.131L97.26,50.13L100,44C97.992,43.027,95.947,42.115,93.877,41.259z M78.639,75.352
		C69.77,71.827,60.109,69.887,50,69.887c-2.078,0-4.135,0.087-6.172,0.248C32.47,58.869,16.552,46.275,15.384,47.46
		c-0.709,0.718,9.244,13.22,19.396,23.922c-4.635,0.926-9.121,2.261-13.422,3.969L8.863,47.384C21.552,42.159,35.445,39.27,50,39.27
		c0.201,0,0.402,0.005,0.602,0.007v2.716h2.497v-2.679c13.428,0.382,26.25,3.218,38.041,8.07L78.639,75.352z"/>
</g>
</svg>
