<?xml version="1.0" encoding="utf-8"?>
<!-- Generator: Adobe Illustrator 14.0.0, SVG Export Plug-In . SVG Version: 6.00 Build 43363)  -->
<!DOCTYPE svg PUBLIC "-//W3C//DTD SVG 1.1//EN" "http://www.w3.org/Graphics/SVG/1.1/DTD/svg11.dtd">
<svg version="1.1" id="Layer_1" xmlns="http://www.w3.org/2000/svg" xmlns:xlink="http://www.w3.org/1999/xlink" x="0px" y="0px"
	 width="220px" height="60px" viewBox="0 0 220 60" enable-background="new 0 0 220 60" xml:space="preserve">
<g>
	<path fill="#807F83" d="M119.587,0.892l-0.994,6.679h4.383l-5.031,33.791h8.42l5.037-33.791h4.385l0.998-6.679H119.587z
		 M138.128,0.892l-6.029,40.469h8.42l2.393-16.046h0.6c1.246,0,1.793,0.299,1.793,1.245c0,0.301,0,0.599-0.051,0.897l-2.09,13.904
		h8.42l1.945-13.156c0.15-0.898,0.199-1.745,0.199-2.443c0-2.242-0.85-3.437-3.088-4.137c3.982-1.345,4.484-3.738,5.129-8.173
		l0.6-4.188c0.25-1.595,0.398-2.84,0.398-3.835c0-3.989-2.791-4.537-8.918-4.537H138.128z M145.604,7.421h0.697
		c1.246,0,1.744,0.149,1.744,1.146c0,0.052-0.053,0.599-0.197,1.545l-0.75,5.034c-0.299,1.993-0.398,2.691-2.191,2.691
		c-0.252,0-0.498-0.049-0.85-0.049L145.604,7.421z M159.409,0.892l-6.031,40.469h13.508l0.945-6.578h-5.035l1.846-12.36h5.033
		l0.996-6.578h-5.084l1.248-8.424h5.084l0.996-6.529H159.409z M174.409,0.892l-6.031,40.469h7.277l2.939-19.835h0.352l1.096,19.835
		h7.822l6.033-40.469h-7.229l-3.141,20.733h-0.348l-0.898-20.733H174.409z M196.388,0.892l-6.031,40.469h9.77
		c4.334,0,7.025-0.1,8.723-1.795c1.494-1.445,1.795-3.537,2.242-6.574l3.537-23.776c0.303-1.846,0.398-3.142,0.398-3.888
		c0-4.086-2.941-4.437-8.92-4.437H196.388z M203.864,7.371c0.299,0,0.549-0.048,0.795-0.048c1.197,0,1.646,0.299,1.646,1.244
		c0,0.101-0.049,0.549-0.199,1.396l-3.338,22.427c-0.25,1.844-0.35,2.49-2.145,2.49c-0.25,0-0.498-0.047-0.848-0.047L203.864,7.371z
		"/>
	<path fill="#EC1C24" d="M7.436,0.892l-6.03,40.469h7.625l3.488-23.325h0.3l-0.447,23.325h4.733l6.479-23.325h0.348l-3.489,23.325
		h7.576L34.1,0.892H23.784l-5.933,20.483h-0.348l0.249-20.483H7.436z M54.632,9.016c0.25-1.694,0.398-2.989,0.398-3.988
		c0-4.136-2.89-4.385-8.871-4.385c-4.385,0-7.176,0.051-8.871,1.842c-1.396,1.448-1.694,3.59-2.143,6.531l-3.589,24.173
		c-0.3,1.893-0.398,3.389-0.398,4.436c0,3.588,3.091,4.037,8.872,4.037c4.386,0,7.076-0.15,8.723-1.795
		c1.543-1.545,1.794-3.688,2.242-6.678L54.632,9.016z M46.16,9.264l-3.538,23.673c-0.199,1.346-0.448,2.043-1.594,2.043
		c-0.798,0-1.099-0.348-1.099-1.193c0-0.248,0-0.498,0.051-0.85l3.541-23.673c0.197-1.243,0.397-1.992,1.493-1.992
		c0.897,0,1.246,0.351,1.246,1.196C46.26,8.517,46.26,8.766,46.16,9.264 M56.974,0.892L55.977,7.57h4.388l-5.033,33.792h8.422
		L68.787,7.57h4.386l0.996-6.678H56.974z M93.558,9.016c0.248-1.694,0.397-2.989,0.397-3.988c0-4.136-2.89-4.385-8.871-4.385
		c-4.385,0-7.177,0.051-8.871,1.842c-1.396,1.448-1.696,3.59-2.145,6.531L70.48,33.189c-0.298,1.893-0.398,3.389-0.398,4.436
		c0,3.588,3.091,4.037,8.872,4.037c4.386,0,7.078-0.15,8.721-1.795c1.545-1.545,1.795-3.688,2.245-6.678L93.558,9.016z
		 M85.084,9.264l-3.54,23.673c-0.199,1.346-0.447,2.043-1.594,2.043c-0.798,0-1.096-0.348-1.096-1.193c0-0.248,0-0.498,0.049-0.85
		l3.537-23.673c0.2-1.243,0.4-1.992,1.496-1.992c0.897,0,1.246,0.351,1.246,1.196C85.183,8.517,85.183,8.766,85.084,9.264
		 M97.045,0.892l-6.032,40.469h8.423l2.394-16.047h0.597c1.247,0,1.795,0.299,1.795,1.247c0,0.299,0,0.598-0.049,0.897
		l-2.095,13.903h8.425l1.944-13.156c0.148-0.897,0.195-1.745,0.195-2.443c0-2.241-0.844-3.438-3.086-4.137
		c3.985-1.346,4.485-3.738,5.133-8.174l0.6-4.188c0.244-1.595,0.396-2.84,0.396-3.835c0-3.99-2.793-4.537-8.921-4.537H97.045z
		 M104.521,7.421h0.696c1.247,0,1.746,0.148,1.746,1.146c0,0.05-0.05,0.599-0.2,1.543l-0.749,5.035
		c-0.298,1.994-0.397,2.692-2.191,2.692c-0.249,0-0.498-0.05-0.846-0.05L104.521,7.421z"/>
	<path d="M12.953,55.963c-1.091,2.113-3.188,3.377-6.85,3.377c-2.719,0-4.398-0.756-5.235-2.094c-0.8-1.207-0.942-3.281-0.594-5.6
		c0.323-2.148,1.055-4.129,2.085-5.203c1.257-1.586,3.254-2.432,6.16-2.432c4.003,0,5.58,1.562,5.782,3.73
		c0.093,0.773-0.001,1.887-0.092,2.492H9.869c0.084-0.568,0.068-1.209-0.056-1.645c-0.22-0.678-0.734-1.018-1.887-1.018
		c-1.018,0-1.688,0.322-2.164,0.963c-0.476,0.658-0.786,1.848-0.979,3.131c-0.24,1.6-0.244,2.752,0.052,3.297
		c0.333,0.682,1.017,0.908,1.864,0.908c1.058,0,1.734-0.359,2.098-0.889c0.364-0.545,0.531-1.15,0.632-1.697h4.361
		C13.681,53.869,13.433,55.152,12.953,55.963"/>
	<polygon points="14.195,59.131 16.439,44.199 27.69,44.199 27.166,47.686 20.2,47.686 19.866,49.912 26.547,49.912 26.027,53.381 
		19.343,53.381 18.999,55.68 26.04,55.68 25.521,59.131 	"/>
	<path d="M40.32,51.609c-0.529,0.754-1.199,1.186-1.808,1.336l2.072,6.186h-4.7l-1.528-5.279h-2.359l-0.793,5.279h-4.267
		l2.244-14.932h8.287c1.793,0,2.922,0.527,3.481,1.451c0.452,0.754,0.579,1.791,0.368,3.205
		C41.135,50.062,40.773,50.969,40.32,51.609 M36.972,48.252c-0.146-0.414-0.516-0.584-1.083-0.584h-2.907
		c0,0-0.436,2.902-0.446,2.979h3.001c0.434,0,0.891-0.152,1.087-0.453c0.169-0.244,0.306-0.658,0.352-0.961
		C37.029,48.873,37.054,48.459,36.972,48.252"/>
	<polygon points="50.273,47.742 48.561,59.131 44.144,59.131 45.856,47.742 41.835,47.742 42.368,44.199 54.865,44.199 
		54.332,47.742 	"/>
	<polygon points="53.621,59.131 55.864,44.199 60.357,44.199 58.113,59.131 	"/>
	<polygon points="65.96,47.742 65.615,50.043 71.863,50.043 71.331,53.588 65.082,53.588 64.25,59.131 59.888,59.131 62.132,44.199 
		73.137,44.199 72.605,47.742 	"/>
	<polygon points="72.121,59.131 74.364,44.199 78.857,44.199 76.613,59.131 	"/>
	<polygon points="78.388,59.131 80.631,44.199 91.883,44.199 91.357,47.686 84.393,47.686 84.059,49.912 90.74,49.912 90.22,53.381 
		83.539,53.381 83.192,55.68 90.233,55.68 89.714,59.131 	"/>
	<path d="M98.568,59.131h-7.438l2.245-14.932h7.135c2.436,0,3.861,0.564,4.534,1.732c0.689,1.189,0.649,2.469,0.204,5.43
		c-0.51,3.396-0.87,4.658-1.86,5.848C102.392,58.434,100.926,59.131,98.568,59.131 M101.056,51.361
		c0.143-0.939,0.297-2.6,0.077-3.014c-0.364-0.605-0.788-0.793-1.694-0.793h-2.245l-1.243,8.258h2.266
		c0.924,0,1.471-0.225,1.932-0.793C100.544,54.512,100.902,52.381,101.056,51.361"/>
	<polygon points="118.142,59.131 112.837,59.131 110.341,44.199 114.927,44.199 116.292,54.551 120.784,44.199 125.237,44.199 	"/>
	<polygon points="123.927,59.131 126.171,44.199 137.468,44.199 136.944,47.686 129.95,47.686 129.616,49.912 136.327,49.912 
		135.804,53.381 129.093,53.381 128.747,55.68 135.817,55.68 135.3,59.131 	"/>
	<polygon points="145.272,59.131 146.114,53.533 141.925,53.533 141.085,59.131 136.726,59.131 138.97,44.199 143.327,44.199 
		142.479,49.836 146.669,49.836 147.517,44.199 151.876,44.199 149.632,59.131 	"/>
	<polygon points="151.474,59.131 153.718,44.199 158.229,44.199 155.985,59.131 	"/>
	<path d="M171.134,55.963c-1.094,2.113-3.197,3.377-6.875,3.377c-2.73,0-4.416-0.756-5.26-2.094c-0.805-1.207-0.945-3.281-0.598-5.6
		c0.322-2.148,1.055-4.129,2.09-5.203c1.26-1.586,3.266-2.432,6.184-2.432c4.02,0,5.604,1.562,5.809,3.73
		c0.09,0.773,0.002,1.887-0.09,2.492h-4.361c0.086-0.568,0.07-1.209-0.055-1.645c-0.221-0.678-0.738-1.018-1.896-1.018
		c-1.021,0-1.695,0.322-2.17,0.963c-0.479,0.658-0.793,1.848-0.98,3.131c-0.242,1.6-0.246,2.752,0.053,3.297
		c0.332,0.682,1.018,0.908,1.873,0.908c1.061,0,1.738-0.359,2.104-0.889c0.365-0.545,0.533-1.15,0.633-1.697h4.381
		C171.866,53.869,171.616,55.152,171.134,55.963"/>
	<polygon points="172.386,59.131 174.63,44.199 179.085,44.199 177.386,55.512 183.679,55.512 183.134,59.131 	"/>
	<polygon points="184.216,59.131 186.46,44.199 197.755,44.199 197.231,47.686 190.239,47.686 189.903,49.912 196.614,49.912 
		196.093,53.381 189.384,53.381 189.038,55.68 196.106,55.68 195.589,59.131 	"/>
	<path d="M203.046,59.357c-4.135,0-5.809-1.338-5.963-3.338c-0.037-0.395,0.027-1.186,0.086-1.582h4.416
		c-0.027,0.189-0.039,0.771,0.029,0.943c0.15,0.525,0.775,0.771,2.025,0.771c1.402,0,1.953-0.377,2.072-1.17
		c0.127-0.848-0.414-1.148-2.066-1.641c-0.488-0.148-1.521-0.469-1.918-0.604c-2.621-0.732-4.023-1.732-3.621-4.41
		c0.379-2.527,2.963-4.338,7.039-4.338c3.791,0,5.361,1.395,5.652,3.377c0.072,0.527,0.059,1.262,0.016,1.545h-4.436
		c0.021-0.15,0.053-0.604-0.008-0.828c-0.131-0.529-0.617-0.812-1.773-0.812c-1.48,0-1.932,0.357-2.023,0.98
		c-0.133,0.887,0.76,1.246,2.568,1.697c0.496,0.113,1.32,0.414,1.812,0.547c2.443,0.66,3.59,1.828,3.209,4.375
		C209.743,57.66,207.272,59.357,203.046,59.357"/>
	<path fill="#231F20" d="M218.769,2.987c-0.076,0.107-0.199,0.18-0.332,0.197l0.596,1.025h-0.555l-0.525-0.941h-0.658v0.941h-0.496
		V1.952h1.318c0.332,0,0.533,0.09,0.643,0.249c0.076,0.109,0.098,0.221,0.098,0.402C218.856,2.774,218.827,2.899,218.769,2.987
		 M218.331,2.417c-0.045-0.085-0.15-0.132-0.32-0.132h-0.713v0.66h0.75c0.133-0.003,0.229-0.037,0.266-0.1
		c0.027-0.049,0.043-0.141,0.043-0.207C218.356,2.554,218.345,2.455,218.331,2.417"/>
	<path fill="#231F20" d="M217.802,5.163c-1.13,0-2.049-0.917-2.049-2.044c0-1.128,0.919-2.046,2.049-2.046
		c1.128,0,2.045,0.918,2.045,2.046C219.847,4.246,218.93,5.163,217.802,5.163L217.802,5.163z M217.802,1.413
		c-0.942,0-1.709,0.765-1.709,1.706c0,0.939,0.767,1.704,1.709,1.704c0.94,0,1.705-0.765,1.705-1.704
		C219.507,2.178,218.742,1.413,217.802,1.413L217.802,1.413z"/>
</g>
</svg>
