<?xml version="1.0" encoding="utf-8"?>
<!-- Generator: Adobe Illustrator 14.0.0, SVG Export Plug-In . SVG Version: 6.00 Build 43363)  -->
<!DOCTYPE svg PUBLIC "-//W3C//DTD SVG 1.1//EN" "http://www.w3.org/Graphics/SVG/1.1/DTD/svg11.dtd">
<svg version="1.1" id="Layer_1" xmlns="http://www.w3.org/2000/svg" xmlns:xlink="http://www.w3.org/1999/xlink" x="0px" y="0px"
	 width="100px" height="100px" viewBox="0 0 100 100" enable-background="new 0 0 100 100" xml:space="preserve">
<path fill="#BBBDBF" d="M100,67.513c-0.006-1.085-0.029-2.062-0.062-2.921c-0.665,0.448-0.736,0.517,0.036-0.579
	c-0.193-3.337-0.61-5.109-0.814-5.812c0.024-0.482,0.055-1.424,0.013-2.61c0.039-0.025,0.064-0.043,0.064-0.043
	s-0.026,0.016-0.064,0.036c-0.121-3.277-0.801-8.423-3.722-11.008c-1.813-0.006-2.722-1.104-2.722-1.104s-1.218-2.948-2.496-5.753
	c3.669-0.827,7.404,0.383,7.688-2.841c0.009-0.065,0.016-0.131,0.023-0.201c0.007-0.031,0.015-0.064,0.021-0.101
	c-0.004,0.006-0.012,0.011-0.017,0.016c0.043-0.66-0.107-1.413-0.856-2.059c-0.111-0.086-0.238-0.162-0.374-0.232
	c-0.701-0.424-1.721-0.578-3.148-0.546c-0.889-0.003-1.726,0.068-2.271,0.139c0.034,0.004,0.066,0.008,0.1,0.01
	c-0.306,0.033-0.623,0.067-0.956,0.106c-1.734,0.205-2.633,1.005-2.739,0.887c-1.26-0.2-6.294-9.295-8.768-11.629
	C74.68,17.517,61.398,17.42,50,17.38c-11.396,0.04-24.684,0.137-28.941,3.887c-2.473,2.334-7.503,11.429-8.762,11.629
	c-0.105,0.118-1.006-0.682-2.74-0.887c-0.33-0.039-0.649-0.073-0.956-0.106c0.034-0.002,0.065-0.006,0.099-0.01
	c-0.546-0.07-1.382-0.142-2.271-0.14c-1.424-0.031-2.443,0.123-3.145,0.545c-0.137,0.072-0.267,0.146-0.378,0.234
	c-0.752,0.646-0.9,1.398-0.856,2.059c-0.008-0.005-0.013-0.009-0.018-0.016c0.008,0.036,0.016,0.069,0.022,0.101
	c0.007,0.074,0.017,0.144,0.025,0.212c0.292,3.207,4.023,2.004,7.685,2.83c-1.273,2.805-2.493,5.753-2.493,5.753
	s-0.906,1.098-2.721,1.104c-2.923,2.585-3.604,7.731-3.723,11.008c-0.04-0.021-0.063-0.036-0.063-0.036s0.021,0.018,0.063,0.045
	c-0.043,1.184-0.012,2.122,0.013,2.605c-0.206,0.701-0.623,2.474-0.817,5.815c0.771,1.096,0.7,1.027,0.038,0.579
	C0.028,65.451,0.005,66.428,0,67.513c0.468,0.906,0.737,1.234,0.044,0.63c0.005,0.88,0.018,1.841,0.045,2.876
	c0.262,0.605,1.227,1.299,0.02,0.719c0.031,1.027,0.146,2.43,0.296,3.86c0.029,0.282,1.138,2.004,0.046,0.938
	c0.284,2.518,0.699,4.822,0.911,5.195c0.079,0.646,10.815,1.275,12.95,0.594c0.058,0.007,0.116,0.014,0.179,0.014
	c0.469,0.01,0.714-1.53,0.845-3.23l13.216,1.456l0.473-2.585l20.585,0.561v0.023l0.387-0.011l0.394,0.011V78.54l20.585-0.561
	l0.473,2.585l13.218-1.458c0.132,1.702,0.378,3.242,0.845,3.232c0.061,0,0.121-0.007,0.182-0.014
	c2.133,0.682,12.87,0.053,12.948-0.594c0.21-0.373,0.626-2.678,0.911-5.195c-1.092,1.065,0.018-0.656,0.047-0.938
	c0.148-1.431,0.262-2.833,0.294-3.86c-1.208,0.58-0.243-0.113,0.021-0.719c0.027-1.035,0.04-1.996,0.043-2.876
	C99.263,68.747,99.529,68.419,100,67.513z"/>
</svg>
