<?xml version="1.0" encoding="utf-8"?>
<!-- Generator: Adobe Illustrator 14.0.0, SVG Export Plug-In . SVG Version: 6.00 Build 43363)  -->
<!DOCTYPE svg PUBLIC "-//W3C//DTD SVG 1.1//EN" "http://www.w3.org/Graphics/SVG/1.1/DTD/svg11.dtd">
<svg version="1.1" id="Layer_1" xmlns="http://www.w3.org/2000/svg" xmlns:xlink="http://www.w3.org/1999/xlink" x="0px" y="0px"
	 width="100px" height="100px" viewBox="0 0 100 100" enable-background="new 0 0 100 100" xml:space="preserve">
<g>
	<path fill-rule="evenodd" clip-rule="evenodd" fill="#6D6E70" d="M57.646,6.768H42.242C41.921-2.334,57.925-2.178,57.646,6.768"/>
	<path fill-rule="evenodd" clip-rule="evenodd" fill="#6D6E70" d="M30.195,5.189C22.28,13.6,14.116,21.762,5.706,29.678
		C-4.845,19.283,5.711,1.543,18.938,0.844C23.756,0.59,27.309,2.723,30.195,5.189"/>
	<path fill-rule="evenodd" clip-rule="evenodd" fill="#6D6E70" d="M94.184,29.678c-8.41-7.916-16.573-16.078-24.49-24.49
		C83.366-8.992,108.865,15.094,94.184,29.678"/>
	<path fill-rule="evenodd" clip-rule="evenodd" fill="#6D6E70" d="M74.828,87.543c0.344,2.727,6.41,12.543,0.199,12.443
		c-3.607-0.059-4.24-6.738-6.32-8.691c-9.498,5.449-27.879,5.623-37.328,0c-2.302,1.461-2.721,8.439-6.32,8.691
		c-6.318,0.439-0.624-9.504,0-12.246C13.593,79,3.436,61.314,9.854,41.133c4.932-15.506,17.703-28.225,36.732-29.625
		C68.988,9.861,84.92,24.275,90.037,40.541C96.402,60.773,86.738,78.867,74.828,87.543 M18.347,49.23
		c8.84-2.221,8.598,10.832,0,8.689C21.088,73.346,30.243,82.359,45.6,85.174c-2.102-8.857,10.772-8.865,8.69,0
		c15.354-2.814,24.513-11.828,27.253-27.254c-8.609,2.158-8.846-10.93,0-8.689c-2.68-15.688-12.053-24.68-27.648-27.453
		c0.344,2.979-0.549,4.719-1.777,6.125c0.961,6.211,0.744,13.605,1.186,20.342c1.423,1.406,2.863,2.797,2.766,5.727
		c2.893,3.207,5.832,6.443,8.886,9.873c1.743,1.961,3.891,6.564-0.593,6.715c-1.771,0.062-2.496-1.229-3.752-2.369
		c-3.318-3.014-7.343-5.973-9.875-8.689c-4.654,0.186-7.46-2.736-6.912-6.912c0.238-1.811,2.024-2.73,2.567-4.344
		c0.876-2.605,0.428-6.939,0.593-10.271c0.189-3.811,0.031-7.311,0.789-10.27c-0.561-0.746-1.244-1.191-1.58-2.369
		c-0.331-1.176,0.346-2.904-0.789-3.557C30.336,24.881,20.924,33.641,18.347,49.23"/>
</g>
</svg>
