<?xml version="1.0" encoding="utf-8"?>
<!-- Generator: Adobe Illustrator 14.0.0, SVG Export Plug-In . SVG Version: 6.00 Build 43363)  -->
<!DOCTYPE svg PUBLIC "-//W3C//DTD SVG 1.1//EN" "http://www.w3.org/Graphics/SVG/1.1/DTD/svg11.dtd">
<svg version="1.1" id="Layer_1" xmlns="http://www.w3.org/2000/svg" xmlns:xlink="http://www.w3.org/1999/xlink" x="0px" y="0px"
	 width="100px" height="100px" viewBox="0 0 100 100" enable-background="new 0 0 100 100" xml:space="preserve">
<g>
	<polygon fill="#6D6E70" points="52.811,77.988 44.108,58.979 25.473,63.766 60.859,29.121 	"/>
	<path fill="#6D6E70" d="M50.004,100C22.43,100,0,77.568,0,50C0,22.428,22.43,0,50.004,0C77.569,0,100,22.428,100,50
		C100,77.568,77.569,100,50.004,100 M50.004,5.535C25.484,5.535,5.535,25.482,5.535,50s19.949,44.465,44.469,44.465
		c24.516,0,44.462-19.947,44.462-44.465S74.52,5.535,50.004,5.535"/>
</g>
</svg>
