<?xml version="1.0" encoding="utf-8"?>
<!-- Generator: Adobe Illustrator 14.0.0, SVG Export Plug-In . SVG Version: 6.00 Build 43363)  -->
<!DOCTYPE svg PUBLIC "-//W3C//DTD SVG 1.1//EN" "http://www.w3.org/Graphics/SVG/1.1/DTD/svg11.dtd">
<svg version="1.1" id="Layer_1" xmlns="http://www.w3.org/2000/svg" xmlns:xlink="http://www.w3.org/1999/xlink" x="0px" y="0px"
	 width="100px" height="100px" viewBox="0 0 100 100" enable-background="new 0 0 100 100" xml:space="preserve">
<g>
	<circle fill="#D0D2D3" cx="20.655" cy="61.639" r="7.057"/>
	<circle fill="#D0D2D3" cx="83.524" cy="61.639" r="7.057"/>
	<path fill="#D0D2D3" d="M70.199,40.325c-3.304-4.02-10.564-9.021-26.231-9.021c-19.242,0-26.498,6.404-28.71,9.946l-9.075,1.343
		c-1.691,0.568-2.632,1.365-3.227,3.228L0,58.415c0,1.78,1.445,3.224,3.226,3.224h6.34c0-6.124,4.965-11.089,11.09-11.089
		s11.091,4.965,11.091,11.089h40.688c0-6.124,4.966-11.089,11.091-11.089c6.124,0,11.091,4.965,11.091,11.089h0.349
		c3.213-2.1,5.036-4.503,5.036-7.057C100,47.886,87.468,42.22,70.199,40.325z M38.037,56.021v2.753h-1.976v-2.578
		c-0.952-0.075-1.778-0.349-2.503-0.7v-3.128c1.076,0.627,1.776,0.975,2.702,0.975c0.976,0,1.676-0.574,1.676-1.726
		c0-0.575-0.174-1.375-1.676-3.002c-2.152-2.352-2.953-3.578-2.953-5.604c0-2.153,1.076-3.704,2.754-4.28v-2.002h1.976v1.751
		c0.927,0.052,1.627,0.276,2.228,0.526v3.13c-0.951-0.553-1.527-0.803-2.328-0.803c-0.851,0-1.575,0.55-1.575,1.578
		c0,0.725,0.25,1.226,1.701,2.901c2.401,2.778,2.929,3.954,2.929,5.832C40.991,53.844,39.765,55.471,38.037,56.021z M48.696,56.021
		v2.753H46.72v-2.578c-0.951-0.075-1.777-0.349-2.503-0.7v-3.128c1.076,0.627,1.776,0.975,2.703,0.975
		c0.976,0,1.677-0.574,1.677-1.726c0-0.575-0.175-1.375-1.677-3.002c-2.151-2.352-2.952-3.578-2.952-5.604
		c0-2.153,1.075-3.704,2.752-4.28v-2.002h1.977v1.751c0.926,0.052,1.627,0.276,2.228,0.526v3.13
		c-0.95-0.553-1.527-0.803-2.327-0.803c-0.852,0-1.576,0.55-1.576,1.578c0,0.725,0.249,1.226,1.7,2.901
		c2.403,2.778,2.929,3.954,2.929,5.832C51.649,53.844,50.424,55.471,48.696,56.021z M59.356,56.021v2.753h-1.979v-2.578
		c-0.95-0.075-1.776-0.349-2.501-0.7v-3.128c1.075,0.627,1.776,0.975,2.701,0.975c0.978,0,1.677-0.574,1.677-1.726
		c0-0.575-0.175-1.375-1.677-3.002c-2.151-2.352-2.953-3.578-2.953-5.604c0-2.153,1.077-3.704,2.753-4.28v-2.002h1.979v1.751
		c0.924,0.052,1.626,0.276,2.226,0.526v3.13c-0.95-0.553-1.526-0.803-2.327-0.803c-0.852,0-1.576,0.55-1.576,1.578
		c0,0.725,0.25,1.226,1.701,2.901c2.403,2.778,2.928,3.954,2.928,5.832C62.308,53.844,61.083,55.471,59.356,56.021z"/>
</g>
</svg>
