<?xml version="1.0" encoding="utf-8"?>
<!-- Generator: Adobe Illustrator 14.0.0, SVG Export Plug-In . SVG Version: 6.00 Build 43363)  -->
<!DOCTYPE svg PUBLIC "-//W3C//DTD SVG 1.1//EN" "http://www.w3.org/Graphics/SVG/1.1/DTD/svg11.dtd">
<svg version="1.1" id="Layer_1" xmlns="http://www.w3.org/2000/svg" xmlns:xlink="http://www.w3.org/1999/xlink" x="0px" y="0px"
	 width="100px" height="100px" viewBox="0 0 100 100" enable-background="new 0 0 100 100" xml:space="preserve">
<path fill-rule="evenodd" clip-rule="evenodd" fill="#BBBDBF" d="M72.967,55.095c-1.095-0.112-2.111,0.817-2.935,0.367
	c-0.73-16.18,2.842-32.09-0.733-46.404c-0.563-2.259-1.379-5.683-2.201-6.419c-0.826-0.74-3.693-1.511-5.686-1.835
	c-7.575-1.233-17.516-0.998-24.209,0.367c-4.726,0.964-5.008,2.157-6.054,6.419c-0.393,1.601-0.812,3.304-1.1,4.769
	c-2.661,13.548,0.994,29.861-0.367,43.469c-0.759-0.341-1.694-0.508-2.568-0.733c-0.516,1.073-1.164,2.014-0.915,3.852
	c0.618,1.58,2.549,1.851,3.668,2.934c0.107,3.247-0.539,6.646,0,9.722c-3.914,15.445,3.162,27.06,16.873,28.245
	c17.246,1.489,25.59-7.938,24.393-24.396c-0.12-1.646-0.873-3.089-1.101-4.584c-0.463-3.043,0.346-5.804,0-9.171
	C73.074,61.431,75.113,57.842,72.967,55.095z"/>
</svg>
