<?xml version="1.0" encoding="utf-8"?>
<!-- Generator: Adobe Illustrator 14.0.0, SVG Export Plug-In . SVG Version: 6.00 Build 43363)  -->
<!DOCTYPE svg PUBLIC "-//W3C//DTD SVG 1.1//EN" "http://www.w3.org/Graphics/SVG/1.1/DTD/svg11.dtd">
<svg version="1.1" id="Layer_1" xmlns="http://www.w3.org/2000/svg" xmlns:xlink="http://www.w3.org/1999/xlink" x="0px" y="0px"
	 width="100px" height="100px" viewBox="0 0 100 100" enable-background="new 0 0 100 100" xml:space="preserve">
<g>
	<path fill="#6D6E70" d="M52.849,6.451c-25.789,0-46.773,20.982-46.773,46.775C6.075,79.018,27.06,100,52.849,100
		c25.795,0,46.777-20.982,46.777-46.773C99.626,27.434,78.644,6.451,52.849,6.451z M85.296,83.521l-4.834-4.834l-1.674-1.672
		c-0.529,0.582-1.082,1.145-1.654,1.689l1.674,1.672l4.83,4.824c-7.701,7.414-18.051,12.084-29.479,12.418
		c-0.438,0.006-0.871,0.02-1.311,0.02c-0.35,0-0.701-0.006-1.057-0.014c-11.486-0.271-21.91-4.926-29.654-12.354l4.826-4.826
		l1.672-1.672c-0.572-0.545-1.121-1.107-1.658-1.688l-1.672,1.672l-4.83,4.834C13.247,75.895,8.731,65.621,8.456,54.32H7.132v-2.365
		h0.035v2.355h1.318c0,0.002,0,0.002,0,0.002h6.805c0,0.002,0,0.006,0,0.008h2.367c-0.012-0.363-0.02-0.729-0.02-1.094
		c0-0.426,0.008-0.854,0.025-1.271h-2.338c0-0.002,0-0.006,0-0.01H8.491c0,0.002,0,0.002,0,0.004H8.462
		c0.316-11.229,4.832-21.422,12.02-29.08l25.084,25.088c-1.076,1.484-1.719,3.303-1.719,5.27c0,4.961,4.039,9.004,9.006,9.004
		c4.961,0,9.002-4.043,9.002-9.004c0-4.963-4.041-9.002-9.002-9.002c-1.59,0-3.084,0.418-4.383,1.145L23.259,20.158
		c7.586-6.799,17.51-11.035,28.408-11.324v6.834v2.367c0.396-0.012,0.787-0.021,1.182-0.021c0.398,0,0.793,0.01,1.184,0.021v-2.367
		V8.834C65.29,9.131,75.515,13.635,83.19,20.826l-4.83,4.83l-1.674,1.672c0.58,0.539,1.143,1.09,1.689,1.658l1.67-1.67l4.83-4.828
		c7.391,7.703,12.043,18.051,12.365,29.467h-6.834H88.04c0.016,0.422,0.025,0.846,0.025,1.271c0,0.365-0.01,0.729-0.02,1.094h2.369
		h6.834C96.976,65.588,92.481,75.828,85.296,83.521z M52.853,47.328c3.248,0,5.895,2.646,5.895,5.898
		c0,3.254-2.646,5.896-5.895,5.896c-3.254,0-5.898-2.643-5.898-5.896C46.954,49.975,49.599,47.328,52.853,47.328z"/>
	<polygon fill="#6D6E70" points="6.931,19.088 18.95,18.58 19.462,6.557 16.46,9.559 6.903,0 0.374,6.523 9.935,16.082 	"/>
</g>
</svg>
