<?xml version="1.0" encoding="utf-8"?>
<!-- Generator: Adobe Illustrator 14.0.0, SVG Export Plug-In  -->
<!DOCTYPE svg PUBLIC "-//W3C//DTD SVG 1.1//EN" "http://www.w3.org/Graphics/SVG/1.1/DTD/svg11.dtd" [
	<!ENTITY ns_flows "http://ns.adobe.com/Flows/1.0/">
]>
<svg version="1.1"
	 xmlns="http://www.w3.org/2000/svg" xmlns:xlink="http://www.w3.org/1999/xlink" xmlns:a="http://ns.adobe.com/AdobeSVGViewerExtensions/3.0/"
	 x="0px" y="0px" width="100px" height="100px" viewBox="-12.92 0 100 100" enable-background="new -12.92 0 100 100"
	 xml:space="preserve">
<defs>
</defs>
<path fill="#6D6E70" d="M62.849,0H11.312C5.073,0,0,5.173,0,11.535v76.927C0,94.824,5.073,100,11.312,100h51.537
	c6.236,0,11.312-5.176,11.312-11.538V11.535C74.16,5.173,69.085,0,62.849,0 M11.312,8.817h51.537c1.373,0,2.492,1.219,2.492,2.718
	v10.688H8.818V11.535C8.818,10.036,9.938,8.817,11.312,8.817 M62.849,91.181H11.312c-1.374,0-2.493-1.221-2.493-2.719V31.043h56.522
	v57.419C65.341,89.96,64.222,91.181,62.849,91.181"/>
<path fill="#6D6E70" d="M37.275,37.519c-3.314,0-6.001,2.688-6.001,6.002c0,3.312,2.687,5.999,6.001,5.999s6.001-2.687,6.001-5.999
	C43.276,40.206,40.59,37.519,37.275,37.519"/>
<path fill="#6D6E70" d="M54.295,37.519c-3.313,0-6,2.688-6,6.002c0,3.312,2.687,5.999,6,5.999s6.001-2.687,6.001-5.999
	C60.296,40.206,57.608,37.519,54.295,37.519"/>
<path fill="#6D6E70" d="M20.256,37.519c-3.313,0-6.001,2.688-6.001,6.002c0,3.312,2.688,5.999,6.001,5.999c3.314,0,6-2.687,6-5.999
	C26.256,40.206,23.57,37.519,20.256,37.519"/>
<path fill="#6D6E70" d="M37.275,55.502c-3.314,0-6.001,2.686-6.001,5.999c0,3.314,2.687,6.002,6.001,6.002s6.001-2.688,6.001-6.002
	C43.276,58.188,40.59,55.502,37.275,55.502"/>
<path fill="#6D6E70" d="M54.295,55.502c-3.313,0-6,2.686-6,5.999c0,3.314,2.687,6.002,6,6.002s6.001-2.688,6.001-6.002
	C60.296,58.188,57.608,55.502,54.295,55.502"/>
<path fill="#6D6E70" d="M20.256,55.502c-3.313,0-6.001,2.686-6.001,5.999c0,3.314,2.688,6.002,6.001,6.002c3.314,0,6-2.688,6-6.002
	C26.256,58.188,23.57,55.502,20.256,55.502"/>
<path fill="#6D6E70" d="M37.275,73.483c-3.314,0-6.001,2.688-6.001,6.002c0,3.313,2.687,5.999,6.001,5.999s6.001-2.686,6.001-5.999
	C43.276,76.171,40.59,73.483,37.275,73.483"/>
<path fill="#6D6E70" d="M54.295,73.483c-3.313,0-6,2.688-6,6.002c0,3.313,2.687,5.999,6,5.999s6.001-2.686,6.001-5.999
	C60.296,76.171,57.608,73.483,54.295,73.483"/>
<path fill="#6D6E70" d="M20.256,73.483c-3.313,0-6.001,2.688-6.001,6.002c0,3.313,2.688,5.999,6.001,5.999c3.314,0,6-2.686,6-5.999
	C26.256,76.171,23.57,73.483,20.256,73.483"/>
</svg>
