<?xml version="1.0" encoding="utf-8"?>
<!-- Generator: Adobe Illustrator 14.0.0, SVG Export Plug-In . SVG Version: 6.00 Build 43363)  -->
<!DOCTYPE svg PUBLIC "-//W3C//DTD SVG 1.1//EN" "http://www.w3.org/Graphics/SVG/1.1/DTD/svg11.dtd">
<svg version="1.1" id="Layer_1" xmlns="http://www.w3.org/2000/svg" xmlns:xlink="http://www.w3.org/1999/xlink" x="0px" y="0px"
	 width="100px" height="100px" viewBox="0 0 100 100" enable-background="new 0 0 100 100" xml:space="preserve">
<g>
	<path fill="#6D6E70" d="M27.917,48.357c-1.975,0-3.575,1.979-3.575,4.422c0,2.442,1.601,4.423,3.575,4.423s3.574-1.98,3.574-4.423
		C31.492,50.336,29.892,48.357,27.917,48.357"/>
	<path fill="#6D6E70" d="M68.16,31.285c-5.092-2.466-29.997-3.089-36.043,0c-2.193,1.119-2.977,9.384-2.977,9.384h41.684
		C70.824,40.669,70.355,32.351,68.16,31.285"/>
	<path fill="#6D6E70" d="M62.832,51.894H37.091c-0.525,0-0.951,0.528-0.951,1.181c0,0.651,0.426,1.18,0.951,1.18h25.741
		c0.525,0,0.951-0.528,0.951-1.18C63.783,52.422,63.357,51.894,62.832,51.894"/>
	<path fill="#6D6E70" d="M72.006,48.357c-1.975,0-3.574,1.979-3.574,4.422c0,2.442,1.6,4.423,3.574,4.423s3.574-1.98,3.574-4.423
		C75.58,50.336,73.98,48.357,72.006,48.357"/>
	<path fill="#6D6E70" d="M50,0C22.386,0,0,22.386,0,50c0,27.615,22.386,50,50,50c27.614,0,50-22.385,50-50C100,22.386,77.613,0,50,0
		 M35.867,71.883c0,3.792-2.494,6.88-5.561,6.88h-4.37c-3.065,0-5.562-3.088-5.562-6.88v-7.015h15.492V71.883z M79.24,71.883
		c0,3.792-2.494,6.88-5.562,6.88h-4.367c-3.066,0-5.562-3.088-5.562-6.88v-7.015H79.24V71.883z M82.131,56.069
		c0,3.795-2.492,6.883-5.561,6.883H23.044c-3.066,0-5.561-3.088-5.561-6.883v-5.404c0-3.07,1.635-5.673,3.883-6.555
		c0,0,2.707-16.708,6.513-20.512c1.745-1.746,42.994-1.691,44.683,0c3.783,3.78,5.85,20.581,5.85,20.581
		c2.162,0.943,3.719,3.492,3.719,6.485V56.069z"/>
</g>
</svg>
