<?xml version="1.0" encoding="utf-8"?>
<!-- Generator: Adobe Illustrator 14.0.0, SVG Export Plug-In . SVG Version: 6.00 Build 43363)  -->
<!DOCTYPE svg PUBLIC "-//W3C//DTD SVG 1.1//EN" "http://www.w3.org/Graphics/SVG/1.1/DTD/svg11.dtd">
<svg version="1.1" id="Layer_1" xmlns="http://www.w3.org/2000/svg" xmlns:xlink="http://www.w3.org/1999/xlink" x="0px" y="0px"
	 width="100px" height="100px" viewBox="0 0 100 100" enable-background="new 0 0 100 100" xml:space="preserve">
<g>
	<path fill="#6D6E70" d="M88.421,30.253H16.208V12.588c1.657-1.223,2.739-3.188,2.739-5.408c0-3.723-3.018-6.733-6.736-6.733
		S5.48,3.457,5.48,7.18c0,2.219,1.074,4.185,2.733,5.408v18.116C3.461,31.993,0,35.942,0,40.597v48.608
		c0,5.707,5.197,10.348,11.577,10.348h76.844c6.384,0,11.579-4.641,11.579-10.348V40.597C100,34.895,94.805,30.253,88.421,30.253z
		 M92.002,89.205c0,1.112-1.472,2.347-3.581,2.347H11.577c-2.11,0-3.575-1.234-3.575-2.347V57.907h84V89.205z M92.002,49.913h-84
		v-9.315c0-1.108,1.465-2.339,3.575-2.339h76.844c2.109,0,3.581,1.231,3.581,2.339V49.913z"/>
	<path fill="#6D6E70" d="M38.28,78.137h45.476c1.977,0,3.579-1.603,3.579-3.578c0-1.98-1.603-3.581-3.579-3.581H38.28
		c-1.974,0-3.577,1.601-3.577,3.581C34.703,76.534,36.306,78.137,38.28,78.137z"/>
	<path fill="#6D6E70" d="M44.493,68.505h33.049c1.977,0,3.582-1.6,3.582-3.574c0-1.98-1.605-3.581-3.582-3.581H44.493
		c-1.978,0-3.577,1.601-3.577,3.581C40.916,66.905,42.515,68.505,44.493,68.505z"/>
	<path fill="#6D6E70" d="M76.81,80.609H45.225c-1.972,0-3.577,1.604-3.577,3.581c0,1.975,1.605,3.575,3.577,3.575H76.81
		c1.972,0,3.576-1.601,3.576-3.575C80.386,82.213,78.781,80.609,76.81,80.609z"/>
	<path fill="#6D6E70" d="M16.085,77.65c2.143,0,3.885-1.742,3.885-3.883s-1.742-3.876-3.885-3.876c-2.138,0-3.875,1.735-3.875,3.876
		S13.947,77.65,16.085,77.65z"/>
	<path fill="#6D6E70" d="M83.244,40.417c-2.138,0-3.874,1.739-3.874,3.877c0,2.141,1.736,3.88,3.874,3.88
		c2.146,0,3.88-1.739,3.88-3.88C87.124,42.156,85.39,40.417,83.244,40.417z"/>
	<path fill="#6D6E70" d="M16.085,88.067c2.143,0,3.885-1.739,3.885-3.877c0-2.146-1.742-3.88-3.885-3.88
		c-2.138,0-3.875,1.733-3.875,3.88C12.21,86.328,13.947,88.067,16.085,88.067z"/>
</g>
</svg>
