<?xml version="1.0" encoding="utf-8"?>
<!-- Generator: Adobe Illustrator 14.0.0, SVG Export Plug-In . SVG Version: 6.00 Build 43363)  -->
<!DOCTYPE svg PUBLIC "-//W3C//DTD SVG 1.1//EN" "http://www.w3.org/Graphics/SVG/1.1/DTD/svg11.dtd">
<svg version="1.1" id="Layer_1" xmlns="http://www.w3.org/2000/svg" xmlns:xlink="http://www.w3.org/1999/xlink" x="0px" y="0px"
	 width="100px" height="100px" viewBox="0 0 100 100" enable-background="new 0 0 100 100" xml:space="preserve">
<path fill="#BBBDBF" d="M59.894,98.655c7.061,3.334,15.518,0.253,18.865-6.867c3.357-7.124,0.343-15.595-6.72-18.924
	c-0.237-0.113-0.483-0.202-0.725-0.298L58.612,36.793c-0.889-2.503-3.135-4.123-5.613-4.394l9.035-9.381
	c1.479-1.542,2.129-4.54,1.414-6.55l-4.15-11.704c-0.708-2.007-3.102-3.906-5.224-4.143l-5.509-0.6
	c-0.899-0.096-1.605,0.114-1.993,0.6c-0.387,0.486-0.431,1.225-0.124,2.083l2.664,7.5c0.456,1.295,0.383,2.692-0.207,3.949
	c-0.582,1.239-1.608,2.182-2.89,2.651l-8.047,2.928c-2.651,0.961-5.584-0.415-6.536-3.073l-2.658-7.525
	c-0.304-0.857-0.806-1.395-1.409-1.52c-0.608-0.127-1.285,0.158-1.917,0.81l-3.87,4.022c-1.484,1.539-2.135,4.544-1.415,6.558
	l4.153,11.699c0.714,2.011,3.106,3.913,5.224,4.142l12.852,1.411c-1.739,1.802-2.443,4.5-1.557,7.004l12.705,35.771
	c-0.122,0.228-0.257,0.45-0.376,0.697l-0.002,0.002C49.81,86.848,52.82,95.321,59.894,98.655 M62.784,92.52
	c-3.696-1.749-5.279-6.197-3.532-9.917c0.857-1.807,2.353-3.177,4.224-3.85c1.866-0.689,3.879-0.596,5.668,0.252
	c3.703,1.741,5.286,6.186,3.526,9.925C70.918,92.646,66.478,94.262,62.784,92.52"/>
</svg>
