<?xml version="1.0" encoding="utf-8"?>
<!-- Generator: Adobe Illustrator 14.0.0, SVG Export Plug-In . SVG Version: 6.00 Build 43363)  -->
<!DOCTYPE svg PUBLIC "-//W3C//DTD SVG 1.1//EN" "http://www.w3.org/Graphics/SVG/1.1/DTD/svg11.dtd">
<svg version="1.1" id="Layer_1" xmlns="http://www.w3.org/2000/svg" xmlns:xlink="http://www.w3.org/1999/xlink" x="0px" y="0px"
	 width="100px" height="100px" viewBox="0 0 100 100" enable-background="new 0 0 100 100" xml:space="preserve">
<path fill="#BBBDBF" d="M81.66,37.974c3.195-17.486-8.392-34.25-25.877-37.444c-17.486-3.193-34.25,8.392-37.444,25.877
	c-2.803,15.346,5.779,30.134,19.74,35.685l-5.556,30.412c-0.631,3.453,1.658,6.762,5.108,7.393c3.453,0.63,6.763-1.656,7.394-5.109
	l5.555-30.413C65.604,64.117,78.857,53.318,81.66,37.974 M47.598,53.931c-0.465-0.211-0.957-0.376-1.483-0.472
	c-0.524-0.095-1.046-0.115-1.555-0.083c-11.034-2.821-18.161-13.741-16.083-25.117c2.171-11.886,13.568-19.762,25.454-17.592
	c11.885,2.171,19.762,13.567,17.592,25.456C69.444,47.496,58.918,55.192,47.598,53.931"/>
</svg>
