<?xml version="1.0" encoding="utf-8"?>
<!-- Generator: Adobe Illustrator 14.0.0, SVG Export Plug-In . SVG Version: 6.00 Build 43363)  -->
<!DOCTYPE svg PUBLIC "-//W3C//DTD SVG 1.1//EN" "http://www.w3.org/Graphics/SVG/1.1/DTD/svg11.dtd">
<svg version="1.1" id="Layer_1" xmlns="http://www.w3.org/2000/svg" xmlns:xlink="http://www.w3.org/1999/xlink" x="0px" y="0px"
	 width="220px" height="60px" viewBox="0 0 220 60" enable-background="new 0 0 220 60" xml:space="preserve">
<g>
	<path fill="#807F83" d="M134.145,5.121l-0.831,5.583h3.663l-4.207,28.247h7.041l4.209-28.247h3.667l0.835-5.583H134.145z
		 M149.645,5.121l-5.042,33.83h7.039l2.001-13.414h0.5c1.041,0,1.5,0.249,1.5,1.042c0,0.249,0,0.499-0.042,0.75l-1.749,11.622h7.041
		l1.624-10.998c0.126-0.75,0.168-1.459,0.168-2.041c0-1.874-0.709-2.874-2.584-3.459c3.331-1.125,3.75-3.125,4.288-6.833
		l0.502-3.502c0.209-1.333,0.333-2.372,0.333-3.205c0-3.334-2.333-3.793-7.456-3.793H149.645z M155.893,10.58h0.583
		c1.042,0,1.46,0.125,1.46,0.958c0,0.042-0.046,0.5-0.168,1.291l-0.626,4.207c-0.249,1.667-0.333,2.25-1.832,2.25
		c-0.209,0-0.417-0.041-0.709-0.041L155.893,10.58z M167.433,5.121l-5.04,33.83h11.288l0.792-5.5h-4.21l1.544-10.331h4.207
		l0.834-5.5h-4.249l1.042-7.041h4.25l0.834-5.459H167.433z M179.973,5.121l-5.043,33.83h6.085l2.456-16.582h0.293l0.916,16.582
		h6.541l5.042-33.83h-6.042l-2.624,17.332h-0.294l-0.748-17.332H179.973z M198.344,5.121l-5.041,33.83h8.166
		c3.624,0,5.873-0.083,7.294-1.5c1.247-1.208,1.498-2.958,1.873-5.497l2.957-19.875c0.251-1.543,0.332-2.625,0.332-3.25
		c0-3.416-2.457-3.709-7.457-3.709H198.344z M204.596,10.537c0.248,0,0.458-0.039,0.663-0.039c1,0,1.377,0.249,1.377,1.041
		c0,0.084-0.042,0.456-0.168,1.167l-2.789,18.75c-0.21,1.538-0.291,2.08-1.793,2.08c-0.209,0-0.417-0.04-0.708-0.04L204.596,10.537z
		"/>
	<path fill="#EC1C24" d="M40.395,5.122l-5.042,33.829h6.374l2.917-19.499h0.25L44.52,38.951h3.957l5.417-19.499h0.291l-2.917,19.499
		H57.6l5.084-33.829H54.06l-4.959,17.122H48.81l0.208-17.122H40.395z M79.848,11.913c0.208-1.416,0.333-2.5,0.333-3.334
		c0-3.457-2.416-3.665-7.417-3.665c-3.666,0-5.998,0.042-7.416,1.54c-1.166,1.209-1.416,2.999-1.79,5.459l-3,20.206
		c-0.251,1.582-0.333,2.833-0.333,3.708c0,2.999,2.583,3.375,7.417,3.375c3.667,0,5.916-0.124,7.292-1.499
		c1.29-1.292,1.5-3.084,1.874-5.584L79.848,11.913z M72.764,12.12l-2.957,19.79c-0.167,1.124-0.375,1.707-1.333,1.707
		c-0.667,0-0.918-0.29-0.918-0.997c0-0.21,0-0.418,0.042-0.71l2.96-19.79c0.166-1.04,0.332-1.665,1.248-1.665
		c0.75,0,1.042,0.292,1.042,0.999C72.849,11.495,72.849,11.703,72.764,12.12 M81.805,5.122l-0.833,5.583h3.666l-4.208,28.247h7.041
		l4.208-28.247h3.666l0.832-5.583H81.805z M112.387,11.913c0.207-1.416,0.333-2.5,0.333-3.334c0-3.457-2.417-3.665-7.416-3.665
		c-3.667,0-6,0.042-7.416,1.54c-1.167,1.209-1.418,2.999-1.794,5.459l-2.999,20.206c-0.249,1.582-0.334,2.833-0.334,3.708
		c0,2.999,2.585,3.375,7.417,3.375c3.667,0,5.917-0.124,7.291-1.499c1.291-1.292,1.5-3.084,1.875-5.584L112.387,11.913z
		 M105.304,12.12l-2.959,19.79c-0.168,1.124-0.375,1.707-1.333,1.707c-0.666,0-0.917-0.29-0.917-0.997c0-0.21,0-0.418,0.042-0.71
		l2.957-19.79c0.169-1.04,0.334-1.665,1.252-1.665c0.75,0,1.041,0.292,1.041,0.999C105.385,11.495,105.385,11.703,105.304,12.12
		 M115.302,5.122l-5.042,33.829h7.042l1.998-13.415h0.5c1.042,0,1.499,0.25,1.499,1.042c0,0.25,0,0.5-0.039,0.751l-1.752,11.622
		h7.042l1.625-10.998c0.123-0.75,0.164-1.458,0.164-2.042c0-1.873-0.705-2.873-2.58-3.458c3.332-1.125,3.748-3.125,4.292-6.833
		l0.499-3.5c0.206-1.334,0.333-2.375,0.333-3.206c0-3.334-2.333-3.792-7.459-3.792H115.302z M121.551,10.579h0.582
		c1.042,0,1.459,0.126,1.459,0.959c0,0.042-0.041,0.5-0.168,1.29l-0.627,4.208c-0.247,1.667-0.33,2.25-1.829,2.25
		c-0.21,0-0.417-0.041-0.707-0.041L121.551,10.579z"/>
	<path d="M45.006,51.158c-0.913,1.766-2.665,2.821-5.725,2.821c-2.273,0-3.678-0.632-4.378-1.75
		c-0.668-1.009-0.786-2.743-0.496-4.683c0.271-1.794,0.882-3.451,1.743-4.35c1.051-1.324,2.721-2.031,5.15-2.031
		c3.345,0,4.664,1.306,4.834,3.119c0.075,0.646-0.002,1.576-0.078,2.081h-3.627c0.069-0.474,0.056-1.01-0.048-1.372
		c-0.182-0.568-0.613-0.852-1.576-0.852c-0.851,0-1.412,0.27-1.809,0.805c-0.398,0.552-0.657,1.545-0.819,2.617
		c-0.201,1.339-0.204,2.302,0.042,2.757c0.279,0.569,0.85,0.759,1.559,0.759c0.884,0,1.451-0.301,1.754-0.742
		c0.304-0.455,0.444-0.961,0.528-1.42h3.645C45.615,49.406,45.407,50.479,45.006,51.158"/>
	<polygon points="46.043,53.804 47.919,41.323 57.325,41.323 56.887,44.237 51.063,44.237 50.784,46.099 56.37,46.099 
		55.935,48.998 50.348,48.998 50.06,50.921 55.945,50.921 55.513,53.804 	"/>
	<path d="M67.881,47.517c-0.442,0.632-1,0.992-1.509,1.118l1.732,5.169h-3.929l-1.277-4.411h-1.974l-0.662,4.411h-3.567l1.876-12.48
		h6.926c1.5,0,2.443,0.44,2.911,1.214c0.379,0.629,0.485,1.496,0.307,2.679C68.565,46.226,68.261,46.981,67.881,47.517
		 M65.084,44.711c-0.122-0.346-0.431-0.488-0.905-0.488H61.75c0,0-0.365,2.428-0.375,2.491h2.509c0.363,0,0.745-0.128,0.909-0.38
		c0.142-0.204,0.256-0.55,0.294-0.804C65.132,45.23,65.153,44.884,65.084,44.711"/>
	<polygon points="76.203,44.284 74.771,53.804 71.08,53.804 72.511,44.284 69.149,44.284 69.594,41.323 80.041,41.323 
		79.595,44.284 	"/>
	<polygon points="79.001,53.804 80.877,41.323 84.632,41.323 82.756,53.804 	"/>
	<polygon points="89.315,44.284 89.028,46.209 94.25,46.209 93.805,49.171 88.583,49.171 87.885,53.804 84.242,53.804 
		86.116,41.323 95.314,41.323 94.873,44.284 	"/>
	<polygon points="94.466,53.804 96.341,41.323 100.098,41.323 98.222,53.804 	"/>
	<polygon points="99.705,53.804 101.581,41.323 110.987,41.323 110.546,44.237 104.725,44.237 104.444,46.099 110.03,46.099 
		109.595,48.998 104.01,48.998 103.722,50.921 109.607,50.921 109.173,53.804 	"/>
	<path d="M116.573,53.804h-6.217l1.876-12.48h5.964c2.037,0,3.229,0.472,3.791,1.448c0.576,0.994,0.542,2.063,0.171,4.539
		c-0.427,2.839-0.727,3.894-1.556,4.889C119.771,53.224,118.546,53.804,116.573,53.804 M118.654,47.311
		c0.117-0.785,0.248-2.174,0.063-2.521c-0.304-0.506-0.658-0.661-1.415-0.661h-1.877l-1.038,6.902h1.894
		c0.772,0,1.229-0.188,1.613-0.663C118.227,49.943,118.523,48.162,118.654,47.311"/>
	<polygon points="132.938,53.804 128.501,53.804 126.416,41.323 130.25,41.323 131.39,49.977 135.145,41.323 138.868,41.323 	"/>
	<polygon points="137.772,53.804 139.647,41.323 149.091,41.323 148.653,44.237 142.807,44.237 142.527,46.099 148.138,46.099 
		147.7,48.998 142.09,48.998 141.801,50.921 147.713,50.921 147.279,53.804 	"/>
	<polygon points="155.615,53.804 156.319,49.125 152.816,49.125 152.114,53.804 148.471,53.804 150.346,41.323 153.99,41.323 
		153.281,46.035 156.783,46.035 157.491,41.323 161.136,41.323 159.26,53.804 	"/>
	<polygon points="160.8,53.804 162.674,41.323 166.447,41.323 164.571,53.804 	"/>
	<path d="M177.232,51.158c-0.913,1.766-2.672,2.821-5.746,2.821c-2.282,0-3.692-0.632-4.396-1.75
		c-0.672-1.009-0.791-2.743-0.5-4.683c0.27-1.794,0.883-3.451,1.747-4.35c1.055-1.324,2.729-2.031,5.169-2.031
		c3.358,0,4.684,1.306,4.855,3.119c0.076,0.646,0.001,1.576-0.075,2.081h-3.645c0.071-0.474,0.057-1.01-0.047-1.372
		c-0.184-0.568-0.617-0.852-1.584-0.852c-0.855,0-1.419,0.27-1.816,0.805c-0.398,0.552-0.66,1.545-0.819,2.617
		c-0.202,1.339-0.203,2.302,0.044,2.757c0.278,0.569,0.852,0.759,1.567,0.759c0.886,0,1.452-0.301,1.759-0.742
		c0.304-0.455,0.445-0.961,0.528-1.42h3.661C177.845,49.406,177.637,50.479,177.232,51.158"/>
	<polygon points="178.279,53.804 180.156,41.323 183.881,41.323 182.459,50.779 187.72,50.779 187.265,53.804 	"/>
	<polygon points="188.171,53.804 190.045,41.323 199.489,41.323 199.049,44.237 193.204,44.237 192.926,46.099 198.534,46.099 
		198.098,48.998 192.49,48.998 192.2,50.921 198.11,50.921 197.677,53.804 	"/>
	<path d="M203.911,53.994c-3.456,0-4.856-1.118-4.985-2.79c-0.029-0.33,0.023-0.992,0.071-1.323h3.692
		c-0.022,0.158-0.034,0.645,0.024,0.79c0.125,0.44,0.648,0.644,1.692,0.644c1.172,0,1.633-0.314,1.732-0.977
		c0.105-0.709-0.347-0.961-1.728-1.371c-0.407-0.126-1.271-0.393-1.604-0.505c-2.19-0.613-3.362-1.448-3.026-3.688
		c0.316-2.112,2.478-3.624,5.885-3.624c3.166,0,4.482,1.165,4.725,2.822c0.061,0.44,0.049,1.056,0.014,1.291h-3.709
		c0.019-0.126,0.044-0.505-0.007-0.693c-0.106-0.44-0.516-0.678-1.482-0.678c-1.235,0-1.614,0.298-1.693,0.819
		c-0.108,0.741,0.637,1.042,2.147,1.419c0.415,0.095,1.104,0.346,1.517,0.455c2.042,0.555,3.004,1.529,2.684,3.658
		C209.509,52.576,207.443,53.994,203.911,53.994"/>
	<g>
		<rect x="1.997" y="2.868" fill="none" width="30.173" height="54.265"/>
		<g>
			<rect x="1.997" y="2.867" fill="none" width="30.173" height="54.266"/>
			
				<image overflow="visible" width="932" height="1675" xlink:href="A4B603B7.png"  transform="matrix(0.0324 0 0 0.0324 1.9971 2.8667)">
			</image>
		</g>
	</g>
	<path fill="#231F20" d="M217.245,6.872c-0.064,0.09-0.166,0.15-0.277,0.165l0.498,0.856h-0.464l-0.441-0.785h-0.549v0.785h-0.414
		V6.007h1.101c0.278,0,0.445,0.075,0.537,0.208c0.064,0.093,0.083,0.185,0.083,0.337C217.318,6.694,217.294,6.798,217.245,6.872
		 M216.877,6.396c-0.037-0.07-0.123-0.109-0.267-0.109h-0.595v0.553h0.626c0.112-0.004,0.191-0.033,0.223-0.083
		c0.021-0.041,0.036-0.117,0.036-0.173C216.9,6.511,216.891,6.427,216.877,6.396"/>
	<circle fill="none" stroke="#231F20" stroke-width="0.34" stroke-miterlimit="10" cx="216.435" cy="6.982" r="1.568"/>
</g>
</svg>
