<?xml version="1.0" encoding="utf-8"?>
<!-- Generator: Adobe Illustrator 14.0.0, SVG Export Plug-In . SVG Version: 6.00 Build 43363)  -->
<!DOCTYPE svg PUBLIC "-//W3C//DTD SVG 1.1//EN" "http://www.w3.org/Graphics/SVG/1.1/DTD/svg11.dtd">
<svg version="1.1" id="Layer_1" xmlns="http://www.w3.org/2000/svg" xmlns:xlink="http://www.w3.org/1999/xlink" x="0px" y="0px"
	 width="100px" height="100px" viewBox="0 0 100 100" enable-background="new 0 0 100 100" xml:space="preserve">
<g>
	<circle fill="#BBBDBF" cx="20.655" cy="61.639" r="7.058"/>
	<circle fill="#BBBDBF" cx="83.524" cy="61.639" r="7.058"/>
	<path fill="#BBBDBF" d="M70.199,40.322c-3.304-4.019-10.564-9.019-26.231-9.019c-19.242,0-26.498,6.402-28.709,9.945l-9.076,1.344
		c-1.691,0.567-2.632,1.365-3.227,3.227L0,58.414c0,1.78,1.445,3.225,3.226,3.225h6.339c0-6.125,4.965-11.091,11.09-11.091
		c6.125,0,11.092,4.966,11.092,11.091h40.687c0-6.125,4.966-11.091,11.091-11.091c6.124,0,11.091,4.966,11.091,11.091h0.349
		c3.213-2.102,5.036-4.505,5.036-7.058C100,47.885,87.468,42.218,70.199,40.322z M47.858,55.369v2.754h-1.976v-2.578
		c-0.951-0.074-1.777-0.351-2.502-0.702v-3.127c1.076,0.626,1.775,0.976,2.702,0.976c0.977,0,1.677-0.576,1.677-1.727
		c0-0.575-0.175-1.375-1.677-3.002c-2.153-2.352-2.953-3.579-2.953-5.606c0-2.152,1.077-3.703,2.753-4.278v-2.002h1.976v1.75
		c0.926,0.052,1.626,0.276,2.228,0.527v3.128c-0.951-0.552-1.528-0.802-2.327-0.802c-0.852,0-1.578,0.551-1.578,1.576
		c0,0.726,0.252,1.227,1.703,2.902c2.402,2.777,2.928,3.953,2.928,5.832C50.812,53.192,49.585,54.819,47.858,55.369z"/>
</g>
</svg>
