<?xml version="1.0" encoding="utf-8"?>
<!-- Generator: Adobe Illustrator 14.0.0, SVG Export Plug-In . SVG Version: 6.00 Build 43363)  -->
<!DOCTYPE svg PUBLIC "-//W3C//DTD SVG 1.1//EN" "http://www.w3.org/Graphics/SVG/1.1/DTD/svg11.dtd">
<svg version="1.1" id="Layer_1" xmlns="http://www.w3.org/2000/svg" xmlns:xlink="http://www.w3.org/1999/xlink" x="0px" y="0px"
	 width="100px" height="100px" viewBox="0 0 100 100" enable-background="new 0 0 100 100" xml:space="preserve">
<path fill="#B39759" d="M50,0c-14.955,0-27.075,12.115-27.075,27.07c0,0.258,0.014,0.508,0.02,0.76
	C22.163,56.205,49.911,100,49.911,100s26.164-41.299,26.958-69.669c0.131-1.072,0.205-2.152,0.205-3.26C77.074,12.116,64.953,0,50,0
	 M50,45.459c-10.153,0-18.389-8.232-18.389-18.389c0-10.152,8.235-18.385,18.389-18.385c10.158,0,18.388,8.232,18.388,18.385
	C68.389,37.227,60.158,45.459,50,45.459"/>
</svg>
