<?xml version="1.0" encoding="utf-8"?>
<!-- Generator: Adobe Illustrator 14.0.0, SVG Export Plug-In . SVG Version: 6.00 Build 43363)  -->
<!DOCTYPE svg PUBLIC "-//W3C//DTD SVG 1.1//EN" "http://www.w3.org/Graphics/SVG/1.1/DTD/svg11.dtd">
<svg version="1.1" id="Layer_1" xmlns="http://www.w3.org/2000/svg" xmlns:xlink="http://www.w3.org/1999/xlink" x="0px" y="0px"
	 width="100px" height="100px" viewBox="0 0 100 100" enable-background="new 0 0 100 100" xml:space="preserve">
<path fill="#6D6E70" d="M92.984,11.944H7.016C3.145,11.944,0,15.085,0,18.956v51.471c0,3.869,3.145,7.016,7.016,7.016h21.461
	c1.252,2.617,0.818,3.936-1.312,6.891l-2.686,3.723h5.969l2.688-3.723c0,0,1.834-3.547,0.762-6.891h14.58
	c1.252,2.617,0.82,3.936-1.312,6.891l-2.689,3.723h5.973l2.689-3.723c0,0,1.83-3.547,0.76-6.891h14.582
	c1.254,2.617,0.82,3.936-1.312,6.891l-2.688,3.723h5.969l2.688-3.723c0,0,1.832-3.547,0.762-6.891h19.088
	c3.871,0,7.016-3.146,7.016-7.016V18.956C100,15.085,96.855,11.944,92.984,11.944z M93.135,70.427c0,0.078-0.068,0.152-0.15,0.152
	H70.479c-0.287-3.445,1.912-6.58,2.955-7.805c1.492-1.752,2.08-5.676-1.494-11.631c-2.812-4.697-0.486-4.58,1.066-10.4h4.404
	l-7.408-13.607l-7.416,13.607h4.846c-1.105,1.748-4.443,7.799-1.162,12.592c2.625,3.84,3.584,5.035,0.896,9.439
	c-1.715,2.811-2.324,5.258-1.852,7.805H50.481c-0.287-3.445,1.912-6.58,2.953-7.805c1.492-1.752,2.08-5.676-1.492-11.631
	c-2.814-4.697-0.486-4.58,1.061-10.4h4.406l-7.41-13.607L42.59,40.743h4.842c-1.109,1.748-4.443,7.799-1.16,12.592
	c2.625,3.84,3.578,5.035,0.893,9.439c-1.715,2.811-2.324,5.258-1.852,7.805H30.481c-0.285-3.445,1.91-6.58,2.953-7.805
	c1.492-1.752,2.078-5.676-1.494-11.631c-2.812-4.697-0.486-4.58,1.064-10.4h4.408l-7.414-13.607L22.59,40.743h4.84
	c-1.107,1.748-4.445,7.799-1.16,12.592c2.625,3.84,3.58,5.035,0.895,9.439c-1.715,2.811-2.322,5.258-1.85,7.805H7.016
	c-0.086,0-0.148-0.074-0.148-0.152V18.956c0-0.082,0.062-0.15,0.148-0.15h85.968c0.082,0,0.15,0.068,0.15,0.15V70.427z"/>
</svg>
