<?xml version="1.0" encoding="utf-8"?>
<!-- Generator: Adobe Illustrator 14.0.0, SVG Export Plug-In . SVG Version: 6.00 Build 43363)  -->
<!DOCTYPE svg PUBLIC "-//W3C//DTD SVG 1.1//EN" "http://www.w3.org/Graphics/SVG/1.1/DTD/svg11.dtd">
<svg version="1.1" id="Layer_1" xmlns="http://www.w3.org/2000/svg" xmlns:xlink="http://www.w3.org/1999/xlink" x="0px" y="0px"
	 width="100px" height="100px" viewBox="0 0 100 100" enable-background="new 0 0 100 100" xml:space="preserve">
<g>
	<path fill="#BBBDBF" d="M70.198,40.323c-3.305-4.02-10.564-9.021-26.23-9.021c-19.242,0-26.5,6.405-28.709,9.947l-9.077,1.344
		c-1.691,0.567-2.632,1.364-3.227,3.226L0,58.413c0,1.783,1.443,3.227,3.226,3.227h6.339c0-6.125,4.964-11.09,11.091-11.09
		c6.126,0,11.091,4.965,11.091,11.09h40.684c0-6.125,4.967-11.09,11.093-11.09s11.089,4.965,11.089,11.09h0.354
		c3.21-2.104,5.034-4.506,5.034-7.059C100,47.885,87.465,42.219,70.198,40.323"/>
	<path fill="#BBBDBF" d="M27.712,61.64c0,3.897-3.159,7.059-7.056,7.059c-3.898,0-7.059-3.161-7.059-7.059s3.161-7.059,7.059-7.059
		C24.553,54.581,27.712,57.742,27.712,61.64"/>
	<path fill="#BBBDBF" d="M90.58,61.64c0,3.897-3.158,7.059-7.057,7.059s-7.059-3.161-7.059-7.059s3.16-7.059,7.059-7.059
		S90.58,57.742,90.58,61.64"/>
</g>
</svg>
