<?xml version="1.0" encoding="utf-8"?>
<!-- Generator: Adobe Illustrator 14.0.0, SVG Export Plug-In . SVG Version: 6.00 Build 43363)  -->
<!DOCTYPE svg PUBLIC "-//W3C//DTD SVG 1.1//EN" "http://www.w3.org/Graphics/SVG/1.1/DTD/svg11.dtd">
<svg version="1.1" id="Layer_1" xmlns="http://www.w3.org/2000/svg" xmlns:xlink="http://www.w3.org/1999/xlink" x="0px" y="0px"
	 width="100px" height="100px" viewBox="0 0 100 100" enable-background="new 0 0 100 100" xml:space="preserve">
<g>
	<circle fill="#D0D2D3" cx="20.655" cy="61.639" r="7.059"/>
	<circle fill="#D0D2D3" cx="83.524" cy="61.639" r="7.059"/>
	<path fill="#D0D2D3" d="M70.199,40.323c-3.304-4.019-10.564-9.021-26.231-9.021c-19.242,0-26.498,6.405-28.71,9.947l-9.075,1.344
		c-1.691,0.567-2.632,1.363-3.227,3.226L0,58.414c0,1.78,1.445,3.226,3.226,3.226h6.34c0-6.126,4.965-11.091,11.09-11.091
		s11.091,4.965,11.091,11.091h40.688c0-6.126,4.966-11.091,11.091-11.091c6.124,0,11.091,4.965,11.091,11.091h0.349
		c3.213-2.102,5.036-4.506,5.036-7.06C100,47.885,87.468,42.22,70.199,40.323z M42.797,55.498v2.754H40.82v-2.578
		c-0.952-0.075-1.777-0.352-2.503-0.701v-3.127c1.077,0.625,1.776,0.975,2.703,0.975c0.976,0,1.677-0.574,1.677-1.726
		c0-0.576-0.175-1.376-1.677-3.004c-2.153-2.351-2.953-3.577-2.953-5.604c0-2.151,1.076-3.702,2.753-4.278v-2.002h1.977v1.752
		c0.926,0.05,1.626,0.275,2.227,0.524v3.128c-0.95-0.55-1.526-0.8-2.326-0.8c-0.852,0-1.578,0.55-1.578,1.575
		c0,0.728,0.252,1.227,1.703,2.904c2.401,2.776,2.928,3.954,2.928,5.83C45.75,53.321,44.523,54.95,42.797,55.498z M53.17,55.498
		v2.754h-1.978v-2.578c-0.951-0.075-1.776-0.352-2.501-0.701v-3.127c1.075,0.625,1.776,0.975,2.702,0.975
		c0.976,0,1.676-0.574,1.676-1.726c0-0.576-0.175-1.376-1.676-3.004c-2.152-2.351-2.953-3.577-2.953-5.604
		c0-2.151,1.075-3.702,2.752-4.278v-2.002h1.978v1.752c0.926,0.05,1.627,0.275,2.226,0.524v3.128c-0.948-0.55-1.525-0.8-2.326-0.8
		c-0.85,0-1.576,0.55-1.576,1.575c0,0.728,0.251,1.227,1.701,2.904c2.403,2.776,2.928,3.954,2.928,5.83
		C56.122,53.321,54.897,54.95,53.17,55.498z"/>
</g>
</svg>
