<?xml version="1.0" encoding="utf-8"?>
<!-- Generator: Adobe Illustrator 14.0.0, SVG Export Plug-In . SVG Version: 6.00 Build 43363)  -->
<!DOCTYPE svg PUBLIC "-//W3C//DTD SVG 1.1//EN" "http://www.w3.org/Graphics/SVG/1.1/DTD/svg11.dtd">
<svg version="1.1" id="Layer_1" xmlns="http://www.w3.org/2000/svg" xmlns:xlink="http://www.w3.org/1999/xlink" x="0px" y="0px"
	 width="650px" height="195px" viewBox="0 0 650 195" enable-background="new 0 0 650 195" xml:space="preserve">
<g>
	<polygon fill="#333333" points="433.477,188.767 433.988,188.722 433.061,188.661 	"/>
	<path fill="#666666" d="M354.166,29.311C73.855,67.918,0,89.735,0,89.735v72.176l355.844,26.016l78.72-4.163L431.65,33.198
		C400.318,31.107,371.986,29.548,354.166,29.311"/>
	<path fill="#929497" d="M431.797,6.233l-0.66,0.393l0.514,26.572l2.914,150.565l0.164,4.89l41.118-3.79l-0.122-7.558
		l-2.223-111.798l0.439,1.004c0,0,58.74-0.452,130.982,11.624c4.214,0.703,8.469,1.445,12.779,2.239v93.756L650,171.253V36.442
		C531.666,14.621,431.797,6.233,431.797,6.233"/>
	<polygon fill="#666666" points="434.73,188.767 434.729,188.652 433.989,188.722 	"/>
	<polygon fill="#6D6E70" points="431.137,6.628 431.133,6.234 413.123,11.267 414.326,184.832 433.061,188.661 433.988,188.722 
		434.729,188.652 	"/>
	<path fill="#58595B" d="M604.924,78.134v92.883l12.779,3.142V80.375C617.703,80.375,614.733,79.707,604.924,78.134"/>
	<path fill="#6D6E70" d="M353.959,29.34C73.817,67.929,0,89.735,0,89.735v72.176l7.133,0.521l33.359,2.439l8.186,0.6l33.356,2.44
		l8.186,0.596l37.575,2.745l226.164,16.538V29.34z"/>
	<g enable-background="new    ">
		<g>
			<polygon fill="#757676" points="624.178,50.118 621.121,50.975 621.129,50.425 624.186,49.569 			"/>
			<g enable-background="new    ">
				<g>
					<g>
						<path fill="none" d="M624.186,49.569l-3.056,0.857c0.044-2.196-0.696-3.13-1.807-3.243l3.056-0.842
							C623.49,46.455,624.229,47.384,624.186,49.569"/>
						<g enable-background="new    ">
							<g>
								<path fill="#787879" d="M624.186,49.569l-3.057,0.855c0.043-2.194-0.695-3.129-1.805-3.241l3.057-0.844
									C623.49,46.453,624.229,47.384,624.186,49.569"/>
							</g>
						</g>
					</g>
				</g>
			</g>
			<polygon fill="#737474" points="622.379,46.34 619.323,47.184 619.233,47.17 622.289,46.328 			"/>
			<g enable-background="new    ">
				<g>
					<g>
						<path fill="none" d="M622.859,52.923l-3.055,0.872c0.773-0.221,1.283-1.063,1.317-2.822l3.056-0.856
							C624.145,51.865,623.633,52.703,622.859,52.923"/>
						<g enable-background="new    ">
							<g>
								<path fill="#7C7D7D" d="M622.859,52.923l-3.055,0.872c0.033-0.009,0.068-0.02,0.101-0.032l3.056-0.873
									C622.928,52.901,622.895,52.913,622.859,52.923"/>
								<path fill="#787879" d="M622.961,52.89l-3.056,0.873c0.716-0.265,1.184-1.107,1.216-2.788l3.057-0.858
									C624.145,51.787,623.677,52.628,622.961,52.89"/>
							</g>
						</g>
					</g>
				</g>
			</g>
			<g enable-background="new    ">
				<g>
					<g>
						<path fill="none" d="M624.618,57.514l-3.058,0.891c-0.565,0.166-1.146,0.251-1.718,0.267
							c-0.231,0.009-0.462,0.003-0.688-0.013l3.056-0.895c0.227,0.017,0.458,0.021,0.69,0.016
							C623.471,57.763,624.051,57.679,624.618,57.514"/>
						<g enable-background="new    ">
							<g>
								<path fill="#787879" d="M624.618,57.513l-3.058,0.892c-0.565,0.166-1.146,0.251-1.718,0.267
									c-0.231,0.009-0.462,0.003-0.69-0.013l3.057-0.893c0.228,0.015,0.459,0.021,0.689,0.014
									C623.471,57.763,624.051,57.679,624.618,57.513"/>
							</g>
						</g>
					</g>
				</g>
			</g>
			<polygon fill="#737474" points="622.209,57.766 619.153,58.66 618.998,58.65 622.054,57.756 			"/>
			<polygon fill="#757676" points="616.936,64.059 613.879,64.989 614.344,41.806 617.399,40.979 			"/>
			<polygon fill="#737474" points="621.92,64.463 618.863,65.389 613.879,64.989 616.936,64.059 			"/>
			<path fill="#DCDDDE" d="M622.088,41.508c4.273,0.487,7.166,3.228,7.062,8.638l-0.006,0.39c-0.123,5.3-3.315,7.161-6.243,7.244
				c-0.232,0.006-0.464,0.001-0.69-0.014l-0.155-0.01l-0.135,6.707l-4.984-0.404l0.464-23.08L622.088,41.508z M624.186,49.569
				c0.043-2.186-0.695-3.116-1.805-3.229l-0.093-0.012l-0.125,6.646h0.052c0.078,0.006,0.156,0.009,0.232,0.008
				c1-0.021,1.689-0.822,1.73-2.864L624.186,49.569"/>
			<polygon fill="#737474" points="615.516,63.942 612.458,64.872 607.434,64.454 610.49,63.517 			"/>
			<polygon fill="#757676" points="610.49,63.518 607.434,64.454 607.898,41.04 610.954,40.206 			"/>
			<polygon fill="#DCDDDE" points="610.954,40.206 615.992,40.813 615.515,63.942 610.49,63.518 			"/>
			<polygon fill="#757676" points="604.373,48.449 601.316,49.331 601.506,40.292 604.562,39.453 			"/>
			<polygon fill="#737474" points="604.275,53.829 601.22,54.732 598.779,54.506 601.836,53.599 			"/>
			<polygon fill="#737474" points="609.084,63.397 606.026,64.338 601.029,63.922 604.086,62.979 			"/>
			<polygon fill="#757676" points="604.086,62.977 601.029,63.922 601.22,54.732 604.276,53.829 			"/>
			<polygon fill="#DCDDDE" points="597.098,38.563 602.123,39.172 601.945,48.201 604.373,48.449 604.562,39.453 609.547,40.054 
				609.082,63.397 604.086,62.977 604.276,53.831 601.836,53.599 601.656,62.765 596.621,62.338 			"/>
			<polygon fill="#757676" points="596.621,62.338 593.564,63.289 594.041,39.409 597.098,38.562 			"/>
			<polygon fill="#737474" points="601.656,62.765 598.602,63.709 593.565,63.289 596.621,62.338 			"/>
			<g enable-background="new    ">
				<g>
					<g>
						<path fill="none" d="M588.049,43.93l3.056-0.876c0.118-0.034,0.245-0.052,0.384-0.054c0.068,0,0.141,0.003,0.215,0.011
							c1.11,0.137,2.304,0.682,3.527,1.604l-3.057,0.876c-1.224-0.925-2.416-1.469-3.528-1.604
							c-0.073-0.008-0.144-0.012-0.214-0.011C588.293,43.878,588.166,43.896,588.049,43.93"/>
						<g enable-background="new    ">
							<g>
								<path fill="#787879" d="M595.229,44.614l-3.057,0.876c-1.224-0.925-2.417-1.469-3.526-1.604
									c-0.074-0.009-0.146-0.012-0.215-0.012c-0.139,0.001-0.267,0.021-0.383,0.054l3.057-0.874
									c0.115-0.035,0.245-0.053,0.381-0.055c0.07,0,0.142,0.003,0.217,0.013C592.812,43.147,594.006,43.692,595.229,44.614"/>
							</g>
						</g>
					</g>
				</g>
			</g>
			<g enable-background="new    ">
				<g>
					<g>
						<path fill="none" d="M586.069,38.553l3.056-0.856c-2.254,0.632-3.859,2.812-3.912,6.193l-3.055,0.89
							C582.209,41.38,583.815,39.188,586.069,38.553"/>
						<g enable-background="new    ">
							<g>
								<path fill="#787879" d="M585.213,43.89l-3.057,0.889c0.051-3.206,1.482-5.34,3.541-6.104l3.055-0.856
									C586.695,38.575,585.264,40.696,585.213,43.89"/>
								<path fill="#7C7D7D" d="M588.753,37.817l-3.056,0.856c0.121-0.045,0.246-0.085,0.372-0.121l3.056-0.856
									C589,37.73,588.875,37.771,588.753,37.817"/>
							</g>
						</g>
					</g>
				</g>
			</g>
			<polygon fill="#757676" points="585.203,44.098 582.146,44.988 582.156,44.779 585.213,43.89 			"/>
			<g enable-background="new    ">
				<g>
					<g>
						<path fill="none" d="M589.996,56.499l-3.057,0.934c0.51-0.156,0.789-0.579,0.803-1.243c0.016-0.826-0.475-1.551-1.625-2.853
							c-2.725-3.007-4.038-4.809-3.971-8.349l3.057-0.891c-0.066,3.527,1.246,5.322,3.971,8.32c1.149,1.298,1.641,2.021,1.625,2.844
							C590.785,55.923,590.505,56.343,589.996,56.499"/>
						<g enable-background="new    ">
							<g>
								<path fill="#7C7D7D" d="M589.996,56.499l-3.057,0.934c0.033-0.009,0.062-0.02,0.094-0.032l3.059-0.935
									C590.061,56.479,590.029,56.49,589.996,56.499"/>
								<path fill="#787879" d="M590.09,56.466l-3.057,0.935c0.451-0.179,0.695-0.588,0.71-1.209
									c0.014-0.828-0.476-1.553-1.626-2.854c-2.725-3.007-4.038-4.809-3.969-8.349l3.055-0.891
									c-0.068,3.527,1.246,5.323,3.972,8.321c1.147,1.297,1.64,2.021,1.624,2.843C590.786,55.881,590.54,56.29,590.09,56.466"/>
							</g>
						</g>
					</g>
				</g>
			</g>
			<polygon fill="#757676" points="585.189,60.272 582.133,61.229 582.244,55.546 585.302,54.611 			"/>
			<g enable-background="new    ">
				<g>
					<g>
						<path fill="none" d="M591.783,61.812l-3.055,0.956c-0.447,0.141-0.918,0.221-1.401,0.24c-0.226,0.008-0.456,0.003-0.687-0.019
							c-1.719-0.154-3.385-0.818-4.506-1.761l3.055-0.957c1.123,0.938,2.789,1.601,4.508,1.76c0.23,0.021,0.461,0.027,0.688,0.018
							C590.867,62.032,591.337,61.951,591.783,61.812"/>
						<g enable-background="new    ">
							<g>
								<path fill="#787879" d="M591.783,61.812l-3.057,0.955c-0.445,0.142-0.916,0.222-1.399,0.239
									c-0.227,0.01-0.456,0.004-0.687-0.015c-1.719-0.156-3.385-0.822-4.506-1.763l3.055-0.956c1.123,0.937,2.788,1.6,4.507,1.76
									c0.23,0.02,0.462,0.024,0.688,0.017C590.867,62.033,591.337,61.953,591.783,61.812"/>
							</g>
						</g>
					</g>
				</g>
			</g>
			<path fill="#DCDDDE" d="M590.534,37.507c0.243,0,0.491,0.016,0.741,0.045c1.744,0.215,3.025,0.741,4.074,1.424l-0.12,5.638
				c-1.223-0.922-2.416-1.464-3.528-1.601c-0.072-0.01-0.145-0.015-0.213-0.013c-0.74,0.006-1.203,0.505-1.23,1.231
				c-0.014,0.838,0.46,1.51,1.666,2.886c2.733,3.101,4,4.93,3.95,8.301l-0.014,0.162c-0.08,3.919-2.522,6.362-5.476,6.47
				c-0.227,0.008-0.458,0.003-0.688-0.017c-1.719-0.16-3.384-0.823-4.507-1.761l0.113-5.661c1.27,1.03,2.699,1.817,3.967,1.944
				c0.102,0.008,0.2,0.012,0.293,0.01c0.785-0.022,1.219-0.475,1.236-1.304c0.016-0.822-0.476-1.546-1.625-2.844
				c-2.725-2.997-4.039-4.795-3.971-8.32l0.01-0.208C585.275,39.837,587.566,37.515,590.534,37.507"/>
			<polygon fill="#757676" points="579.428,45.287 576.371,46.19 576.373,45.515 579.43,44.616 			"/>
			<g enable-background="new    ">
				<g>
					<g>
						<path fill="none" d="M579.428,44.616l-3.055,0.898c0.044-2.338-0.74-3.23-1.863-3.37l3.057-0.887
							C578.689,41.396,579.474,42.286,579.428,44.616"/>
						<g enable-background="new    ">
							<g>
								<path fill="#787879" d="M579.429,44.616l-3.056,0.9c0.043-2.34-0.738-3.232-1.863-3.372l3.057-0.887
									C578.69,41.396,579.473,42.286,579.429,44.616"/>
							</g>
						</g>
					</g>
				</g>
			</g>
			<polygon fill="#737474" points="577.566,41.258 574.51,42.145 574.393,42.132 577.449,41.243 			"/>
			<g enable-background="new    ">
				<g>
					<g>
						<path fill="none" d="M578.123,48.187l-3.057,0.917c0.76-0.228,1.258-1.106,1.307-2.914l3.055-0.903
							C579.381,47.087,578.882,47.959,578.123,48.187"/>
						<g enable-background="new    ">
							<g>
								<path fill="#7C7D7D" d="M578.123,48.187l-3.056,0.917c0.034-0.012,0.066-0.022,0.099-0.035l3.057-0.916
									C578.19,48.165,578.158,48.177,578.123,48.187"/>
								<path fill="#787879" d="M578.223,48.152l-3.057,0.915c0.703-0.272,1.16-1.149,1.205-2.877l3.057-0.903
									C579.383,47.009,578.926,47.881,578.223,48.152"/>
							</g>
						</g>
					</g>
				</g>
			</g>
			<polygon fill="#737474" points="577.402,52.996 574.345,53.935 574.164,53.908 577.219,52.972 			"/>
			<polygon fill="#747475" points="579.213,60.776 576.156,61.745 574.346,53.936 577.4,52.996 			"/>
			<polygon fill="#737474" points="584.572,61.257 581.516,62.22 576.156,61.745 579.213,60.776 			"/>
			<polygon fill="#737474" points="577.082,60.582 574.024,61.553 569.027,61.088 572.084,60.111 			"/>
			<polygon fill="#757676" points="572.084,60.111 569.026,61.086 569.491,36.401 572.547,35.528 			"/>
			<path fill="#DCDDDE" d="M582.887,38.984c1.117,1.403,1.752,3.387,1.692,6.011l0.003,0.385c-0.076,3.411-1.218,5.095-2.598,6.165
				l2.588,9.712l-5.361-0.479l-1.809-7.782l-0.182-0.024l-0.139,7.612l-5-0.473l0.465-24.583l4.998,0.625
				C579.741,36.433,581.624,37.323,582.887,38.984 M579.429,44.616c0.044-2.33-0.738-3.22-1.862-3.358l-0.116-0.016l-0.136,6.979
				l0.144,0.015c0.088,0.011,0.174,0.015,0.257,0.014c0.986-0.019,1.658-0.856,1.713-2.962L579.429,44.616"/>
			<polygon fill="#737474" points="571.244,40.936 568.188,41.833 563.437,41.274 566.492,40.371 			"/>
			<polygon fill="#737474" points="570.549,50.267 567.492,51.203 563.256,50.753 566.313,49.812 			"/>
			<polygon fill="#757676" points="561.105,59.077 558.049,60.062 558.514,35.01 561.57,34.126 			"/>
			<polygon fill="#737474" points="570.973,60.014 567.917,60.991 558.049,60.063 561.105,59.077 			"/>
			<polygon fill="#DCDDDE" points="561.57,34.127 571.358,35.38 571.244,40.936 566.492,40.37 566.412,44.369 570.65,44.855 
				570.548,50.265 566.312,49.811 566.232,53.963 571.075,54.454 570.972,60.014 561.105,59.077 			"/>
		</g>
	</g>
	<g enable-background="new    ">
		<g>
			<polygon fill="#DCDDDE" points="551.498,32.821 556.521,33.47 556.159,52.931 560.253,53.347 560.15,58.988 551.033,58.108 			
				"/>
			<polygon fill="#737474" points="560.15,58.988 557.094,59.975 547.977,59.106 551.032,58.108 			"/>
			<polygon fill="#757676" points="551.033,58.108 547.977,59.106 548.441,33.714 551.498,32.821 			"/>
		</g>
	</g>
	<g enable-background="new    ">
		<g>
			<polygon fill="#757576" points="544.615,48.127 541.559,49.09 540.766,41.152 543.822,40.217 			"/>
			<polygon fill="#737474" points="550.543,58.063 547.485,59.061 542.502,58.576 545.559,57.576 			"/>
			<polygon fill="#757576" points="545.558,57.576 542.502,58.576 542.063,54.214 545.119,53.228 			"/>
			<polygon fill="#737474" points="545.119,53.228 542.063,54.212 539.029,53.894 542.085,52.903 			"/>
			<polygon fill="#737474" points="536.633,36.66 533.577,37.591 528.826,36.992 531.881,36.056 			"/>
			<polygon fill="#737474" points="541.488,57.163 538.434,58.168 533.563,57.673 536.62,56.661 			"/>
			<polygon fill="#767777" points="536.62,56.661 533.563,57.671 538.042,32.301 541.098,31.397 			"/>
			<path fill="#DCDDDE" d="M547.026,32.184l3.515,25.88l-4.983-0.487l-0.438-4.347l-3.035-0.325l-0.596,4.257l-4.868-0.5
				l4.478-25.264L547.026,32.184z M542.781,47.913l1.834,0.214l-0.792-7.91L542.781,47.913"/>
			<polygon fill="#737474" points="535.938,46.444 532.882,47.416 528.646,46.931 531.703,45.956 			"/>
			<polygon fill="#737474" points="536.35,56.653 533.293,57.665 523.426,56.656 526.482,55.636 			"/>
			<polygon fill="#757676" points="526.483,55.636 523.427,56.658 523.903,30.428 526.959,29.51 			"/>
			<polygon fill="#DCDDDE" points="526.959,29.51 536.735,30.843 536.633,36.66 531.881,36.058 531.803,40.241 536.039,40.762 
				535.939,46.444 531.703,45.954 531.621,50.285 536.465,50.815 536.35,56.653 526.482,55.636 			"/>
			<polygon fill="#757676" points="520.482,42.642 517.428,43.621 517.453,41.952 520.51,40.981 			"/>
			<g enable-background="new    ">
				<g>
					<g>
						<path fill="none" d="M520.51,40.979l-3.057,0.973c0.096-5.316-0.994-6.67-2.559-6.903l3.055-0.947
							C519.515,34.335,520.605,35.684,520.51,40.979"/>
						<g enable-background="new    ">
							<g>
								<path fill="#787879" d="M520.51,40.979l-3.057,0.971c0.096-5.314-0.996-6.668-2.56-6.899l3.056-0.951
									C519.515,34.335,520.605,35.684,520.51,40.979"/>
							</g>
						</g>
					</g>
				</g>
			</g>
			<g enable-background="new    ">
				<g>
					<g>
						<path fill="none" d="M518.496,48.811l-3.056,1.006c1.126-0.371,1.912-1.95,1.987-6.195l3.055-0.978
							C520.408,46.871,519.623,48.441,518.496,48.811"/>
						<g enable-background="new    ">
							<g>
								<path fill="#7C7D7D" d="M518.497,48.811l-3.057,1.006c0.044-0.017,0.087-0.032,0.129-0.049l3.057-1.006
									C518.584,48.781,518.541,48.797,518.497,48.811"/>
								<path fill="#787879" d="M518.626,48.762l-3.057,1.006c1.058-0.449,1.786-2.066,1.858-6.146l3.056-0.978
									C520.412,46.709,519.683,48.315,518.626,48.762"/>
							</g>
						</g>
					</g>
				</g>
			</g>
			<g enable-background="new    ">
				<g>
					<g>
						<path fill="none" d="M520.399,54.374l-3.057,1.023c-0.594,0.201-1.24,0.314-1.935,0.337c-0.39,0.013-0.795-0.003-1.217-0.048
							l3.057-1.029c0.421,0.045,0.828,0.061,1.217,0.048C519.158,54.684,519.805,54.572,520.399,54.374"/>
						<g enable-background="new    ">
							<g>
								<path fill="#787879" d="M520.4,54.374l-3.057,1.023c-0.595,0.201-1.24,0.314-1.935,0.337
									c-0.392,0.013-0.796-0.003-1.216-0.048l3.055-1.027c0.421,0.043,0.826,0.059,1.218,0.046
									C519.159,54.684,519.805,54.572,520.4,54.374"/>
							</g>
						</g>
					</g>
				</g>
			</g>
			<polygon fill="#757676" points="512.562,54.17 509.505,55.206 509.982,28.511 513.038,27.577 			"/>
			<polygon fill="#737474" points="517.248,54.657 514.191,55.687 509.504,55.206 512.561,54.17 			"/>
			<path fill="#DCDDDE" d="M517.727,28.236c5.385,0.754,8.069,5.536,7.929,13.459l-0.025,1.491
				c-0.13,7.309-2.556,11.375-7.165,11.521c-0.391,0.012-0.795-0.005-1.217-0.048l-4.687-0.489l0.478-26.593L517.727,28.236z
				 M520.51,40.979c0.096-5.296-0.995-6.645-2.561-6.88l-0.264,14.795c0.089,0.006,0.178,0.009,0.263,0.007
				c1.413-0.034,2.449-1.371,2.534-6.26L520.51,40.979"/>
		</g>
	</g>
	<g enable-background="new    ">
		<g>
			<g enable-background="new    ">
				<g>
					<g>
						<path fill="none" d="M501.088,33.293l3.057-0.965c0.164-0.052,0.332-0.074,0.503-0.074c0.092-0.002,0.185,0.005,0.277,0.017
							c0.854,0.128,1.561,0.537,2.421,1.336l-3.057,0.964c-0.861-0.804-1.566-1.21-2.42-1.337c-0.094-0.013-0.188-0.019-0.279-0.019
							C501.42,33.217,501.252,33.241,501.088,33.293"/>
						<g enable-background="new    ">
							<g>
								<path fill="#787879" d="M507.346,33.606l-3.058,0.964c-0.86-0.803-1.565-1.212-2.419-1.337
									c-0.094-0.013-0.188-0.019-0.279-0.019c-0.17,0.002-0.338,0.026-0.502,0.078l3.057-0.963
									c0.164-0.052,0.332-0.076,0.503-0.078c0.091,0,0.185,0.007,0.277,0.021C505.779,32.4,506.484,32.808,507.346,33.606"/>
							</g>
						</g>
					</g>
				</g>
			</g>
			<g enable-background="new    ">
				<g>
					<g>
						<path fill="none" d="M505.973,47.341l-3.057,1.019c0.363-0.12,0.763-0.312,1.24-0.574l3.057-1.014
							C506.734,47.032,506.336,47.221,505.973,47.341"/>
						<g enable-background="new    ">
							<g>
								<path fill="#7C7D7D" d="M505.973,47.343l-3.057,1.017c0.131-0.043,0.266-0.094,0.406-0.155l3.057-1.018
									C506.237,47.247,506.104,47.299,505.973,47.343"/>
								<path fill="#787879" d="M506.379,47.187l-3.057,1.018c0.254-0.11,0.527-0.249,0.836-0.419l3.056-1.014
									C506.906,46.939,506.632,47.077,506.379,47.187"/>
							</g>
						</g>
					</g>
				</g>
			</g>
			<g enable-background="new    ">
				<g>
					<g>
						<path fill="none" d="M499.108,27.138l3.057-0.943c-2.841,0.877-5.161,4.397-5.296,11.903l-3.057,0.996
							C493.947,31.562,496.269,28.021,499.108,27.138"/>
						<g enable-background="new    ">
							<g>
								<path fill="#787879" d="M496.869,38.098l-3.057,0.998c0.129-7.168,2.234-10.721,4.885-11.811l3.057-0.944
									C499.104,27.423,496.998,30.96,496.869,38.098"/>
								<path fill="#7C7D7D" d="M501.754,26.341l-3.057,0.944c0.135-0.057,0.273-0.104,0.411-0.147l3.057-0.943
									C502.027,26.237,501.889,26.287,501.754,26.341"/>
							</g>
						</g>
					</g>
				</g>
			</g>
			<polygon fill="#757676" points="496.838,39.729 493.781,40.73 493.812,39.094 496.869,38.098 			"/>
			<polygon fill="#737474" points="496.976,31.463 493.92,32.433 491.04,32.049 494.096,31.075 			"/>
			<g enable-background="new    ">
				<g>
					<g>
						<path fill="none" d="M505.92,53.374l-3.057,1.042c-0.398,0.135-0.826,0.213-1.31,0.228c-0.286,0.008-0.591-0.001-0.921-0.035
							c-3.891-0.438-7.005-4.859-6.852-13.878l3.057-1.002c-0.154,8.981,2.961,13.393,6.85,13.834
							c0.33,0.035,0.637,0.047,0.923,0.038C505.095,53.585,505.521,53.509,505.92,53.374"/>
						<g enable-background="new    ">
							<g>
								<path fill="#787879" d="M505.921,53.374l-3.058,1.042c-0.398,0.135-0.824,0.213-1.309,0.228
									c-0.286,0.008-0.592-0.001-0.922-0.035c-3.889-0.438-7.006-4.859-6.852-13.878l3.058-1.002
									c-0.156,8.981,2.96,13.393,6.85,13.834c0.331,0.035,0.636,0.047,0.922,0.038C505.095,53.585,505.521,53.509,505.921,53.374"
									/>
							</g>
						</g>
					</g>
				</g>
			</g>
			<path fill="#DCDDDE" d="M503.7,25.973c0.267,0.002,0.534,0.02,0.804,0.059c1.291,0.184,2.059,0.564,2.96,1.224l-0.118,6.354
				c-0.861-0.803-1.567-1.208-2.42-1.338c-0.094-0.011-0.186-0.017-0.279-0.017c-1.358,0.006-2.545,1.462-2.633,6.771l-0.021,0.993
				c-0.102,5.899,1.078,7.26,2.783,7.467c0.117,0.013,0.23,0.021,0.346,0.016c0.609-0.014,1.218-0.251,2.092-0.728l-0.119,5.994
				c-0.748,0.52-1.498,0.801-2.482,0.833c-0.288,0.009-0.594-0.003-0.924-0.038c-3.889-0.441-7.004-4.851-6.85-13.835l0.031-1.63
				C497.028,29.276,500.206,25.961,503.7,25.973"/>
			<polygon fill="#757676" points="486.219,29.983 483.162,30.964 483.275,24.71 486.332,23.75 			"/>
			<polygon fill="#737474" points="489.072,30.377 486.016,31.354 483.162,30.964 486.217,29.983 			"/>
			<polygon fill="#737474" points="493.732,52.11 490.676,53.164 485.651,52.599 488.707,51.54 			"/>
			<polygon fill="#757676" points="488.708,51.54 485.651,52.599 486.018,31.355 489.072,30.377 			"/>
			<polygon fill="#DCDDDE" points="486.332,23.75 497.088,25.312 496.976,31.465 494.096,31.077 493.732,52.11 488.708,51.54 
				489.072,30.377 486.219,29.984 			"/>
		</g>
	</g>
	<g enable-background="new    ">
		<g>
			<polygon fill="#777878" points="478,31.107 474.943,32.105 477.553,23.861 480.609,22.898 			"/>
			<polygon fill="#737474" points="484.924,51.114 481.867,52.175 477.025,51.629 480.081,50.563 			"/>
			<polygon fill="#757676" points="480.081,50.562 477.025,51.629 477.258,37.946 480.314,36.932 			"/>
			<polygon fill="#747475" points="477.793,44.776 474.736,45.825 472.44,37.316 475.497,36.293 			"/>
			<polygon fill="#DCDDDE" points="470.898,21.457 475.678,22.18 478,31.107 480.609,22.9 485.389,23.611 484.924,51.114 
				480.082,50.563 480.314,36.931 477.793,44.774 475.496,36.293 475.264,50.007 470.422,49.443 			"/>
			<polygon fill="#737474" points="475.264,50.007 472.207,51.076 467.365,50.521 470.422,49.443 			"/>
			<polygon fill="#757676" points="470.422,49.443 467.365,50.521 467.842,22.429 470.898,21.455 			"/>
		</g>
	</g>
	<path fill="#6D6E70" d="M473.941,66.485l-0.439-0.979l2.223,113.643l129.199-8.133V77.862
		C532.682,66.051,473.941,66.485,473.941,66.485"/>
</g>
</svg>
