<?xml version="1.0" encoding="utf-8"?>
<!-- Generator: Adobe Illustrator 14.0.0, SVG Export Plug-In . SVG Version: 6.00 Build 43363)  -->
<!DOCTYPE svg PUBLIC "-//W3C//DTD SVG 1.1//EN" "http://www.w3.org/Graphics/SVG/1.1/DTD/svg11.dtd">
<svg version="1.1" id="Layer_1" xmlns="http://www.w3.org/2000/svg" xmlns:xlink="http://www.w3.org/1999/xlink" x="0px" y="0px"
	 width="127px" height="60px" viewBox="0 0 127 60" enable-background="new 0 0 127 60" xml:space="preserve">
<g>
	<polygon fill="#33313B" points="125.874,0.719 123.187,0.719 3.806,0.719 1.117,0.719 1.117,4.088 1.117,56.068 1.117,59.438 
		3.806,59.438 123.187,59.438 125.874,59.438 125.874,56.068 125.874,4.088 	"/>
	<path fill="#5E67B0" d="M125.995,59.558H0.998V0.6h124.997V59.558z M1.236,59.318h124.519V0.837H1.236V59.318z"/>
	<path fill="#B4975A" d="M126.597,60H0.403V0h126.193V60z M1.84,58.562h123.321V1.437H1.84V58.562z"/>
	<path fill="#231F20" d="M113.517,10.742v0.129h-0.307v0.879h-0.154v-0.879h-0.305v-0.129H113.517z M114.489,11.751l-0.041-0.608
		c-0.006-0.079,0-0.175-0.002-0.273h-0.008c-0.025,0.095-0.055,0.199-0.084,0.287l-0.213,0.58h-0.115l-0.203-0.593
		c-0.027-0.081-0.051-0.178-0.074-0.273h-0.01c0,0.096,0,0.182-0.002,0.273l-0.039,0.608h-0.146l0.078-1.009h0.201l0.195,0.547
		c0.025,0.077,0.049,0.16,0.07,0.254h0.006c0.021-0.094,0.045-0.183,0.072-0.256l0.195-0.544h0.197l0.076,1.009H114.489z"/>
	<polygon fill="#231F20" points="24.393,10.178 24.287,18.762 24.433,18.762 26.917,10.178 31.24,10.178 28.694,27.136 
		25.519,27.136 26.98,17.362 26.834,17.362 24.119,27.136 22.137,27.136 22.325,17.362 22.198,17.362 20.737,27.136 17.541,27.136 
		20.069,10.178 	"/>
	<path fill="#231F20" d="M38.677,23.711c-0.19,1.254-0.294,2.152-0.942,2.8c-0.687,0.688-1.817,0.75-3.652,0.75
		c-2.424,0-3.72-0.188-3.72-1.692c0-0.437,0.043-1.063,0.169-1.858l1.503-10.128c0.188-1.232,0.313-2.129,0.897-2.735
		c0.712-0.752,1.88-0.773,3.717-0.773c2.507,0,3.717,0.104,3.717,1.837c0,0.419-0.064,0.961-0.166,1.671L38.677,23.711z
		 M36.691,13.353c0-0.354-0.146-0.501-0.522-0.501c-0.459,0-0.543,0.313-0.627,0.836l-1.484,9.918
		c-0.02,0.146-0.02,0.251-0.02,0.355c0,0.355,0.125,0.502,0.459,0.502c0.482,0,0.585-0.293,0.671-0.857l1.48-9.918
		C36.691,13.479,36.691,13.375,36.691,13.353"/>
	<polygon fill="#231F20" points="48.448,10.178 48.031,12.979 46.193,12.979 44.083,27.136 40.554,27.136 42.664,12.979 
		40.825,12.979 41.244,10.178 	"/>
	<path fill="#231F20" d="M55.109,23.711c-0.187,1.254-0.292,2.152-0.938,2.8c-0.689,0.688-1.817,0.75-3.655,0.75
		c-2.422,0-3.717-0.188-3.717-1.692c0-0.437,0.042-1.063,0.167-1.858l1.504-10.128c0.187-1.232,0.313-2.129,0.898-2.735
		c0.71-0.752,1.878-0.773,3.719-0.773c2.505,0,3.714,0.104,3.714,1.837c0,0.419-0.061,0.961-0.168,1.671L55.109,23.711z
		 M53.127,13.353c0-0.354-0.149-0.501-0.524-0.501c-0.46,0-0.542,0.313-0.625,0.836l-1.483,9.918
		c-0.021,0.146-0.021,0.251-0.021,0.355c0,0.355,0.124,0.502,0.457,0.502c0.482,0,0.587-0.293,0.67-0.857l1.485-9.918
		C53.127,13.479,53.127,13.375,53.127,13.353"/>
	<path fill="#231F20" d="M62.522,10.178c2.567,0,3.74,0.231,3.74,1.902c0,0.417-0.066,0.938-0.168,1.607l-0.251,1.754
		c-0.273,1.86-0.48,2.862-2.15,3.425c0.938,0.291,1.295,0.794,1.295,1.731c0,0.293-0.022,0.649-0.085,1.024l-0.814,5.514h-3.528
		l0.875-5.826c0.022-0.125,0.022-0.25,0.022-0.377c0-0.396-0.231-0.521-0.753-0.521h-0.25l-1.003,6.724h-3.529l2.528-16.958H62.522z
		 M60.936,17.258c0.146,0,0.251,0.021,0.355,0.021c0.753,0,0.794-0.294,0.918-1.128l0.314-2.111
		c0.062-0.395,0.084-0.626,0.084-0.646c0-0.416-0.21-0.479-0.731-0.479h-0.294L60.936,17.258z"/>
	<polygon fill="#231F20" points="77.581,10.178 77.163,12.979 75.325,12.979 73.214,27.136 69.685,27.136 71.793,12.979 
		69.956,12.979 70.375,10.178 	"/>
	<path fill="#231F20" d="M82.465,10.178c2.569,0,3.738,0.231,3.738,1.902c0,0.417-0.062,0.938-0.166,1.607l-0.25,1.754
		c-0.27,1.86-0.481,2.862-2.151,3.425c0.938,0.291,1.295,0.794,1.295,1.731c0,0.293-0.021,0.649-0.085,1.024l-0.814,5.514h-3.528
		l0.878-5.826c0.019-0.125,0.019-0.25,0.019-0.377c0-0.396-0.229-0.521-0.75-0.521h-0.251l-1.003,6.724h-3.529l2.528-16.958H82.465z
		 M80.878,17.258c0.146,0,0.252,0.021,0.355,0.021c0.75,0,0.794-0.294,0.919-1.128l0.312-2.111c0.062-0.395,0.085-0.626,0.085-0.646
		c0-0.416-0.21-0.479-0.733-0.479h-0.292L80.878,17.258z"/>
	<polygon fill="#231F20" points="93.534,10.178 93.115,12.916 90.985,12.916 90.461,16.443 92.594,16.443 92.176,19.2 90.067,19.2 
		89.293,24.379 91.403,24.379 91.005,27.136 85.348,27.136 87.875,10.178 	"/>
	<polygon fill="#231F20" points="98.127,10.178 98.504,18.867 98.648,18.867 99.965,10.178 102.993,10.178 100.465,27.136 
		97.189,27.136 96.729,18.825 96.582,18.825 95.351,27.136 92.3,27.136 94.827,10.178 	"/>
	<path fill="#231F20" d="M108.464,10.179c2.505,0,3.738,0.146,3.738,1.859c0,0.313-0.041,0.856-0.166,1.63l-1.483,9.959
		c-0.189,1.275-0.313,2.151-0.939,2.757c-0.711,0.71-1.84,0.752-3.657,0.752h-4.091l2.526-16.958H108.464z M105.812,24.401
		c0.145,0,0.252,0.021,0.354,0.021c0.753,0,0.796-0.272,0.897-1.045l1.401-9.398c0.063-0.355,0.083-0.543,0.083-0.583
		c0-0.397-0.188-0.522-0.688-0.522c-0.106,0-0.21,0.021-0.336,0.021L105.812,24.401z"/>
	<polygon fill="#EE3524" points="23.759,9.544 23.654,18.128 23.799,18.128 26.285,9.544 30.608,9.544 28.06,26.501 24.886,26.501 
		26.346,16.73 26.201,16.73 23.486,26.501 21.503,26.501 21.691,16.73 21.565,16.73 20.104,26.501 16.909,26.501 19.434,9.544 	"/>
	<path fill="#EE3524" d="M38.042,23.077c-0.188,1.251-0.293,2.151-0.941,2.797c-0.689,0.69-1.814,0.752-3.653,0.752
		c-2.422,0-3.718-0.186-3.718-1.691c0-0.439,0.042-1.063,0.168-1.858L31.4,12.95c0.188-1.232,0.314-2.13,0.898-2.737
		c0.711-0.75,1.881-0.771,3.718-0.771c2.504,0,3.715,0.104,3.715,1.837c0,0.417-0.061,0.961-0.166,1.671L38.042,23.077z
		 M36.059,12.719c0-0.355-0.147-0.5-0.523-0.5c-0.459,0-0.544,0.311-0.626,0.834l-1.483,9.919c-0.02,0.146-0.02,0.251-0.02,0.356
		c0,0.353,0.125,0.5,0.458,0.5c0.482,0,0.586-0.292,0.669-0.855l1.483-9.919C36.059,12.844,36.059,12.74,36.059,12.719"/>
	<polygon fill="#EE3524" points="47.813,9.544 47.396,12.343 45.559,12.343 43.449,26.501 39.921,26.501 42.03,12.343 
		40.192,12.343 40.609,9.544 	"/>
	<path fill="#EE3524" d="M54.476,23.077c-0.187,1.251-0.293,2.151-0.94,2.797c-0.687,0.69-1.815,0.752-3.653,0.752
		c-2.423,0-3.717-0.186-3.717-1.691c0-0.439,0.042-1.063,0.167-1.858l1.502-10.127c0.188-1.232,0.313-2.13,0.896-2.737
		c0.713-0.75,1.881-0.771,3.718-0.771c2.508,0,3.719,0.104,3.719,1.837c0,0.417-0.062,0.961-0.166,1.671L54.476,23.077z
		 M52.492,12.719c0-0.355-0.146-0.5-0.521-0.5c-0.461,0-0.544,0.311-0.629,0.834l-1.481,9.919c-0.021,0.146-0.021,0.251-0.021,0.356
		c0,0.353,0.125,0.5,0.458,0.5c0.48,0,0.587-0.292,0.67-0.855l1.48-9.919C52.492,12.844,52.492,12.74,52.492,12.719"/>
	<path fill="#EE3524" d="M61.888,9.546c2.569,0,3.738,0.229,3.738,1.9c0,0.416-0.061,0.94-0.165,1.607l-0.251,1.754
		c-0.273,1.858-0.482,2.859-2.151,3.426c0.94,0.292,1.294,0.793,1.294,1.732c0,0.293-0.02,0.649-0.084,1.023l-0.813,5.513h-3.529
		l0.877-5.826c0.019-0.125,0.019-0.251,0.019-0.375c0-0.396-0.227-0.522-0.75-0.522h-0.249l-1.003,6.723h-3.531l2.528-16.956H61.888
		z M60.303,16.625c0.144,0,0.25,0.02,0.354,0.02c0.752,0,0.792-0.291,0.917-1.127l0.314-2.109c0.064-0.397,0.083-0.625,0.083-0.646
		c0-0.419-0.207-0.482-0.729-0.482h-0.292L60.303,16.625z"/>
	<polygon fill="#F3F2F2" points="76.944,9.544 76.528,12.343 74.69,12.343 72.582,26.501 69.052,26.501 71.163,12.343 
		69.325,12.343 69.742,9.544 	"/>
	<path fill="#F3F2F2" d="M81.831,9.546c2.571,0,3.74,0.229,3.74,1.9c0,0.416-0.064,0.94-0.166,1.607l-0.252,1.754
		c-0.271,1.858-0.483,2.859-2.151,3.426c0.938,0.292,1.295,0.793,1.295,1.732c0,0.293-0.022,0.649-0.083,1.023l-0.814,5.513H79.87
		l0.875-5.826c0.022-0.125,0.022-0.251,0.022-0.375c0-0.396-0.232-0.522-0.752-0.522h-0.249l-1.003,6.723h-3.531L77.76,9.546H81.831
		z M80.246,16.625c0.145,0,0.25,0.02,0.356,0.02c0.749,0,0.793-0.291,0.917-1.127l0.312-2.109c0.066-0.397,0.085-0.625,0.085-0.646
		c0-0.419-0.21-0.482-0.731-0.482h-0.292L80.246,16.625z"/>
	<polygon fill="#F3F2F2" points="92.901,9.544 92.482,12.28 90.351,12.28 89.828,15.81 91.959,15.81 91.543,18.566 89.433,18.566 
		88.663,23.746 90.77,23.746 90.371,26.501 84.712,26.501 87.241,9.544 	"/>
	<polygon fill="#F3F2F2" points="97.495,9.544 97.87,18.233 98.015,18.233 99.333,9.544 102.36,9.544 99.831,26.501 96.554,26.501 
		96.096,18.19 95.949,18.19 94.716,26.501 91.667,26.501 94.196,9.544 	"/>
	<path fill="#F3F2F2" d="M107.83,9.544c2.507,0,3.738,0.147,3.738,1.859c0,0.314-0.041,0.857-0.166,1.629l-1.481,9.962
		c-0.191,1.275-0.313,2.151-0.941,2.756c-0.71,0.711-1.838,0.752-3.655,0.752h-4.095l2.53-16.958H107.83z M105.178,23.766
		c0.146,0,0.251,0.021,0.354,0.021c0.752,0,0.794-0.271,0.897-1.044l1.399-9.398c0.063-0.354,0.084-0.544,0.084-0.584
		c0-0.398-0.188-0.521-0.688-0.521c-0.107,0-0.211,0.02-0.336,0.02L105.178,23.766z"/>
	<path fill="#FFFFFF" d="M113.403,10.672v0.116h-0.275v0.791h-0.139v-0.791h-0.273v-0.116H113.403z M114.282,11.58l-0.037-0.546
		c-0.008-0.071,0-0.158-0.004-0.246h-0.006c-0.025,0.085-0.051,0.181-0.08,0.259l-0.188,0.521h-0.105l-0.182-0.534
		c-0.023-0.073-0.047-0.161-0.068-0.246h-0.006c-0.002,0.085,0,0.165-0.004,0.246l-0.033,0.546h-0.133l0.07-0.907h0.18l0.176,0.493
		c0.025,0.067,0.045,0.143,0.064,0.227h0.006c0.018-0.084,0.041-0.165,0.064-0.23l0.178-0.49h0.176l0.066,0.907H114.282z"/>
	<path fill="#B4975A" d="M17.23,37.701h6.554c1.623,0,2.642,0.369,3.328,1.054c0.418,0.419,0.72,1.021,0.72,1.824v0.032
		c0,1.388-0.837,2.241-2.091,2.676c1.504,0.435,2.474,1.236,2.474,2.842v0.033c0,1.873-1.538,3.244-4.498,3.244H17.23V37.701z
		 M22.748,42.3c0.835,0,1.237-0.285,1.237-0.803v-0.033c0-0.518-0.417-0.803-1.253-0.803h-1.689V42.3H22.748z M22.999,46.447
		c0.853,0,1.288-0.353,1.288-0.854V45.56c0-0.5-0.419-0.852-1.271-0.852h-1.974v1.739H22.999z"/>
	<polygon fill="#B4975A" points="30.071,37.701 40.053,37.701 40.053,40.912 33.917,40.912 33.917,42.1 39.635,42.1 39.635,44.925 
		33.917,44.925 33.917,46.196 40.137,46.196 40.137,49.406 30.071,49.406 	"/>
	<path fill="#B4975A" d="M41.223,47.65l2.09-2.491c1.271,0.97,2.725,1.371,4.096,1.371c0.702,0,1.004-0.184,1.004-0.502v-0.032
		c0-0.335-0.369-0.519-1.623-0.771c-2.626-0.534-4.933-1.287-4.933-3.762v-0.033c0-2.224,1.739-3.947,4.966-3.947
		c2.257,0,3.929,0.536,5.283,1.606l-1.906,2.642c-1.103-0.803-2.423-1.152-3.511-1.152c-0.584,0-0.853,0.199-0.853,0.484v0.032
		c0,0.317,0.318,0.519,1.555,0.753c2.994,0.552,5,1.421,5,3.778v0.034c0,2.457-2.022,3.963-5.166,3.963
		C44.851,49.624,42.711,48.954,41.223,47.65"/>
	<polygon fill="#B4975A" points="56.874,41.013 53.431,41.013 53.431,37.701 64.233,37.701 64.233,41.013 60.787,41.013 
		60.787,49.406 56.874,49.406 	"/>
	<path fill="#B4975A" d="M71.335,37.701h6.556c1.622,0,2.642,0.369,3.327,1.054c0.419,0.419,0.72,1.021,0.72,1.824v0.032
		c0,1.388-0.837,2.241-2.091,2.676c1.505,0.435,2.476,1.236,2.476,2.842v0.033c0,1.873-1.541,3.244-4.498,3.244h-6.489V37.701z
		 M76.856,42.3c0.835,0,1.236-0.285,1.236-0.803v-0.033c0-0.518-0.419-0.803-1.255-0.803H75.15V42.3H76.856z M77.105,46.447
		c0.854,0,1.288-0.353,1.288-0.854V45.56c0-0.5-0.418-0.852-1.271-0.852H75.15v1.739H77.105z"/>
	<path fill="#B4975A" d="M84.06,44.156v-6.455h3.981v6.404c0,1.455,0.752,2.074,1.806,2.074c1.052,0,1.805-0.569,1.805-1.99v-6.488
		h3.979v6.37c0,3.997-2.324,5.568-5.818,5.568S84.06,48.035,84.06,44.156"/>
	<polygon fill="#B4975A" points="101.399,45.26 96.984,37.702 101.365,37.702 103.373,41.548 105.397,37.702 109.725,37.702 
		105.312,45.21 105.312,49.406 101.399,49.406 	"/>
	<path fill="#F3F2F2" d="M17.29,28.408h3.345c0.955,0,1.722,0.289,2.211,0.778c0.377,0.377,0.6,0.922,0.6,1.533v0.022
		c0,1.289-0.888,2.044-2.112,2.268l2.389,3.177h-1.078l-2.255-3.021h-0.022h-2.2v3.021H17.29V28.408z M20.557,32.374
		c1.167,0,2-0.6,2-1.599v-0.023c0-0.955-0.734-1.533-1.99-1.533h-2.4v3.155H20.557z"/>
	<polygon fill="#F3F2F2" points="25.534,28.408 31.155,28.408 31.155,29.208 26.411,29.208 26.411,31.863 30.656,31.863 
		30.656,32.664 26.411,32.664 26.411,35.387 31.212,35.387 31.212,36.187 25.534,36.187 	"/>
	<path fill="#F3F2F2" d="M32.866,32.319v-0.022c0-2.201,1.646-4.023,3.935-4.023c1.411,0,2.255,0.5,3.033,1.233l-0.6,0.645
		c-0.656-0.622-1.389-1.067-2.444-1.067c-1.722,0-3.011,1.401-3.011,3.19v0.021c0,1.801,1.3,3.212,3.011,3.212
		c1.066,0,1.767-0.412,2.511-1.123l0.578,0.566c-0.811,0.822-1.7,1.366-3.111,1.366C34.522,36.318,32.866,34.552,32.866,32.319"/>
	<path fill="#F3F2F2" d="M41.066,32.319v-0.022c0-2.145,1.61-4.023,3.979-4.023c2.366,0,3.955,1.856,3.955,4.001
		c0.01,0.011,0.01,0.011,0,0.021c0,2.146-1.61,4.021-3.978,4.021C42.655,36.318,41.066,34.464,41.066,32.319 M48.088,32.319v-0.022
		c0-1.767-1.289-3.212-3.067-3.212c-1.778,0-3.045,1.424-3.045,3.19v0.021c0,1.767,1.29,3.212,3.068,3.212
		C46.822,35.509,48.088,34.086,48.088,32.319"/>
	<polygon fill="#F3F2F2" points="50.853,28.408 51.744,28.408 54.576,32.652 57.41,28.408 58.299,28.408 58.299,36.187 
		57.421,36.187 57.421,29.886 54.588,34.053 54.542,34.053 51.71,29.897 51.71,36.187 50.853,36.187 	"/>
	<polygon fill="#F3F2F2" points="60.72,28.408 61.609,28.408 64.443,32.652 67.275,28.408 68.165,28.408 68.165,36.187 
		67.287,36.187 67.287,29.886 64.453,34.053 64.409,34.053 61.575,29.897 61.575,36.187 60.72,36.187 	"/>
	<polygon fill="#F3F2F2" points="70.585,28.408 76.209,28.408 76.209,29.208 71.463,29.208 71.463,31.863 75.708,31.863 
		75.708,32.664 71.463,32.664 71.463,35.387 76.263,35.387 76.263,36.187 70.585,36.187 	"/>
	<polygon fill="#F3F2F2" points="78.03,28.408 78.853,28.408 83.753,34.642 83.753,28.408 84.609,28.408 84.609,36.187 
		83.91,36.187 78.887,29.808 78.887,36.187 78.03,36.187 	"/>
	<path fill="#F3F2F2" d="M87.03,28.408h2.7c2.445,0,4.133,1.678,4.133,3.868v0.021c0,2.189-1.688,3.89-4.133,3.89h-2.7V28.408z
		 M89.73,35.374c1.967,0,3.222-1.333,3.222-3.055v-0.022c0-1.722-1.255-3.079-3.222-3.079h-1.822v6.156H89.73z"/>
	<polygon fill="#F3F2F2" points="95.718,28.408 101.341,28.408 101.341,29.208 96.595,29.208 96.595,31.863 100.839,31.863 
		100.839,32.664 96.595,32.664 96.595,35.387 101.396,35.387 101.396,36.187 95.718,36.187 	"/>
	<path fill="#F3F2F2" d="M102.94,28.408h2.699c2.445,0,4.134,1.678,4.134,3.868v0.021c0,2.189-1.688,3.89-4.134,3.89h-2.699V28.408z
		 M105.639,35.374c1.967,0,3.223-1.333,3.223-3.055v-0.022c0-1.722-1.256-3.079-3.223-3.079h-1.822v6.156H105.639z"/>
</g>
</svg>
